G75*
%MOIN*%
%OFA0B0*%
%FSLAX25Y25*%
%IPPOS*%
%LPD*%
%AMOC8*
5,1,8,0,0,1.08239X$1,22.5*
%
%ADD10OC8,0.05543*%
%ADD11R,0.05906X0.05118*%
%ADD12C,0.07874*%
%ADD13C,0.01200*%
%ADD14R,0.03937X0.05906*%
%ADD15R,0.08000X0.02600*%
%ADD16R,0.02600X0.08000*%
%ADD17R,0.05512X0.03937*%
%ADD18R,0.05118X0.05906*%
%ADD19C,0.07677*%
%ADD20R,0.05512X0.04331*%
%ADD21R,0.04331X0.05512*%
%ADD22R,0.08661X0.02362*%
%ADD23OC8,0.05937*%
%ADD24R,0.02000X0.02000*%
%ADD25C,0.05937*%
%ADD26R,0.05000X0.02000*%
%ADD27R,0.03937X0.05512*%
%ADD28C,0.07800*%
%ADD29OC8,0.07800*%
%ADD30C,0.06300*%
%ADD31OC8,0.08600*%
%ADD32R,0.07205X0.05512*%
%ADD33OC8,0.06000*%
%ADD34R,0.05906X0.09055*%
%ADD35R,0.03898X0.02717*%
%ADD36C,0.01000*%
%ADD37C,0.00700*%
%ADD38C,0.02700*%
D10*
X0135100Y0141400D03*
X0145100Y0141400D03*
X0155100Y0141400D03*
X0165100Y0141400D03*
X0175100Y0141400D03*
X0185100Y0141400D03*
X0205100Y0141400D03*
X0215100Y0141400D03*
X0225100Y0141400D03*
X0235100Y0141400D03*
X0245100Y0141400D03*
X0255100Y0141400D03*
X0265100Y0141400D03*
X0275100Y0141400D03*
X0295100Y0141400D03*
X0305100Y0141400D03*
X0315100Y0141400D03*
X0325100Y0141400D03*
X0335100Y0141400D03*
X0345100Y0141400D03*
X0355100Y0141400D03*
X0365100Y0141400D03*
X0375100Y0161400D03*
X0385100Y0161400D03*
X0385100Y0171400D03*
X0375100Y0171400D03*
X0375100Y0181400D03*
X0385100Y0181400D03*
X0345100Y0331400D03*
X0335100Y0331400D03*
X0325100Y0331400D03*
X0315100Y0331400D03*
X0305100Y0331400D03*
X0295100Y0331400D03*
X0285100Y0331400D03*
X0275100Y0331400D03*
X0255100Y0331400D03*
X0245100Y0331400D03*
X0235100Y0331400D03*
X0225100Y0331400D03*
X0215100Y0331400D03*
X0205100Y0331400D03*
X0195100Y0331400D03*
X0185100Y0331400D03*
X0169200Y0331400D03*
X0159200Y0331400D03*
X0149200Y0331400D03*
X0139200Y0331400D03*
X0129200Y0331400D03*
X0119200Y0331400D03*
X0109200Y0331400D03*
X0099200Y0331400D03*
D11*
X0099000Y0322740D03*
X0099000Y0315260D03*
X0119500Y0315260D03*
X0129500Y0315260D03*
X0139000Y0315260D03*
X0139000Y0322740D03*
X0129500Y0322740D03*
X0119500Y0322740D03*
X0149000Y0322740D03*
X0159000Y0322740D03*
X0169500Y0322740D03*
X0169500Y0315260D03*
X0159000Y0315260D03*
X0149000Y0315260D03*
X0185000Y0315260D03*
X0195500Y0315260D03*
X0205500Y0315260D03*
X0215000Y0315260D03*
X0215000Y0322740D03*
X0205500Y0322740D03*
X0195500Y0322740D03*
X0185000Y0322740D03*
X0225500Y0322740D03*
X0235000Y0322740D03*
X0245000Y0322740D03*
X0255000Y0322740D03*
X0255000Y0315260D03*
X0245000Y0315260D03*
X0235000Y0315260D03*
X0225500Y0315260D03*
X0088500Y0272240D03*
X0088500Y0264760D03*
X0088500Y0255740D03*
X0088500Y0248260D03*
X0035000Y0254760D03*
X0035000Y0262240D03*
X0035000Y0237740D03*
X0035000Y0230260D03*
X0107598Y0171567D03*
X0107598Y0164087D03*
X0123000Y0144740D03*
X0123000Y0137260D03*
X0118567Y0124575D03*
X0118567Y0117094D03*
X0076461Y0117752D03*
X0076461Y0125232D03*
X0016654Y0124854D03*
X0016654Y0117374D03*
X0163831Y0116937D03*
X0163831Y0124417D03*
X0169626Y0109602D03*
X0169626Y0102122D03*
X0238803Y0124445D03*
X0238803Y0131925D03*
X0239000Y0151260D03*
X0231500Y0151260D03*
X0224000Y0151260D03*
X0216500Y0151260D03*
X0209000Y0151260D03*
X0209000Y0158740D03*
X0216500Y0158740D03*
X0224000Y0158740D03*
X0231500Y0158740D03*
X0239000Y0158740D03*
X0247000Y0158740D03*
X0247000Y0151260D03*
X0323150Y0124795D03*
X0323150Y0117315D03*
X0375551Y0117504D03*
X0375551Y0124984D03*
X0430087Y0128335D03*
X0430087Y0120854D03*
X0492531Y0150307D03*
X0492531Y0157787D03*
X0347000Y0239260D03*
X0347000Y0246740D03*
X0418000Y0277260D03*
X0418000Y0284740D03*
X0499000Y0282240D03*
X0499000Y0274760D03*
X0497748Y0255799D03*
X0497748Y0248319D03*
X0733516Y0123516D03*
X0733516Y0116035D03*
X0794272Y0101543D03*
X0794272Y0094063D03*
D12*
X0805000Y0048000D03*
X0042000Y0327500D03*
D13*
X0012000Y0183500D02*
X0012000Y0179500D01*
X0010000Y0181500D02*
X0014000Y0181500D01*
X0812000Y0181500D02*
X0816000Y0181500D01*
X0814000Y0183500D02*
X0814000Y0179500D01*
D14*
X0802929Y0109303D03*
X0791118Y0109303D03*
X0751748Y0109303D03*
X0739937Y0109303D03*
X0700567Y0109303D03*
X0688756Y0109303D03*
X0649386Y0109303D03*
X0637575Y0109303D03*
X0598205Y0109303D03*
X0586394Y0109303D03*
X0547024Y0109303D03*
X0535213Y0109303D03*
X0495843Y0109303D03*
X0484031Y0109303D03*
X0444661Y0109303D03*
X0432850Y0109303D03*
X0393480Y0109303D03*
X0381669Y0109303D03*
X0342299Y0109303D03*
X0330488Y0109303D03*
X0291118Y0109303D03*
X0279307Y0109303D03*
X0239937Y0109303D03*
X0228126Y0109303D03*
X0188756Y0109303D03*
X0176945Y0109303D03*
X0137575Y0109303D03*
X0125764Y0109303D03*
X0086394Y0109303D03*
X0074583Y0109303D03*
X0035213Y0109303D03*
X0023402Y0109303D03*
D15*
X0196483Y0111354D03*
X0196483Y0116354D03*
X0196483Y0121354D03*
X0196483Y0126354D03*
X0220683Y0126354D03*
X0220683Y0121354D03*
X0220683Y0116354D03*
X0220683Y0111354D03*
X0220683Y0106354D03*
X0220683Y0101354D03*
X0220683Y0096354D03*
X0220683Y0091354D03*
X0196483Y0091354D03*
X0196483Y0096354D03*
X0196483Y0101354D03*
X0196483Y0106354D03*
X0358400Y0238500D03*
X0358400Y0243500D03*
X0358400Y0248500D03*
X0358400Y0253500D03*
X0358400Y0258500D03*
X0358400Y0263500D03*
X0358400Y0268500D03*
X0382600Y0268500D03*
X0382600Y0263500D03*
X0382600Y0258500D03*
X0382600Y0253500D03*
X0382600Y0248500D03*
X0382600Y0243500D03*
X0382600Y0238500D03*
X0328521Y0269008D03*
X0328521Y0274008D03*
X0328521Y0279008D03*
X0328521Y0284008D03*
X0328521Y0289008D03*
X0328521Y0294008D03*
X0328521Y0299008D03*
X0328521Y0304008D03*
X0304321Y0304008D03*
X0304321Y0299008D03*
X0304321Y0294008D03*
X0304321Y0289008D03*
X0304321Y0284008D03*
X0304321Y0279008D03*
X0304321Y0274008D03*
X0304321Y0269008D03*
X0506400Y0180000D03*
X0506400Y0175000D03*
X0506400Y0170000D03*
X0506400Y0165000D03*
X0506400Y0160000D03*
X0506400Y0155000D03*
X0506400Y0150000D03*
X0506400Y0145000D03*
X0530600Y0145000D03*
X0530600Y0150000D03*
X0530600Y0155000D03*
X0530600Y0160000D03*
X0530600Y0165000D03*
X0530600Y0170000D03*
X0530600Y0175000D03*
X0530600Y0180000D03*
D16*
X0484547Y0165962D03*
X0479547Y0165962D03*
X0474547Y0165962D03*
X0469547Y0165962D03*
X0464547Y0165962D03*
X0459547Y0165962D03*
X0454547Y0165962D03*
X0449547Y0165962D03*
X0449547Y0141762D03*
X0454547Y0141762D03*
X0459547Y0141762D03*
X0464547Y0141762D03*
X0469547Y0141762D03*
X0474547Y0141762D03*
X0479547Y0141762D03*
X0484547Y0141762D03*
X0484937Y0239959D03*
X0479937Y0239959D03*
X0474937Y0239959D03*
X0469937Y0239959D03*
X0464937Y0239959D03*
X0459937Y0239959D03*
X0454937Y0239959D03*
X0489937Y0239959D03*
X0489937Y0264159D03*
X0484937Y0264159D03*
X0479937Y0264159D03*
X0474937Y0264159D03*
X0469937Y0264159D03*
X0464937Y0264159D03*
X0459937Y0264159D03*
X0454937Y0264159D03*
X0098752Y0179840D03*
X0093752Y0179840D03*
X0088752Y0179840D03*
X0083752Y0179840D03*
X0078752Y0179840D03*
X0073752Y0179840D03*
X0068752Y0179840D03*
X0063752Y0179840D03*
X0063752Y0155640D03*
X0068752Y0155640D03*
X0073752Y0155640D03*
X0078752Y0155640D03*
X0083752Y0155640D03*
X0088752Y0155640D03*
X0093752Y0155640D03*
X0098752Y0155640D03*
X0058000Y0246400D03*
X0053000Y0246400D03*
X0048000Y0246400D03*
X0043000Y0246400D03*
X0043000Y0270600D03*
X0048000Y0270600D03*
X0053000Y0270600D03*
X0058000Y0270600D03*
D17*
X0066331Y0279260D03*
X0066331Y0286740D03*
X0057669Y0283000D03*
X0051831Y0237240D03*
X0043169Y0233500D03*
X0051831Y0229760D03*
X0246661Y0132661D03*
X0255323Y0128921D03*
X0246661Y0125181D03*
X0285043Y0126539D03*
X0293705Y0122799D03*
X0285043Y0119059D03*
X0332091Y0117248D03*
X0340752Y0120988D03*
X0332091Y0124728D03*
X0383453Y0125094D03*
X0392114Y0121354D03*
X0383453Y0117614D03*
X0439193Y0120909D03*
X0447854Y0124650D03*
X0439193Y0128390D03*
X0486024Y0124555D03*
X0494685Y0120815D03*
X0486024Y0117075D03*
X0536850Y0116799D03*
X0545512Y0120539D03*
X0536850Y0124280D03*
X0588209Y0124193D03*
X0596870Y0120453D03*
X0588209Y0116713D03*
X0639669Y0116760D03*
X0648331Y0120500D03*
X0639669Y0124240D03*
X0690295Y0124106D03*
X0698957Y0120366D03*
X0690295Y0116626D03*
X0741642Y0116421D03*
X0750303Y0120161D03*
X0741642Y0123902D03*
X0798878Y0126079D03*
X0807539Y0122339D03*
X0798878Y0118598D03*
X0180205Y0120992D03*
X0171543Y0117252D03*
X0171543Y0124732D03*
X0136303Y0120969D03*
X0127642Y0124709D03*
X0127642Y0117228D03*
X0092783Y0121441D03*
X0084122Y0125181D03*
X0084122Y0117701D03*
X0033768Y0121386D03*
X0025106Y0125126D03*
X0025106Y0117646D03*
D18*
X0025343Y0100217D03*
X0032823Y0100217D03*
X0076803Y0099850D03*
X0084283Y0099850D03*
X0127858Y0100610D03*
X0135339Y0100610D03*
X0204488Y0084039D03*
X0211969Y0084039D03*
X0241272Y0089476D03*
X0248752Y0089476D03*
X0281417Y0101075D03*
X0288898Y0101075D03*
X0332354Y0100957D03*
X0339835Y0100957D03*
X0383713Y0101079D03*
X0391193Y0101079D03*
X0434720Y0100890D03*
X0442201Y0100890D03*
X0486146Y0101205D03*
X0493626Y0101205D03*
X0520287Y0120602D03*
X0527768Y0120602D03*
X0522185Y0137390D03*
X0514705Y0137390D03*
X0478539Y0123484D03*
X0471059Y0123484D03*
X0537035Y0101110D03*
X0544516Y0101110D03*
X0588307Y0100925D03*
X0595787Y0100925D03*
X0639268Y0101043D03*
X0646748Y0101043D03*
X0690776Y0100508D03*
X0698256Y0100508D03*
X0741917Y0101425D03*
X0749398Y0101425D03*
X0783917Y0128256D03*
X0791398Y0128256D03*
X0681224Y0123969D03*
X0673744Y0123969D03*
X0631732Y0124433D03*
X0624252Y0124433D03*
X0577059Y0128984D03*
X0569579Y0128984D03*
X0359740Y0155500D03*
X0352260Y0155500D03*
X0352260Y0163000D03*
X0359740Y0163000D03*
X0359740Y0170500D03*
X0352260Y0170500D03*
X0277685Y0130953D03*
X0270205Y0130953D03*
X0234240Y0188000D03*
X0226760Y0188000D03*
X0226760Y0196000D03*
X0234240Y0196000D03*
X0234240Y0204000D03*
X0226760Y0204000D03*
X0218740Y0214500D03*
X0211260Y0214500D03*
X0202240Y0214500D03*
X0194760Y0214500D03*
X0176740Y0204000D03*
X0169260Y0204000D03*
X0169260Y0196000D03*
X0176740Y0196000D03*
X0176740Y0188000D03*
X0169260Y0188000D03*
X0161740Y0214500D03*
X0154260Y0214500D03*
X0145740Y0214500D03*
X0138260Y0214500D03*
X0169760Y0239500D03*
X0177240Y0239500D03*
X0177240Y0247500D03*
X0169760Y0247500D03*
X0169760Y0255500D03*
X0177240Y0255500D03*
X0161740Y0267000D03*
X0154260Y0267000D03*
X0145240Y0267000D03*
X0137760Y0267000D03*
X0193760Y0266500D03*
X0201240Y0266500D03*
X0210260Y0266500D03*
X0217740Y0266500D03*
X0227260Y0255000D03*
X0234740Y0255000D03*
X0234740Y0247500D03*
X0227260Y0247500D03*
X0227260Y0239500D03*
X0234740Y0239500D03*
X0274260Y0235500D03*
X0281740Y0235500D03*
X0281740Y0225500D03*
X0274260Y0225500D03*
X0337760Y0258500D03*
X0345240Y0258500D03*
X0438260Y0275000D03*
X0445740Y0275000D03*
X0516760Y0243000D03*
X0524240Y0243000D03*
X0654760Y0300000D03*
X0662240Y0300000D03*
X0673760Y0300000D03*
X0681240Y0300000D03*
X0681260Y0291500D03*
X0688740Y0291500D03*
X0546740Y0316500D03*
X0539260Y0316500D03*
X0334740Y0312500D03*
X0327260Y0312500D03*
X0318240Y0312500D03*
X0310760Y0312500D03*
X0310760Y0321500D03*
X0318240Y0321500D03*
X0327260Y0321500D03*
X0334740Y0321500D03*
X0082240Y0283000D03*
X0074760Y0283000D03*
X0071260Y0239500D03*
X0078740Y0239500D03*
X0078740Y0230000D03*
X0071260Y0230000D03*
D19*
X0338157Y0229106D03*
X0357843Y0229106D03*
X0402409Y0210972D03*
X0422094Y0210972D03*
X0422094Y0197193D03*
X0402409Y0197193D03*
X0357843Y0179894D03*
X0338157Y0179894D03*
X0402409Y0147980D03*
X0422094Y0147980D03*
X0466157Y0179894D03*
X0485843Y0179894D03*
X0554638Y0191516D03*
X0574323Y0191516D03*
X0615819Y0191516D03*
X0635504Y0191516D03*
X0677000Y0191516D03*
X0696685Y0191516D03*
X0786257Y0191506D03*
X0805943Y0191506D03*
X0805943Y0142294D03*
X0786257Y0142294D03*
X0696685Y0142303D03*
X0677000Y0142303D03*
X0635504Y0142303D03*
X0615819Y0142303D03*
X0574323Y0142303D03*
X0554638Y0142303D03*
X0549961Y0080280D03*
X0530276Y0080280D03*
X0498780Y0080280D03*
X0479094Y0080280D03*
X0447598Y0080280D03*
X0427913Y0080280D03*
X0396417Y0080280D03*
X0376732Y0080280D03*
X0345236Y0080280D03*
X0325551Y0080280D03*
X0294055Y0080280D03*
X0274370Y0080280D03*
X0242874Y0080280D03*
X0223189Y0080280D03*
X0191693Y0080280D03*
X0172008Y0080280D03*
X0140512Y0080280D03*
X0120827Y0080280D03*
X0089331Y0080280D03*
X0069646Y0080280D03*
X0038150Y0080280D03*
X0018465Y0080280D03*
X0018465Y0031067D03*
X0038150Y0031067D03*
X0069646Y0031067D03*
X0089331Y0031067D03*
X0120827Y0031067D03*
X0140512Y0031067D03*
X0172008Y0031067D03*
X0191693Y0031067D03*
X0223189Y0031067D03*
X0242874Y0031067D03*
X0274370Y0031067D03*
X0294055Y0031067D03*
X0325551Y0031067D03*
X0345236Y0031067D03*
X0376732Y0031067D03*
X0396417Y0031067D03*
X0427913Y0031067D03*
X0447598Y0031067D03*
X0479094Y0031067D03*
X0498780Y0031067D03*
X0530276Y0031067D03*
X0549961Y0031067D03*
X0581457Y0031067D03*
X0601142Y0031067D03*
X0632638Y0031067D03*
X0652323Y0031067D03*
X0683819Y0031067D03*
X0703504Y0031067D03*
X0735000Y0031067D03*
X0754685Y0031067D03*
X0786181Y0031067D03*
X0805866Y0031067D03*
X0805866Y0080280D03*
X0786181Y0080280D03*
X0754685Y0080280D03*
X0735000Y0080280D03*
X0703504Y0080280D03*
X0683819Y0080280D03*
X0652323Y0080280D03*
X0632638Y0080280D03*
X0601142Y0080280D03*
X0581457Y0080280D03*
X0485843Y0229106D03*
X0466157Y0229106D03*
X0422094Y0260185D03*
X0402409Y0260185D03*
D20*
X0409500Y0265563D03*
X0409500Y0273437D03*
X0338000Y0245937D03*
X0338000Y0238063D03*
X0380500Y0227937D03*
X0380500Y0220063D03*
X0382500Y0202937D03*
X0382500Y0195063D03*
X0445000Y0217563D03*
X0445000Y0225437D03*
X0533500Y0195437D03*
X0533500Y0187563D03*
X0595000Y0184063D03*
X0595000Y0191937D03*
X0656500Y0191937D03*
X0656500Y0184063D03*
X0767000Y0151437D03*
X0767000Y0143563D03*
X0159331Y0092862D03*
X0159331Y0084988D03*
X0111315Y0085394D03*
X0111315Y0093268D03*
X0013724Y0090130D03*
X0013724Y0098004D03*
D21*
X0054165Y0087374D03*
X0062039Y0087374D03*
X0169339Y0089201D03*
X0177213Y0089201D03*
X0260984Y0089256D03*
X0268858Y0089256D03*
X0306402Y0086240D03*
X0314276Y0086240D03*
X0356996Y0085398D03*
X0364870Y0085398D03*
X0407421Y0085150D03*
X0415295Y0085150D03*
X0460047Y0085008D03*
X0467921Y0085008D03*
X0513209Y0086067D03*
X0521083Y0086067D03*
X0561913Y0084425D03*
X0569787Y0084425D03*
X0613260Y0085256D03*
X0621134Y0085256D03*
X0665201Y0085594D03*
X0673075Y0085594D03*
X0715398Y0085350D03*
X0723272Y0085350D03*
X0766386Y0085350D03*
X0774260Y0085350D03*
X0402437Y0273500D03*
X0394563Y0273500D03*
X0319437Y0251500D03*
X0311563Y0251500D03*
X0311563Y0241500D03*
X0319437Y0241500D03*
X0319437Y0231500D03*
X0311563Y0231500D03*
X0311563Y0221500D03*
X0319437Y0221500D03*
X0319437Y0211500D03*
X0311563Y0211500D03*
X0311563Y0201500D03*
X0319437Y0201500D03*
X0319437Y0191500D03*
X0311563Y0191500D03*
X0311563Y0181500D03*
X0319437Y0181500D03*
D22*
X0216736Y0191000D03*
X0216736Y0196000D03*
X0216736Y0201000D03*
X0216736Y0206000D03*
X0196264Y0206000D03*
X0196264Y0201000D03*
X0196264Y0196000D03*
X0196264Y0191000D03*
X0159236Y0191000D03*
X0159236Y0196000D03*
X0159236Y0201000D03*
X0159236Y0206000D03*
X0138764Y0206000D03*
X0138764Y0201000D03*
X0138764Y0196000D03*
X0138764Y0191000D03*
X0138764Y0242500D03*
X0138764Y0247500D03*
X0138764Y0252500D03*
X0138764Y0257500D03*
X0159236Y0257500D03*
X0159236Y0252500D03*
X0159236Y0247500D03*
X0159236Y0242500D03*
X0196264Y0242500D03*
X0196264Y0247500D03*
X0196264Y0252500D03*
X0196264Y0257500D03*
X0216736Y0257500D03*
X0216736Y0252500D03*
X0216736Y0247500D03*
X0216736Y0242500D03*
D23*
X0218000Y0233000D03*
X0208000Y0233000D03*
X0197000Y0233000D03*
X0187000Y0233000D03*
X0160000Y0233000D03*
X0150000Y0233000D03*
X0139000Y0233000D03*
X0129000Y0233000D03*
X0171500Y0214000D03*
X0181500Y0214000D03*
X0228500Y0213500D03*
X0238500Y0213500D03*
X0253500Y0225500D03*
X0263500Y0225500D03*
X0263500Y0235500D03*
X0253500Y0235500D03*
X0292000Y0231500D03*
X0302000Y0231500D03*
X0302000Y0221500D03*
X0292000Y0221500D03*
X0292000Y0211500D03*
X0302000Y0211500D03*
X0302000Y0201500D03*
X0292000Y0201500D03*
X0292000Y0191500D03*
X0302000Y0191500D03*
X0302000Y0181500D03*
X0292000Y0181500D03*
X0217000Y0181000D03*
X0207000Y0181000D03*
X0196000Y0181000D03*
X0186000Y0181000D03*
X0159500Y0181000D03*
X0149500Y0181000D03*
X0138500Y0181000D03*
X0128500Y0181000D03*
X0135000Y0157000D03*
X0145000Y0157000D03*
X0156500Y0157000D03*
X0166500Y0157000D03*
X0292000Y0241500D03*
X0302000Y0241500D03*
X0302000Y0251500D03*
X0292000Y0251500D03*
X0238500Y0266500D03*
X0228500Y0266500D03*
X0234000Y0285500D03*
X0244000Y0285500D03*
X0244000Y0295500D03*
X0234000Y0295500D03*
X0181500Y0266500D03*
X0171500Y0266500D03*
X0717407Y0190093D03*
X0737093Y0190093D03*
X0746407Y0190093D03*
X0766093Y0190093D03*
X0756250Y0170407D03*
X0727250Y0170407D03*
D24*
X0298500Y0181500D03*
X0295500Y0181500D03*
X0295500Y0191500D03*
X0298500Y0191500D03*
X0298500Y0201500D03*
X0295500Y0201500D03*
X0295500Y0211500D03*
X0298500Y0211500D03*
X0298500Y0221500D03*
X0295500Y0221500D03*
X0295500Y0231500D03*
X0298500Y0231500D03*
X0298500Y0241500D03*
X0295500Y0241500D03*
X0295500Y0251500D03*
X0298500Y0251500D03*
X0235000Y0266500D03*
X0232000Y0266500D03*
X0237500Y0285500D03*
X0240500Y0285500D03*
X0240500Y0295500D03*
X0237500Y0295500D03*
X0178000Y0266500D03*
X0175000Y0266500D03*
X0190500Y0233000D03*
X0193500Y0233000D03*
X0156500Y0233000D03*
X0153500Y0233000D03*
X0135500Y0233000D03*
X0132500Y0233000D03*
X0175000Y0214000D03*
X0178000Y0214000D03*
X0232000Y0213500D03*
X0235000Y0213500D03*
X0156000Y0181000D03*
X0153000Y0181000D03*
X0141500Y0157000D03*
X0138500Y0157000D03*
D25*
X0537826Y0328960D02*
X0537826Y0334897D01*
X0547826Y0334897D02*
X0547826Y0328960D01*
X0557826Y0328960D02*
X0557826Y0334897D01*
X0567826Y0334897D02*
X0567826Y0328960D01*
X0577826Y0328960D02*
X0577826Y0334897D01*
X0587826Y0334897D02*
X0587826Y0328960D01*
X0597826Y0328960D02*
X0597826Y0334897D01*
X0607826Y0334897D02*
X0607826Y0328960D01*
X0617826Y0328960D02*
X0617826Y0334897D01*
X0627826Y0334897D02*
X0627826Y0328960D01*
X0637826Y0328960D02*
X0637826Y0334897D01*
X0647826Y0334897D02*
X0647826Y0328960D01*
X0657826Y0328960D02*
X0657826Y0334897D01*
X0667826Y0334897D02*
X0667826Y0328960D01*
X0677826Y0328960D02*
X0677826Y0334897D01*
X0687826Y0334897D02*
X0687826Y0328960D01*
D26*
X0258500Y0235500D03*
X0258500Y0225500D03*
X0213000Y0233000D03*
X0212000Y0181000D03*
X0191000Y0181000D03*
X0161500Y0157000D03*
X0133500Y0181000D03*
D27*
X0665260Y0291331D03*
X0672740Y0291331D03*
X0669000Y0282669D03*
X0673760Y0308669D03*
X0681240Y0308669D03*
X0677500Y0317331D03*
D28*
X0463000Y0298715D02*
X0463000Y0290915D01*
X0379000Y0290915D02*
X0379000Y0298715D01*
D29*
X0349472Y0294815D03*
X0359315Y0284972D03*
X0398685Y0284972D03*
X0408528Y0294815D03*
X0433472Y0294815D03*
X0443315Y0284972D03*
X0482685Y0284972D03*
X0492528Y0294815D03*
X0472843Y0334185D03*
X0453157Y0334185D03*
X0388843Y0334185D03*
X0369157Y0334185D03*
D30*
X0073150Y0215000D02*
X0066850Y0215000D01*
X0066850Y0205000D02*
X0073150Y0205000D01*
X0073150Y0195000D02*
X0066850Y0195000D01*
D31*
X0085898Y0140882D03*
X0111488Y0140882D03*
D32*
X0457520Y0275000D03*
X0472480Y0275000D03*
D33*
X0489250Y0275500D03*
X0444500Y0261750D03*
X0422750Y0270500D03*
X0421000Y0295500D03*
X0290500Y0293500D03*
X0280500Y0293500D03*
X0270500Y0293500D03*
X0260500Y0293500D03*
X0260500Y0303500D03*
X0270500Y0303500D03*
X0280500Y0303500D03*
X0290500Y0303500D03*
X0288500Y0274500D03*
X0393750Y0204500D03*
X0329500Y0166000D03*
X0319500Y0166000D03*
X0309500Y0166000D03*
X0299500Y0166000D03*
X0281750Y0163500D03*
X0272000Y0177250D03*
X0251500Y0179250D03*
X0299500Y0156000D03*
X0309500Y0156000D03*
X0319500Y0156000D03*
X0329500Y0156000D03*
X0340000Y0155500D03*
X0111000Y0198000D03*
X0101000Y0198000D03*
X0101000Y0208000D03*
X0111000Y0208000D03*
X0111000Y0218000D03*
X0101000Y0218000D03*
X0101000Y0228000D03*
X0111000Y0228000D03*
X0111000Y0238000D03*
X0101000Y0238000D03*
X0101000Y0248000D03*
X0111000Y0248000D03*
X0111000Y0258000D03*
X0101000Y0258000D03*
X0101000Y0268000D03*
X0111000Y0268000D03*
X0087000Y0297250D03*
X0076000Y0308500D03*
X0055500Y0299500D03*
X0048750Y0291000D03*
X0024750Y0246250D03*
X0060250Y0236750D03*
X0041500Y0213250D03*
X0665750Y0268500D03*
X0678000Y0276000D03*
X0703250Y0331750D03*
D34*
X0524000Y0293291D03*
X0514000Y0293291D03*
X0514000Y0254709D03*
X0524000Y0254709D03*
D35*
X0079618Y0255740D03*
X0069421Y0255740D03*
X0069421Y0252000D03*
X0069421Y0248260D03*
X0079618Y0248260D03*
X0079618Y0264760D03*
X0069421Y0264760D03*
X0069421Y0268500D03*
X0069421Y0272240D03*
X0079618Y0272240D03*
D36*
X0015000Y0005500D02*
X0005500Y0005500D01*
X0005500Y0015000D01*
X0005500Y0331500D02*
X0005500Y0341000D01*
X0015000Y0341000D01*
X0811500Y0005500D02*
X0821000Y0005500D01*
X0821000Y0015000D01*
D37*
X0792870Y0072587D02*
X0698852Y0072587D01*
X0693244Y0078195D01*
X0698256Y0083207D01*
X0698256Y0100508D01*
X0690776Y0100508D02*
X0688756Y0100508D01*
X0688756Y0109303D01*
X0700567Y0109303D02*
X0700567Y0120366D01*
X0698957Y0120366D01*
X0694102Y0116626D02*
X0690295Y0116626D01*
X0694102Y0116626D02*
X0694102Y0127368D01*
X0696685Y0129951D01*
X0696685Y0142303D01*
X0663198Y0123969D02*
X0661797Y0125370D01*
X0661797Y0165998D01*
X0660394Y0167402D01*
X0516882Y0167402D01*
X0514177Y0170000D02*
X0530600Y0170000D01*
X0530600Y0165000D02*
X0536652Y0165000D01*
X0536652Y0160000D02*
X0530600Y0160000D01*
X0522311Y0163598D02*
X0520909Y0165000D01*
X0506400Y0165000D01*
X0506400Y0160000D02*
X0516106Y0160000D01*
X0517508Y0158598D01*
X0517508Y0148752D01*
X0518909Y0147350D01*
X0657213Y0147350D01*
X0658614Y0145949D01*
X0658614Y0107996D01*
X0673075Y0093535D01*
X0673075Y0085594D01*
X0678504Y0085594D01*
X0683819Y0080280D01*
X0687638Y0072589D02*
X0693244Y0078195D01*
X0687638Y0072589D02*
X0658614Y0072589D01*
X0657213Y0073990D01*
X0657213Y0099642D01*
X0655811Y0101043D01*
X0646748Y0101043D01*
X0639268Y0101043D02*
X0637575Y0101043D01*
X0637575Y0109303D01*
X0649386Y0109303D02*
X0649386Y0120500D01*
X0648331Y0120500D01*
X0639669Y0116760D02*
X0634862Y0116760D01*
X0635535Y0124240D02*
X0639669Y0124240D01*
X0635535Y0124240D02*
X0635343Y0124433D01*
X0631732Y0124433D01*
X0624252Y0124433D02*
X0593417Y0124433D01*
X0592016Y0123031D01*
X0592016Y0121173D01*
X0582189Y0121173D01*
X0579512Y0123850D01*
X0555624Y0123850D01*
X0552175Y0127299D01*
X0525299Y0127299D01*
X0523898Y0125898D01*
X0523898Y0116598D01*
X0516315Y0116598D01*
X0505339Y0127575D01*
X0478299Y0127575D01*
X0476898Y0128976D01*
X0476898Y0157545D01*
X0474547Y0159896D01*
X0474547Y0165962D01*
X0469547Y0165962D02*
X0469547Y0171014D01*
X0481949Y0171014D01*
X0481949Y0130386D01*
X0483350Y0128984D01*
X0569579Y0128984D01*
X0577059Y0128984D02*
X0586807Y0128984D01*
X0588209Y0127583D01*
X0588209Y0124193D01*
X0596870Y0120453D02*
X0598205Y0120453D01*
X0598205Y0109303D01*
X0595787Y0100925D02*
X0615075Y0100925D01*
X0616476Y0099524D01*
X0616476Y0081449D01*
X0609293Y0081449D01*
X0605573Y0085169D01*
X0596252Y0085169D01*
X0594850Y0083768D01*
X0594850Y0073990D01*
X0596252Y0072589D01*
X0655811Y0072589D01*
X0657213Y0073990D01*
X0652323Y0080280D02*
X0647433Y0075390D01*
X0606031Y0075390D01*
X0601142Y0080280D01*
X0613260Y0085256D02*
X0613260Y0088500D01*
X0562200Y0088500D01*
X0561913Y0088472D01*
X0560512Y0089874D01*
X0530354Y0089874D01*
X0513209Y0089874D01*
X0513209Y0086067D01*
X0482266Y0086067D01*
X0479518Y0088815D01*
X0460047Y0088815D01*
X0460047Y0085008D01*
X0456270Y0085008D01*
X0452321Y0088957D01*
X0407421Y0088957D01*
X0407421Y0085150D01*
X0403335Y0085150D01*
X0399280Y0089205D01*
X0356996Y0089205D01*
X0356996Y0085398D01*
X0338366Y0085398D01*
X0335965Y0081681D02*
X0335965Y0117248D01*
X0332091Y0117248D01*
X0323150Y0117315D02*
X0323150Y0098825D01*
X0330441Y0091533D01*
X0330441Y0075390D01*
X0329039Y0073988D01*
X0229480Y0073988D01*
X0228079Y0075390D01*
X0228079Y0089953D01*
X0226677Y0091354D01*
X0220683Y0091354D01*
X0220683Y0096354D02*
X0226734Y0096354D01*
X0237110Y0098756D02*
X0215431Y0098756D01*
X0213030Y0096354D01*
X0196483Y0096354D01*
X0196483Y0091354D02*
X0182083Y0091354D01*
X0180429Y0093008D01*
X0169339Y0093008D01*
X0169339Y0089201D01*
X0159331Y0089201D01*
X0159331Y0092862D01*
X0159331Y0093268D01*
X0159331Y0097079D01*
X0159331Y0093268D02*
X0111315Y0093268D01*
X0058783Y0093268D01*
X0057382Y0091866D01*
X0057382Y0087374D01*
X0054165Y0087374D01*
X0028161Y0087374D01*
X0017531Y0098004D01*
X0013724Y0098004D01*
X0023402Y0104220D02*
X0025343Y0104220D01*
X0025343Y0100217D01*
X0023402Y0104220D02*
X0023402Y0109303D01*
X0026456Y0113307D02*
X0025106Y0114657D01*
X0025106Y0117646D01*
X0027512Y0120984D02*
X0016654Y0120984D01*
X0016654Y0117374D01*
X0026456Y0113307D02*
X0027421Y0113307D01*
X0035213Y0109303D02*
X0035213Y0121386D01*
X0033768Y0121386D01*
X0028913Y0122386D02*
X0027512Y0120984D01*
X0028913Y0122386D02*
X0028913Y0127799D01*
X0030315Y0129201D01*
X0086575Y0129201D01*
X0090378Y0129362D02*
X0090378Y0125461D01*
X0088976Y0124059D01*
X0088976Y0117701D01*
X0084122Y0117701D01*
X0076461Y0117752D02*
X0076461Y0113307D01*
X0091378Y0113307D01*
X0093778Y0110705D02*
X0092376Y0109303D01*
X0086394Y0109303D01*
X0084283Y0104614D02*
X0135339Y0104614D01*
X0135339Y0100610D01*
X0157791Y0100610D01*
X0157902Y0100720D01*
X0155100Y0103522D01*
X0155100Y0141400D01*
X0166500Y0152800D01*
X0166500Y0157000D01*
X0166600Y0157000D01*
X0166500Y0157000D02*
X0166500Y0168541D01*
X0165096Y0169945D01*
X0119256Y0169945D01*
X0117854Y0171346D01*
X0117854Y0226598D01*
X0116453Y0228000D01*
X0111000Y0228000D01*
X0106949Y0222051D02*
X0101000Y0228000D01*
X0098110Y0232051D02*
X0117974Y0232051D01*
X0117974Y0256098D01*
X0119376Y0257500D01*
X0138764Y0257500D01*
X0137760Y0260732D02*
X0137760Y0267000D01*
X0141370Y0271004D02*
X0141370Y0262508D01*
X0144146Y0259732D01*
X0144146Y0252500D01*
X0138764Y0252500D01*
X0126382Y0252500D01*
X0124980Y0251098D01*
X0124980Y0210600D01*
X0130980Y0204600D01*
X0131980Y0202199D02*
X0133382Y0203600D01*
X0133382Y0206000D01*
X0138764Y0206000D01*
X0133382Y0206000D02*
X0133382Y0222988D01*
X0134783Y0224390D01*
X0172228Y0224390D01*
X0174362Y0222256D01*
X0179646Y0222256D01*
X0185520Y0216382D01*
X0185520Y0207402D01*
X0186921Y0206000D01*
X0196264Y0206000D01*
X0199772Y0208232D02*
X0198370Y0209634D01*
X0198370Y0223992D01*
X0196969Y0225394D01*
X0177240Y0225394D01*
X0177240Y0234496D01*
X0177240Y0239500D01*
X0177240Y0247500D01*
X0196264Y0247500D01*
X0197000Y0247500D02*
X0202000Y0247500D01*
X0204400Y0246500D02*
X0204400Y0266500D01*
X0210260Y0266500D01*
X0210500Y0266500D01*
X0215000Y0271000D01*
X0220500Y0271000D01*
X0225000Y0266500D01*
X0228500Y0266500D01*
X0238500Y0266500D02*
X0238500Y0260406D01*
X0237098Y0259004D01*
X0227260Y0259004D01*
X0227260Y0255000D01*
X0227260Y0252500D01*
X0216736Y0252500D01*
X0216736Y0247500D02*
X0209252Y0247500D01*
X0207850Y0246098D01*
X0207850Y0238421D01*
X0206449Y0237020D01*
X0187000Y0237020D01*
X0187000Y0233000D01*
X0177240Y0239500D02*
X0205047Y0239500D01*
X0206449Y0240902D01*
X0206449Y0256098D01*
X0207850Y0257500D01*
X0216736Y0257500D01*
X0216736Y0265496D01*
X0217740Y0266500D01*
X0204400Y0266500D02*
X0201240Y0266500D01*
X0193760Y0266500D02*
X0193760Y0260732D01*
X0196264Y0257500D02*
X0189882Y0257500D01*
X0187480Y0259902D01*
X0173630Y0259902D01*
X0173630Y0225791D01*
X0172228Y0224390D01*
X0166020Y0230382D02*
X0164618Y0228980D01*
X0143020Y0228980D01*
X0139000Y0233000D01*
X0129000Y0233000D02*
X0129000Y0241098D01*
X0130402Y0242500D01*
X0138764Y0242500D01*
X0146000Y0242500D01*
X0150000Y0246500D01*
X0150000Y0261594D01*
X0148598Y0262996D01*
X0154260Y0262996D01*
X0154260Y0267000D01*
X0154260Y0271004D01*
X0166996Y0271004D01*
X0171500Y0266500D01*
X0166350Y0267000D02*
X0161740Y0267000D01*
X0159236Y0264496D01*
X0159236Y0257500D01*
X0164752Y0255500D02*
X0164752Y0252500D01*
X0159236Y0252500D01*
X0159236Y0247500D02*
X0161800Y0247500D01*
X0165800Y0243500D01*
X0166020Y0243331D01*
X0166200Y0243500D01*
X0169600Y0246900D01*
X0169600Y0247500D01*
X0169760Y0247500D01*
X0177240Y0247500D02*
X0177240Y0255500D01*
X0169760Y0255500D02*
X0169760Y0259902D01*
X0171161Y0261303D01*
X0181500Y0261303D01*
X0181500Y0266500D01*
X0166350Y0267000D02*
X0166151Y0266800D01*
X0164752Y0255500D02*
X0169760Y0255500D01*
X0189882Y0252500D02*
X0196264Y0252500D01*
X0202800Y0244900D02*
X0204400Y0246500D01*
X0202800Y0244900D02*
X0202800Y0242700D01*
X0202646Y0242500D01*
X0196264Y0242500D01*
X0216736Y0242500D02*
X0222118Y0242500D01*
X0222118Y0237118D01*
X0218000Y0233000D01*
X0227260Y0233000D02*
X0227260Y0239500D01*
X0234740Y0239500D02*
X0234740Y0247500D01*
X0234740Y0255000D01*
X0235000Y0255000D02*
X0239000Y0255000D01*
X0227260Y0247500D02*
X0216736Y0247500D01*
X0234740Y0239500D02*
X0234740Y0237000D01*
X0235000Y0236740D01*
X0235000Y0234000D01*
X0234740Y0237000D02*
X0234740Y0225394D01*
X0233339Y0223992D01*
X0198370Y0223992D01*
X0211260Y0218504D02*
X0212661Y0219906D01*
X0222094Y0219906D01*
X0228500Y0213500D01*
X0218850Y0214500D02*
X0218740Y0214500D01*
X0218850Y0214500D02*
X0218850Y0206000D01*
X0216736Y0206000D01*
X0208848Y0206000D01*
X0206500Y0210500D02*
X0206447Y0210500D01*
X0206447Y0192402D01*
X0205045Y0191000D01*
X0196264Y0191000D01*
X0196264Y0196000D02*
X0202646Y0196000D01*
X0202646Y0206831D01*
X0201244Y0208232D01*
X0199772Y0208232D01*
X0202500Y0214500D02*
X0206500Y0210500D01*
X0206447Y0210500D02*
X0206447Y0213100D01*
X0211260Y0213100D01*
X0211260Y0214500D01*
X0211260Y0218504D01*
X0202500Y0214500D02*
X0202240Y0214500D01*
X0194760Y0214500D02*
X0190150Y0214500D01*
X0181500Y0214000D02*
X0181500Y0209406D01*
X0180098Y0208004D01*
X0169260Y0208004D01*
X0169260Y0204000D01*
X0164618Y0204000D01*
X0164618Y0201000D01*
X0159236Y0201000D01*
X0159236Y0196000D02*
X0153500Y0196000D01*
X0138500Y0181000D01*
X0128500Y0181000D02*
X0128500Y0189598D01*
X0129902Y0191000D01*
X0138764Y0191000D01*
X0142500Y0191000D01*
X0148000Y0196500D01*
X0148000Y0202000D01*
X0145740Y0204260D01*
X0145740Y0209496D01*
X0145740Y0214500D01*
X0154260Y0214500D01*
X0161740Y0214500D02*
X0165350Y0214500D01*
X0165350Y0206000D01*
X0159236Y0206000D01*
X0158736Y0205500D01*
X0155500Y0205500D01*
X0151500Y0201500D01*
X0151500Y0198500D01*
X0145146Y0201000D02*
X0138764Y0201000D01*
X0138764Y0196000D02*
X0132382Y0196000D01*
X0131980Y0202199D02*
X0120778Y0202199D01*
X0119376Y0203600D01*
X0119376Y0230650D01*
X0117974Y0232051D01*
X0115051Y0222051D02*
X0106949Y0222051D01*
X0111000Y0218000D02*
X0106949Y0213949D01*
X0106949Y0193120D01*
X0111602Y0188467D01*
X0111602Y0164087D01*
X0107598Y0164087D01*
X0099152Y0155640D01*
X0098752Y0155640D01*
X0098500Y0155388D01*
X0098500Y0153000D01*
X0102866Y0148634D01*
X0107598Y0148634D01*
X0111488Y0151602D02*
X0115051Y0155165D01*
X0115051Y0203949D01*
X0111000Y0208000D01*
X0101000Y0208000D02*
X0093752Y0208000D01*
X0093752Y0204453D01*
X0093752Y0179840D01*
X0098752Y0179840D02*
X0098752Y0173789D01*
X0093504Y0173789D01*
X0091102Y0169098D02*
X0092504Y0167697D01*
X0107598Y0167697D01*
X0107598Y0171567D01*
X0098752Y0179840D02*
X0098752Y0184892D01*
X0100154Y0186293D01*
X0107453Y0186293D01*
X0091102Y0184892D02*
X0091102Y0169098D01*
X0088752Y0167768D02*
X0088752Y0179840D01*
X0083752Y0179840D02*
X0083752Y0169896D01*
X0081154Y0169093D02*
X0086154Y0164093D01*
X0086154Y0150035D01*
X0084752Y0148634D01*
X0081858Y0148634D01*
X0086154Y0150035D02*
X0087555Y0148634D01*
X0092350Y0148634D01*
X0093752Y0150035D01*
X0093752Y0155640D01*
X0088752Y0155640D02*
X0088752Y0161691D01*
X0083752Y0161691D02*
X0083752Y0155640D01*
X0078752Y0155640D02*
X0078752Y0164093D01*
X0078752Y0167494D02*
X0078752Y0179840D01*
X0073752Y0179840D02*
X0073752Y0172888D01*
X0068752Y0167098D02*
X0068752Y0155640D01*
X0073752Y0155640D02*
X0073752Y0148634D01*
X0076654Y0148634D01*
X0065154Y0146232D02*
X0063752Y0147634D01*
X0063752Y0155640D01*
X0065154Y0146232D02*
X0093650Y0146232D01*
X0098600Y0148700D02*
X0098600Y0143700D01*
X0093500Y0134000D02*
X0086400Y0141100D01*
X0086200Y0140900D01*
X0085898Y0140882D01*
X0085898Y0133843D01*
X0090378Y0129362D01*
X0090378Y0125461D02*
X0096591Y0125461D01*
X0097992Y0124059D01*
X0097992Y0120705D01*
X0127642Y0120705D01*
X0127642Y0117228D01*
X0128433Y0113307D02*
X0118567Y0113307D01*
X0118567Y0117094D01*
X0128433Y0113307D02*
X0129783Y0111957D01*
X0129783Y0111354D01*
X0132189Y0108453D02*
X0132189Y0126783D01*
X0130787Y0128185D01*
X0097504Y0128185D01*
X0096102Y0129587D01*
X0096102Y0160417D01*
X0088752Y0167768D01*
X0081154Y0169093D02*
X0081154Y0184892D01*
X0063752Y0184892D01*
X0063752Y0179840D01*
X0063752Y0172098D01*
X0068752Y0167098D01*
X0063752Y0184892D02*
X0062350Y0186293D01*
X0062350Y0205000D01*
X0070000Y0205000D01*
X0064051Y0210799D02*
X0079890Y0210799D01*
X0079894Y0210803D01*
X0093906Y0210803D01*
X0095307Y0212205D01*
X0095307Y0250650D01*
X0096709Y0252051D01*
X0115051Y0252051D01*
X0116453Y0253453D01*
X0116453Y0259331D01*
X0117854Y0260732D01*
X0130683Y0260732D01*
X0124004Y0271004D02*
X0115051Y0262051D01*
X0105051Y0262051D01*
X0101000Y0258000D01*
X0095307Y0258000D01*
X0093906Y0256598D01*
X0093906Y0216402D01*
X0092504Y0215000D01*
X0070000Y0215000D01*
X0064051Y0210799D02*
X0062650Y0212201D01*
X0062650Y0219461D01*
X0062500Y0219500D01*
X0038500Y0219500D01*
X0030500Y0227500D01*
X0030500Y0257500D01*
X0031500Y0258500D01*
X0071500Y0258500D01*
X0074000Y0256000D01*
X0079500Y0256000D01*
X0079618Y0255740D01*
X0080000Y0256000D01*
X0088240Y0256000D01*
X0088500Y0255740D01*
X0088500Y0256000D01*
X0088500Y0255740D02*
X0088500Y0254340D01*
X0085000Y0252000D02*
X0076000Y0252000D01*
X0072500Y0248500D01*
X0070500Y0248500D01*
X0071000Y0249000D01*
X0070500Y0248500D02*
X0069500Y0247500D01*
X0069500Y0248000D01*
X0069421Y0248260D01*
X0061701Y0248260D01*
X0059441Y0246000D01*
X0058000Y0246000D01*
X0058000Y0246400D01*
X0058000Y0246500D01*
X0057500Y0246500D01*
X0057000Y0246000D01*
X0053000Y0246400D02*
X0053000Y0248500D01*
X0045500Y0256000D01*
X0035000Y0254760D02*
X0035000Y0248260D01*
X0043000Y0246400D02*
X0043000Y0244195D01*
X0043169Y0244026D01*
X0043169Y0237740D01*
X0043169Y0233500D01*
X0044843Y0230260D02*
X0035000Y0230260D01*
X0044843Y0230260D02*
X0045622Y0229480D01*
X0051800Y0229500D02*
X0051800Y0225700D01*
X0051800Y0229500D02*
X0051831Y0229760D01*
X0052000Y0230000D01*
X0060250Y0236750D02*
X0060200Y0236900D01*
X0055600Y0241500D01*
X0055350Y0241661D01*
X0055350Y0250598D01*
X0056752Y0252000D01*
X0069421Y0252000D01*
X0069421Y0255740D02*
X0064250Y0255740D01*
X0072823Y0261150D02*
X0072823Y0261358D01*
X0069421Y0264760D01*
X0066421Y0264760D01*
X0066421Y0272240D01*
X0069421Y0272240D01*
X0070137Y0272240D01*
X0070137Y0279260D01*
X0066331Y0279260D01*
X0074760Y0283000D02*
X0057669Y0283000D01*
X0057600Y0283300D01*
X0055600Y0285300D01*
X0055600Y0299500D01*
X0055500Y0299500D01*
X0053800Y0303700D02*
X0064600Y0303700D01*
X0077000Y0291300D01*
X0077230Y0291161D01*
X0078631Y0289760D01*
X0078631Y0272240D01*
X0079618Y0272240D01*
X0088500Y0272240D01*
X0088500Y0278252D01*
X0084421Y0276850D02*
X0083590Y0276850D01*
X0082240Y0278200D01*
X0082240Y0283000D01*
X0082240Y0297250D01*
X0087000Y0297250D01*
X0082240Y0297250D02*
X0082240Y0333821D01*
X0083642Y0335222D01*
X0132102Y0335222D01*
X0133504Y0333821D01*
X0133504Y0316661D01*
X0134906Y0315260D01*
X0139000Y0315260D01*
X0129500Y0315260D02*
X0129500Y0291612D01*
X0125380Y0287809D02*
X0123978Y0286407D01*
X0097307Y0286407D01*
X0095906Y0285006D01*
X0095906Y0263453D01*
X0097307Y0262051D01*
X0093906Y0262051D01*
X0092504Y0260650D01*
X0092504Y0240902D01*
X0091102Y0239500D01*
X0078740Y0239500D01*
X0071260Y0239500D02*
X0071260Y0243504D01*
X0072661Y0244906D01*
X0079618Y0244906D01*
X0079618Y0248260D01*
X0085000Y0252000D02*
X0088500Y0248500D01*
X0088500Y0248260D02*
X0088500Y0243650D01*
X0096709Y0243709D02*
X0101000Y0248000D01*
X0096709Y0243709D02*
X0096709Y0233453D01*
X0098110Y0232051D01*
X0096709Y0230650D01*
X0096709Y0210803D01*
X0095307Y0209402D01*
X0091350Y0209402D01*
X0089949Y0208000D01*
X0089949Y0196402D01*
X0088547Y0195000D01*
X0070000Y0195000D01*
X0081154Y0184892D02*
X0091102Y0184892D01*
X0152854Y0191000D02*
X0159236Y0191000D01*
X0160902Y0188000D02*
X0169260Y0188000D01*
X0176740Y0188000D02*
X0176740Y0196000D01*
X0181350Y0196000D01*
X0176740Y0196000D02*
X0176740Y0204000D01*
X0176500Y0204500D02*
X0181500Y0204500D01*
X0176500Y0204500D02*
X0174500Y0202500D01*
X0185453Y0201000D02*
X0196264Y0201000D01*
X0207848Y0194598D02*
X0207848Y0186020D01*
X0210354Y0191000D02*
X0216736Y0191000D01*
X0218402Y0188000D02*
X0226760Y0188000D01*
X0234240Y0188000D02*
X0234240Y0196000D01*
X0234240Y0204000D01*
X0237098Y0208004D02*
X0226760Y0208004D01*
X0226760Y0204000D01*
X0222118Y0204000D01*
X0222118Y0201000D01*
X0216736Y0201000D01*
X0216736Y0196000D02*
X0209250Y0196000D01*
X0207848Y0194598D01*
X0216736Y0196000D02*
X0226760Y0196000D01*
X0234240Y0188000D02*
X0234240Y0178382D01*
X0234229Y0178371D01*
X0234000Y0178600D01*
X0234000Y0178500D01*
X0234229Y0178371D02*
X0232839Y0176980D01*
X0181520Y0176980D01*
X0180500Y0178000D01*
X0177240Y0178000D01*
X0176740Y0178500D01*
X0176740Y0188000D01*
X0169260Y0196000D02*
X0159236Y0196000D01*
X0160902Y0188000D02*
X0159500Y0186598D01*
X0159500Y0181000D01*
X0176740Y0178500D02*
X0176740Y0173587D01*
X0175100Y0171947D01*
X0175100Y0141400D01*
X0175100Y0134900D01*
X0175349Y0134650D01*
X0175349Y0117252D01*
X0171543Y0117252D01*
X0175349Y0117252D02*
X0179183Y0117252D01*
X0180585Y0115850D01*
X0180585Y0105356D01*
X0181986Y0103955D01*
X0190431Y0103955D01*
X0201533Y0103955D01*
X0201533Y0106354D01*
X0196483Y0106354D01*
X0196483Y0101354D02*
X0213333Y0101354D01*
X0210931Y0106904D02*
X0217927Y0106904D01*
X0218476Y0106354D01*
X0220683Y0106354D01*
X0220800Y0101500D02*
X0220683Y0101354D01*
X0220800Y0101500D02*
X0227800Y0101500D01*
X0234600Y0108300D01*
X0234600Y0110500D01*
X0238800Y0114700D01*
X0238800Y0124300D01*
X0238803Y0124445D01*
X0233500Y0123500D02*
X0230646Y0126354D01*
X0220683Y0126354D01*
X0204337Y0126354D01*
X0202935Y0124953D01*
X0202935Y0107756D01*
X0201533Y0106354D01*
X0201533Y0111354D02*
X0196483Y0111354D01*
X0196483Y0116354D02*
X0190325Y0116354D01*
X0188923Y0117756D01*
X0188923Y0167896D01*
X0185100Y0168142D02*
X0185100Y0141400D01*
X0198758Y0137760D02*
X0198758Y0146232D01*
X0209000Y0145222D02*
X0209000Y0151260D01*
X0216500Y0151260D02*
X0216500Y0146622D01*
X0215100Y0145222D01*
X0215100Y0141400D01*
X0231500Y0145222D02*
X0231500Y0151260D01*
X0224000Y0151260D02*
X0224000Y0146222D01*
X0239000Y0145222D02*
X0239000Y0151260D01*
X0247000Y0151260D02*
X0253698Y0151260D01*
X0255100Y0149858D01*
X0255100Y0141400D01*
X0251870Y0134957D02*
X0395098Y0134957D01*
X0396500Y0133555D01*
X0396500Y0095421D01*
X0397902Y0094020D01*
X0436929Y0094020D01*
X0438331Y0095421D01*
X0438331Y0104894D01*
X0473268Y0104894D01*
X0474669Y0106295D01*
X0474669Y0127427D01*
X0474547Y0127549D01*
X0474547Y0141762D01*
X0469547Y0141762D02*
X0469547Y0147813D01*
X0461949Y0149014D02*
X0459547Y0151415D01*
X0459547Y0165962D01*
X0462000Y0170300D02*
X0460000Y0172300D01*
X0455800Y0172300D01*
X0455744Y0172364D01*
X0459000Y0175500D02*
X0462000Y0172500D01*
X0465500Y0172500D01*
X0462000Y0170300D02*
X0462000Y0157300D01*
X0461898Y0157018D01*
X0464547Y0154368D01*
X0464547Y0141762D01*
X0459547Y0141762D02*
X0459547Y0147813D01*
X0461949Y0149014D02*
X0461949Y0124886D01*
X0463350Y0123484D01*
X0471059Y0123484D01*
X0478539Y0123484D02*
X0478539Y0124555D01*
X0486024Y0124555D01*
X0494685Y0120815D02*
X0495843Y0120815D01*
X0495843Y0109303D01*
X0484031Y0109303D02*
X0484031Y0101205D01*
X0486146Y0101205D01*
X0493626Y0101205D02*
X0493626Y0096886D01*
X0495362Y0095150D01*
X0544516Y0095150D01*
X0544516Y0101110D01*
X0537035Y0101110D02*
X0535213Y0101110D01*
X0535213Y0109303D01*
X0536850Y0116799D02*
X0541657Y0116799D01*
X0541657Y0124559D01*
X0536850Y0124280D02*
X0536850Y0120602D01*
X0527768Y0120602D01*
X0520287Y0120602D02*
X0520287Y0125606D01*
X0516106Y0131386D02*
X0526953Y0131386D01*
X0530354Y0131386D02*
X0548862Y0131386D01*
X0550266Y0133787D02*
X0542659Y0141394D01*
X0517508Y0141394D01*
X0516106Y0142795D01*
X0516106Y0153598D01*
X0514705Y0155000D01*
X0506400Y0155000D01*
X0506400Y0150000D02*
X0501689Y0150000D01*
X0500339Y0151350D01*
X0500339Y0152402D01*
X0492531Y0150307D02*
X0485949Y0150307D01*
X0484547Y0148906D01*
X0484547Y0141762D01*
X0479547Y0141762D02*
X0479547Y0153209D01*
X0479547Y0159413D02*
X0479547Y0165962D01*
X0484547Y0165962D02*
X0484547Y0172014D01*
X0472449Y0177447D02*
X0479785Y0184783D01*
X0513313Y0184783D01*
X0520746Y0177350D01*
X0745096Y0177350D01*
X0746498Y0175949D01*
X0746498Y0129657D01*
X0747900Y0128256D01*
X0783917Y0128256D01*
X0791398Y0128256D02*
X0795008Y0128256D01*
X0795008Y0126079D01*
X0798878Y0126079D01*
X0802685Y0131831D02*
X0802685Y0118598D01*
X0798878Y0118598D01*
X0807539Y0122339D02*
X0807539Y0110705D01*
X0806138Y0109303D01*
X0802929Y0109303D01*
X0794272Y0109303D02*
X0791118Y0109303D01*
X0794272Y0109303D02*
X0794272Y0101543D01*
X0794272Y0096165D02*
X0787528Y0096165D01*
X0787528Y0132260D01*
X0749693Y0132260D01*
X0748291Y0133661D01*
X0748291Y0184404D01*
X0747500Y0185154D01*
X0747500Y0190093D01*
X0746407Y0190093D01*
X0747500Y0185154D02*
X0719000Y0185154D01*
X0719000Y0190093D01*
X0717407Y0190093D01*
X0719000Y0185154D02*
X0686272Y0185154D01*
X0684870Y0186555D01*
X0684870Y0300000D01*
X0681240Y0300000D01*
X0681240Y0308669D01*
X0681240Y0313498D01*
X0655760Y0313498D01*
X0653358Y0312498D02*
X0651957Y0311096D01*
X0642545Y0311096D01*
X0641144Y0312498D01*
X0579226Y0312498D01*
X0577826Y0313898D01*
X0577826Y0331928D01*
X0573800Y0329100D02*
X0573800Y0336700D01*
X0576200Y0339100D01*
X0630800Y0339100D01*
X0637800Y0332100D01*
X0637826Y0331928D01*
X0647800Y0331900D02*
X0647826Y0331928D01*
X0647800Y0331900D02*
X0635000Y0319100D01*
X0583600Y0319100D01*
X0580400Y0316600D02*
X0650800Y0316600D01*
X0653358Y0319736D02*
X0654760Y0321138D01*
X0686423Y0321138D01*
X0687826Y0322541D01*
X0687826Y0331928D01*
X0693246Y0331900D02*
X0703200Y0331900D01*
X0703250Y0331750D01*
X0693246Y0331900D02*
X0693246Y0337514D01*
X0691844Y0338915D01*
X0683246Y0338915D01*
X0681844Y0337514D01*
X0681844Y0331928D01*
X0677826Y0331928D01*
X0693246Y0331900D02*
X0693246Y0318732D01*
X0691844Y0317331D01*
X0677500Y0317331D01*
X0658600Y0310600D02*
X0658600Y0217000D01*
X0683400Y0192200D01*
X0683400Y0186000D01*
X0689600Y0179800D01*
X0718200Y0179800D01*
X0717297Y0174752D02*
X0718699Y0173350D01*
X0718699Y0117437D01*
X0720100Y0116035D01*
X0733516Y0116035D01*
X0728512Y0119646D02*
X0741642Y0119646D01*
X0741642Y0116421D01*
X0750303Y0120161D02*
X0751748Y0120161D01*
X0751748Y0109303D01*
X0739937Y0109303D02*
X0739937Y0101425D01*
X0741917Y0101425D01*
X0749398Y0101425D02*
X0749398Y0095465D01*
X0750799Y0094063D01*
X0794272Y0094063D01*
X0794272Y0096165D01*
X0794272Y0094063D02*
X0794272Y0073988D01*
X0792870Y0072587D01*
X0786181Y0080280D02*
X0781110Y0085350D01*
X0774260Y0085350D01*
X0774260Y0089157D01*
X0772858Y0090559D01*
X0718201Y0090559D01*
X0716799Y0091961D01*
X0716799Y0170949D01*
X0715398Y0172350D01*
X0513801Y0172350D01*
X0511451Y0170000D01*
X0506400Y0170000D01*
X0511528Y0167350D02*
X0514177Y0170000D01*
X0511528Y0167350D02*
X0497937Y0167350D01*
X0496535Y0165949D01*
X0496535Y0139992D01*
X0498937Y0137504D02*
X0493933Y0137504D01*
X0492531Y0138906D01*
X0492531Y0150307D01*
X0492531Y0157787D02*
X0486724Y0157787D01*
X0485949Y0157012D01*
X0466898Y0157319D02*
X0464547Y0159669D01*
X0464547Y0165962D01*
X0466898Y0157319D02*
X0466898Y0131697D01*
X0469547Y0134102D02*
X0469547Y0141762D01*
X0454547Y0141762D02*
X0454547Y0132114D01*
X0439193Y0128390D02*
X0439193Y0124465D01*
X0430087Y0124465D01*
X0430087Y0120854D01*
X0439193Y0120909D02*
X0443571Y0120909D01*
X0444000Y0120480D01*
X0447854Y0124650D02*
X0447854Y0109303D01*
X0444661Y0109303D01*
X0434720Y0104894D02*
X0434720Y0100890D01*
X0434720Y0104894D02*
X0432850Y0104894D01*
X0432850Y0109303D01*
X0442201Y0100890D02*
X0442201Y0096886D01*
X0493626Y0096886D01*
X0467921Y0085008D02*
X0467921Y0080280D01*
X0479094Y0080280D01*
X0498780Y0080280D02*
X0503669Y0075390D01*
X0545071Y0075390D01*
X0549961Y0080280D01*
X0552575Y0085169D02*
X0539053Y0085169D01*
X0530276Y0080280D02*
X0522484Y0080280D01*
X0521083Y0081681D01*
X0521083Y0086067D01*
X0544516Y0095150D02*
X0594386Y0095150D01*
X0595787Y0096551D01*
X0595787Y0100925D01*
X0588307Y0100925D02*
X0586394Y0100925D01*
X0586394Y0109303D01*
X0588209Y0116713D02*
X0583350Y0116713D01*
X0547024Y0120539D02*
X0547024Y0109303D01*
X0547024Y0120539D02*
X0545512Y0120539D01*
X0516106Y0131386D02*
X0514705Y0132787D01*
X0514705Y0137390D01*
X0514705Y0143598D01*
X0513303Y0145000D01*
X0506400Y0145000D01*
X0500339Y0145000D01*
X0500339Y0138906D01*
X0498937Y0137504D01*
X0518508Y0143795D02*
X0519713Y0145000D01*
X0530600Y0145000D01*
X0530600Y0150000D02*
X0519909Y0150000D01*
X0522311Y0153752D02*
X0522311Y0163598D01*
X0522311Y0153752D02*
X0523713Y0152350D01*
X0607360Y0152350D01*
X0626461Y0133787D02*
X0550266Y0133787D01*
X0542059Y0137390D02*
X0522185Y0137390D01*
X0530600Y0155000D02*
X0539053Y0155000D01*
X0536652Y0174752D02*
X0717297Y0174752D01*
X0756250Y0170407D02*
X0756250Y0241750D01*
X0706500Y0291500D01*
X0688740Y0291500D01*
X0681260Y0291500D02*
X0678000Y0291500D01*
X0678000Y0276000D01*
X0668800Y0282500D02*
X0665800Y0279500D01*
X0665800Y0268500D01*
X0665750Y0268500D01*
X0668800Y0282500D02*
X0669000Y0282669D01*
X0669000Y0295300D01*
X0669200Y0295300D01*
X0673600Y0299700D01*
X0673760Y0300000D01*
X0673800Y0300100D01*
X0673800Y0308500D01*
X0673760Y0308669D01*
X0662240Y0300000D02*
X0662240Y0291331D01*
X0665260Y0291331D01*
X0672740Y0291331D02*
X0672740Y0291500D01*
X0678000Y0291500D01*
X0654760Y0300000D02*
X0654760Y0310396D01*
X0653358Y0311797D01*
X0653358Y0312498D01*
X0653358Y0319736D01*
X0579226Y0312498D02*
X0576423Y0309695D01*
X0540661Y0309695D01*
X0539260Y0311096D01*
X0539260Y0316500D01*
X0539260Y0317902D01*
X0531104Y0317902D01*
X0531104Y0269904D01*
X0529703Y0268502D01*
X0515402Y0268502D01*
X0514000Y0267100D01*
X0514000Y0254709D01*
X0505809Y0254709D01*
X0504719Y0255799D01*
X0497748Y0255799D01*
X0494799Y0255799D01*
X0487500Y0248500D01*
X0487500Y0246500D01*
X0485000Y0244000D01*
X0485000Y0241000D01*
X0484937Y0239959D02*
X0485000Y0239900D01*
X0485000Y0230100D01*
X0485800Y0229300D01*
X0485843Y0229106D01*
X0491200Y0224100D02*
X0479937Y0224100D01*
X0479937Y0239959D01*
X0474937Y0239959D02*
X0474937Y0246010D01*
X0476339Y0247411D01*
X0482535Y0247411D01*
X0483535Y0245010D02*
X0477287Y0245010D01*
X0477287Y0222986D01*
X0466157Y0229106D02*
X0472287Y0235236D01*
X0472287Y0245236D01*
X0469937Y0247587D01*
X0469937Y0264159D01*
X0464937Y0264159D02*
X0464937Y0258441D01*
X0457287Y0250791D01*
X0457287Y0235398D01*
X0455886Y0233996D01*
X0343047Y0233996D01*
X0338157Y0229106D01*
X0338000Y0229264D01*
X0338000Y0238063D01*
X0341807Y0239260D02*
X0347000Y0239260D01*
X0351004Y0239260D01*
X0351764Y0238500D01*
X0358400Y0238500D01*
X0358400Y0243500D02*
X0352348Y0243500D01*
X0352348Y0246740D01*
X0347000Y0246740D01*
X0341807Y0245937D02*
X0341807Y0239260D01*
X0341807Y0245937D02*
X0338000Y0245937D01*
X0337760Y0245937D01*
X0337760Y0258500D01*
X0330654Y0258500D01*
X0323654Y0251500D01*
X0319437Y0251500D01*
X0314780Y0247480D02*
X0314780Y0284957D01*
X0316181Y0286358D01*
X0333573Y0286358D01*
X0334974Y0284957D01*
X0334974Y0282760D01*
X0333573Y0281358D01*
X0320386Y0281358D01*
X0318984Y0279957D01*
X0318984Y0272760D01*
X0320386Y0271358D01*
X0343551Y0271358D01*
X0346409Y0268500D01*
X0358400Y0268500D01*
X0368575Y0265902D02*
X0337258Y0265902D01*
X0334152Y0269008D01*
X0328521Y0269008D01*
X0328521Y0274008D02*
X0347803Y0274008D01*
X0351102Y0277307D01*
X0407848Y0277307D01*
X0411411Y0280870D01*
X0425583Y0280870D01*
X0426984Y0279469D01*
X0426984Y0253140D01*
X0428386Y0251739D01*
X0453535Y0251739D01*
X0454937Y0250337D01*
X0454937Y0239959D01*
X0459937Y0239959D02*
X0459937Y0246010D01*
X0467339Y0247608D02*
X0469937Y0245010D01*
X0469937Y0239959D01*
X0464937Y0239959D02*
X0464937Y0233996D01*
X0460110Y0233996D01*
X0457268Y0231154D01*
X0447839Y0231154D01*
X0449717Y0225437D02*
X0445000Y0225437D01*
X0414307Y0225437D01*
X0385063Y0225437D01*
X0384307Y0224681D01*
X0387709Y0221280D01*
X0387709Y0204339D01*
X0386307Y0202937D01*
X0382500Y0202937D01*
X0382500Y0195063D02*
X0392675Y0195063D01*
X0394805Y0197193D01*
X0402409Y0197193D01*
X0402409Y0147980D01*
X0408809Y0141689D02*
X0410211Y0143091D01*
X0410211Y0181154D01*
X0411613Y0182555D01*
X0459547Y0182555D01*
X0458000Y0178500D02*
X0419852Y0178500D01*
X0414951Y0173598D01*
X0414951Y0137762D01*
X0413547Y0136358D01*
X0200159Y0136358D01*
X0198758Y0137760D01*
X0196356Y0131602D02*
X0196356Y0171348D01*
X0201159Y0171348D01*
X0333368Y0171348D01*
X0341717Y0163000D01*
X0352260Y0163000D01*
X0355870Y0163000D02*
X0359740Y0163000D01*
X0355870Y0163000D02*
X0355870Y0151445D01*
X0377522Y0151445D01*
X0378923Y0152846D01*
X0378923Y0175223D01*
X0385100Y0181400D01*
X0368998Y0178492D02*
X0368998Y0167502D01*
X0375100Y0161400D01*
X0366752Y0155500D02*
X0359740Y0155500D01*
X0352260Y0155500D02*
X0352260Y0150043D01*
X0383343Y0150043D01*
X0391697Y0141689D01*
X0408809Y0141689D01*
X0430087Y0148980D02*
X0431488Y0150382D01*
X0453146Y0150382D01*
X0454547Y0151783D01*
X0454547Y0165962D01*
X0449547Y0165962D02*
X0449547Y0173547D01*
X0451500Y0175500D01*
X0459000Y0175500D01*
X0461600Y0174900D02*
X0458000Y0178500D01*
X0461600Y0174900D02*
X0506400Y0174900D01*
X0506400Y0175000D01*
X0506400Y0180000D02*
X0498947Y0180000D01*
X0515697Y0187563D02*
X0489886Y0213374D01*
X0484295Y0218965D01*
X0456189Y0218965D01*
X0449717Y0225437D01*
X0445000Y0217563D02*
X0464756Y0217563D01*
X0466157Y0216161D01*
X0466157Y0179894D01*
X0422094Y0197193D02*
X0422094Y0210972D01*
X0384307Y0224681D02*
X0382906Y0223280D01*
X0358065Y0223280D01*
X0356285Y0221500D01*
X0323654Y0221500D01*
X0319437Y0221500D01*
X0319437Y0211500D01*
X0319437Y0201500D01*
X0319437Y0191500D01*
X0319437Y0181500D01*
X0311563Y0181500D02*
X0307346Y0181500D01*
X0311563Y0191500D02*
X0302000Y0191500D01*
X0311563Y0191500D02*
X0314780Y0191500D01*
X0314780Y0223906D01*
X0316181Y0225307D01*
X0326055Y0225307D01*
X0327457Y0226709D01*
X0327457Y0235518D01*
X0326055Y0236919D01*
X0317583Y0236919D01*
X0316181Y0238321D01*
X0316181Y0282606D01*
X0317583Y0284008D01*
X0328521Y0284008D01*
X0328521Y0279008D02*
X0322839Y0279008D01*
X0321386Y0277555D01*
X0311563Y0277606D02*
X0310161Y0279008D01*
X0304321Y0279008D01*
X0304321Y0284008D02*
X0310372Y0284008D01*
X0311774Y0289008D02*
X0304321Y0289008D01*
X0304321Y0294008D02*
X0314175Y0294008D01*
X0314175Y0296409D02*
X0339051Y0296409D01*
X0346392Y0303750D01*
X0411500Y0303750D01*
X0415000Y0300250D01*
X0415000Y0290500D01*
X0416000Y0289500D01*
X0426250Y0289500D01*
X0428386Y0287364D01*
X0428386Y0270612D01*
X0429787Y0269211D01*
X0489937Y0269211D01*
X0489937Y0264159D01*
X0489937Y0259108D01*
X0491937Y0259108D01*
X0493239Y0260409D01*
X0493287Y0260409D01*
X0484937Y0264159D02*
X0484937Y0246411D01*
X0483535Y0245010D01*
X0489937Y0246917D02*
X0489937Y0239959D01*
X0489937Y0233996D01*
X0493287Y0233996D01*
X0491200Y0224100D02*
X0507400Y0240300D01*
X0512400Y0240300D01*
X0532200Y0220500D01*
X0654800Y0220500D01*
X0655098Y0220366D01*
X0656500Y0218965D01*
X0656500Y0191937D01*
X0666602Y0191937D01*
X0667024Y0191516D01*
X0677000Y0191516D01*
X0656500Y0184063D02*
X0595000Y0184063D01*
X0548862Y0184063D01*
X0545362Y0187563D01*
X0533500Y0187563D01*
X0515697Y0187563D01*
X0524549Y0180000D02*
X0530600Y0180000D01*
X0533500Y0191516D02*
X0533500Y0195437D01*
X0533400Y0195700D01*
X0533400Y0211300D01*
X0508400Y0236300D01*
X0508400Y0237900D01*
X0516760Y0243000D02*
X0516760Y0248319D01*
X0497748Y0248319D01*
X0491339Y0248319D01*
X0489937Y0246917D01*
X0479937Y0253913D02*
X0479937Y0264159D01*
X0474937Y0264159D02*
X0474937Y0253911D01*
X0467339Y0252215D02*
X0467339Y0247608D01*
X0454937Y0258108D02*
X0454937Y0264159D01*
X0457520Y0271130D02*
X0522598Y0271130D01*
X0524000Y0272531D01*
X0524000Y0293291D01*
X0514000Y0293291D02*
X0514000Y0276161D01*
X0512598Y0274760D01*
X0499000Y0274760D01*
X0499000Y0275000D01*
X0489400Y0275000D01*
X0489400Y0275500D01*
X0489250Y0275500D01*
X0489400Y0275000D02*
X0472480Y0275000D01*
X0457520Y0275000D02*
X0457520Y0271130D01*
X0457520Y0275000D02*
X0449000Y0275000D01*
X0448500Y0275500D01*
X0448500Y0297250D01*
X0444500Y0301250D01*
X0426750Y0301250D01*
X0421000Y0295500D01*
X0418000Y0284740D02*
X0406555Y0284740D01*
X0406323Y0284972D01*
X0398685Y0284972D01*
X0417206Y0277260D02*
X0417206Y0270500D01*
X0422750Y0270500D01*
X0417206Y0270500D02*
X0417206Y0249902D01*
X0415804Y0248500D01*
X0382600Y0248500D01*
X0382600Y0243500D02*
X0366254Y0243500D01*
X0364852Y0244902D01*
X0364852Y0254449D01*
X0363451Y0255850D01*
X0349850Y0255850D01*
X0345240Y0258500D02*
X0345240Y0252951D01*
X0345240Y0258500D02*
X0358400Y0258500D01*
X0364852Y0258500D01*
X0366254Y0257098D01*
X0366254Y0247252D01*
X0367656Y0245850D01*
X0387652Y0245850D01*
X0389053Y0244449D01*
X0389053Y0239902D01*
X0387652Y0238500D01*
X0382600Y0238500D01*
X0380500Y0227937D02*
X0375467Y0227937D01*
X0380500Y0220063D02*
X0353661Y0220063D01*
X0352260Y0218661D01*
X0352260Y0172748D01*
X0352260Y0170500D01*
X0352260Y0172748D02*
X0272000Y0172748D01*
X0272000Y0177250D01*
X0272000Y0172748D02*
X0243923Y0172748D01*
X0242520Y0174152D01*
X0242520Y0272406D01*
X0241118Y0273807D01*
X0106453Y0273807D01*
X0105051Y0272406D01*
X0105051Y0264854D01*
X0103650Y0263453D01*
X0098709Y0263453D01*
X0097307Y0262051D01*
X0093504Y0264760D02*
X0088500Y0264760D01*
X0088500Y0261150D01*
X0072823Y0261150D01*
X0073421Y0264760D02*
X0079618Y0264760D01*
X0082020Y0268500D02*
X0069421Y0268500D01*
X0061350Y0264760D02*
X0053000Y0264760D01*
X0053000Y0270600D01*
X0053000Y0274100D01*
X0048800Y0278300D01*
X0048800Y0290900D01*
X0048750Y0291000D01*
X0044600Y0294500D02*
X0053800Y0303700D01*
X0044600Y0294500D02*
X0044600Y0277300D01*
X0044402Y0277053D01*
X0043000Y0275652D01*
X0043000Y0270600D01*
X0043000Y0270500D01*
X0039500Y0267000D01*
X0045500Y0261000D01*
X0039500Y0267000D02*
X0037000Y0264500D01*
X0035000Y0262240D01*
X0035000Y0262500D01*
X0037000Y0264500D01*
X0048000Y0270600D02*
X0048000Y0277053D01*
X0044402Y0277053D01*
X0057669Y0273136D02*
X0058000Y0272805D01*
X0058000Y0270600D01*
X0057669Y0273136D02*
X0057669Y0283000D01*
X0093500Y0295000D02*
X0093504Y0295000D01*
X0093504Y0317469D01*
X0094906Y0318870D01*
X0107797Y0318870D01*
X0109200Y0320273D01*
X0109200Y0331400D01*
X0119200Y0331400D02*
X0119500Y0331100D01*
X0119500Y0322740D01*
X0125380Y0322740D02*
X0125380Y0287809D01*
X0131591Y0281482D02*
X0102402Y0281482D01*
X0101000Y0280081D01*
X0101000Y0268000D01*
X0093504Y0264760D02*
X0093504Y0295000D01*
X0099000Y0290211D02*
X0099000Y0315260D01*
X0099000Y0322740D02*
X0099000Y0331200D01*
X0099200Y0331400D01*
X0125380Y0322740D02*
X0129500Y0322740D01*
X0129500Y0331100D01*
X0129200Y0331400D01*
X0139000Y0331200D02*
X0139000Y0322740D01*
X0149000Y0322740D02*
X0149000Y0331200D01*
X0149200Y0331400D01*
X0159000Y0331200D02*
X0159000Y0322740D01*
X0166200Y0319100D02*
X0173000Y0319100D01*
X0181200Y0327300D01*
X0181200Y0333100D01*
X0187200Y0339100D01*
X0357200Y0339100D01*
X0370400Y0325900D01*
X0504200Y0325900D01*
X0510800Y0319300D01*
X0521600Y0319300D01*
X0533800Y0331500D01*
X0533800Y0336700D01*
X0536200Y0339100D01*
X0560800Y0339100D01*
X0567800Y0332100D01*
X0567826Y0331928D01*
X0573800Y0329100D02*
X0567800Y0323100D01*
X0545400Y0323100D01*
X0546740Y0316500D02*
X0542870Y0316500D01*
X0542870Y0331928D01*
X0547826Y0331928D01*
X0537826Y0331928D02*
X0537826Y0316500D01*
X0539260Y0316500D01*
X0533600Y0320500D02*
X0529200Y0320500D01*
X0514600Y0305900D01*
X0470400Y0305900D01*
X0453200Y0323100D01*
X0369200Y0323100D01*
X0357000Y0335300D01*
X0233400Y0335300D01*
X0230800Y0332700D01*
X0230800Y0320900D01*
X0229000Y0319100D01*
X0222200Y0319100D01*
X0221400Y0318300D01*
X0221400Y0314500D01*
X0218400Y0311500D01*
X0192200Y0311500D01*
X0191400Y0312300D01*
X0191400Y0315900D01*
X0188400Y0318900D01*
X0181600Y0318900D01*
X0180800Y0318100D01*
X0180800Y0316900D01*
X0175400Y0311500D01*
X0155600Y0311500D01*
X0152000Y0315100D01*
X0149000Y0315100D01*
X0149000Y0315260D01*
X0159000Y0315260D02*
X0159000Y0315300D01*
X0162400Y0315300D01*
X0166200Y0319100D01*
X0169500Y0322740D02*
X0169500Y0331100D01*
X0169200Y0331400D01*
X0159200Y0331400D02*
X0159000Y0331200D01*
X0139200Y0331400D02*
X0139000Y0331200D01*
X0119500Y0315260D02*
X0119500Y0304262D01*
X0131591Y0281482D02*
X0145608Y0295500D01*
X0234000Y0295500D01*
X0244000Y0295500D02*
X0248020Y0291480D01*
X0248020Y0230980D01*
X0253500Y0225500D01*
X0268819Y0225500D02*
X0274260Y0225500D01*
X0281740Y0225500D02*
X0281740Y0235500D01*
X0281740Y0235519D01*
X0319437Y0235519D01*
X0319437Y0231500D01*
X0323654Y0231500D01*
X0311563Y0231500D02*
X0307346Y0231500D01*
X0292000Y0231500D02*
X0292000Y0221500D01*
X0302000Y0221500D02*
X0311563Y0221500D01*
X0311563Y0211500D02*
X0307346Y0211500D01*
X0292000Y0211500D02*
X0292000Y0201500D01*
X0302000Y0201500D02*
X0311563Y0201500D01*
X0357843Y0179894D02*
X0367596Y0179894D01*
X0368998Y0178492D01*
X0368998Y0178492D01*
X0364350Y0170500D02*
X0359740Y0170500D01*
X0345100Y0160050D02*
X0345100Y0141400D01*
X0325100Y0141400D02*
X0325100Y0158648D01*
X0323697Y0160051D01*
X0315449Y0160051D01*
X0309500Y0166000D01*
X0305100Y0160400D02*
X0299500Y0166000D01*
X0293402Y0165752D02*
X0281800Y0165752D01*
X0281800Y0163500D01*
X0281750Y0163500D01*
X0281800Y0165752D02*
X0232902Y0165752D01*
X0231500Y0164350D01*
X0231500Y0158740D01*
X0224000Y0158740D02*
X0224000Y0163350D01*
X0216500Y0165494D02*
X0216500Y0158740D01*
X0209000Y0158740D02*
X0209000Y0167494D01*
X0210402Y0168896D01*
X0259921Y0168896D01*
X0247000Y0163350D02*
X0247000Y0158740D01*
X0239000Y0158740D02*
X0239000Y0163350D01*
X0217000Y0181000D02*
X0217000Y0186598D01*
X0218402Y0188000D01*
X0237098Y0208004D02*
X0238500Y0209406D01*
X0238500Y0213500D01*
X0263500Y0235500D02*
X0274260Y0235500D01*
X0258921Y0241488D02*
X0250823Y0241488D01*
X0249421Y0242890D01*
X0249421Y0302098D01*
X0250823Y0303500D01*
X0260500Y0303500D01*
X0263150Y0307551D02*
X0186402Y0307551D01*
X0185000Y0308953D01*
X0185000Y0315260D01*
X0174854Y0314453D02*
X0174047Y0315260D01*
X0169500Y0315260D01*
X0185000Y0322740D02*
X0185000Y0331300D01*
X0185100Y0331400D01*
X0195100Y0331400D02*
X0195100Y0326750D01*
X0195500Y0326350D01*
X0195500Y0322740D01*
X0205500Y0322740D02*
X0205500Y0326350D01*
X0205100Y0326750D01*
X0205100Y0331400D01*
X0210800Y0327100D02*
X0210800Y0320900D01*
X0205600Y0315700D01*
X0205600Y0315300D01*
X0205500Y0315260D01*
X0199923Y0315260D02*
X0195500Y0315260D01*
X0199923Y0315260D02*
X0199923Y0336624D01*
X0215000Y0331300D02*
X0215000Y0322740D01*
X0221200Y0321900D02*
X0221200Y0333100D01*
X0224800Y0336700D01*
X0357600Y0336700D01*
X0369800Y0324500D01*
X0503600Y0324500D01*
X0510200Y0317900D01*
X0524600Y0317900D01*
X0530400Y0323700D01*
X0535400Y0323700D01*
X0528600Y0316500D02*
X0516600Y0304500D01*
X0469800Y0304500D01*
X0452600Y0321700D01*
X0346600Y0321700D01*
X0342600Y0317700D01*
X0340000Y0317700D01*
X0339350Y0321500D02*
X0334740Y0321500D01*
X0329204Y0325504D02*
X0318240Y0325504D01*
X0318240Y0321500D01*
X0310760Y0321500D02*
X0301325Y0321500D01*
X0297800Y0321500D02*
X0303800Y0327500D01*
X0327800Y0327500D01*
X0330000Y0329700D01*
X0329204Y0325504D02*
X0335100Y0331400D01*
X0327260Y0321500D02*
X0327260Y0316504D01*
X0287039Y0316504D01*
X0282902Y0312366D01*
X0274551Y0314768D02*
X0274551Y0300354D01*
X0275953Y0298953D01*
X0292024Y0298953D01*
X0297079Y0304008D01*
X0304321Y0304008D01*
X0311372Y0304008D01*
X0312774Y0302606D01*
X0312774Y0297811D01*
X0314175Y0296409D01*
X0317577Y0294008D02*
X0328521Y0294008D01*
X0328521Y0299008D02*
X0333918Y0299008D01*
X0335268Y0300358D01*
X0335268Y0301657D01*
X0315772Y0301657D01*
X0314370Y0303059D01*
X0314370Y0312500D01*
X0310760Y0312500D01*
X0310500Y0312500D02*
X0306000Y0312500D01*
X0318240Y0312500D02*
X0318240Y0307496D01*
X0321728Y0304008D01*
X0328521Y0304008D01*
X0327260Y0307496D02*
X0327260Y0312500D01*
X0334740Y0312500D02*
X0339350Y0312500D01*
X0336669Y0306358D02*
X0360260Y0306358D01*
X0369157Y0315256D01*
X0342199Y0291409D02*
X0298652Y0291409D01*
X0295795Y0288553D01*
X0265953Y0288553D01*
X0264551Y0289955D01*
X0264551Y0306150D01*
X0263150Y0307551D01*
X0270500Y0303500D02*
X0270500Y0316800D01*
X0285100Y0331400D01*
X0280200Y0329900D02*
X0269400Y0319100D01*
X0239800Y0319100D01*
X0235000Y0322740D02*
X0235000Y0331300D01*
X0235100Y0331400D01*
X0245000Y0331300D02*
X0245000Y0322740D01*
X0255000Y0322740D02*
X0255000Y0331300D01*
X0255100Y0331400D01*
X0245100Y0331400D02*
X0245000Y0331300D01*
X0225100Y0331400D02*
X0225100Y0326750D01*
X0225500Y0326350D01*
X0225500Y0322740D01*
X0221200Y0321900D02*
X0215000Y0315700D01*
X0215000Y0315260D01*
X0225500Y0315260D02*
X0225500Y0310301D01*
X0235000Y0309953D02*
X0235000Y0315260D01*
X0245000Y0315260D02*
X0245000Y0309953D01*
X0255000Y0309965D02*
X0255000Y0315260D01*
X0280500Y0322500D02*
X0280500Y0303500D01*
X0260500Y0293500D02*
X0260500Y0288553D01*
X0261902Y0287152D01*
X0292000Y0287152D01*
X0293402Y0285750D01*
X0293402Y0270407D01*
X0294801Y0269008D01*
X0304321Y0269008D01*
X0293402Y0270407D02*
X0292000Y0269006D01*
X0292000Y0251500D01*
X0285606Y0247480D02*
X0314780Y0247480D01*
X0311563Y0251500D02*
X0302000Y0251500D01*
X0311563Y0251500D02*
X0311563Y0277606D01*
X0282852Y0284348D02*
X0281451Y0285750D01*
X0256402Y0285750D01*
X0255000Y0287152D01*
X0255000Y0295876D01*
X0282852Y0284348D02*
X0282852Y0250234D01*
X0285606Y0247480D01*
X0307346Y0241500D02*
X0311563Y0241500D01*
X0319437Y0241500D02*
X0323654Y0241500D01*
X0358400Y0243500D02*
X0358451Y0243500D01*
X0358451Y0248500D01*
X0358400Y0248500D01*
X0369976Y0259902D02*
X0369976Y0264500D01*
X0368575Y0265902D01*
X0367575Y0263500D02*
X0358400Y0263500D01*
X0369976Y0259902D02*
X0371378Y0258500D01*
X0382600Y0258500D01*
X0382600Y0263500D02*
X0377179Y0263500D01*
X0375467Y0261787D01*
X0376549Y0268500D02*
X0382600Y0268500D01*
X0388923Y0272098D02*
X0390325Y0273500D01*
X0394563Y0273500D01*
X0388923Y0272098D02*
X0388923Y0253500D01*
X0382600Y0253500D01*
X0402409Y0260185D02*
X0408098Y0260185D01*
X0409500Y0261587D01*
X0409500Y0265563D01*
X0409500Y0273437D02*
X0414307Y0273437D01*
X0414307Y0257301D01*
X0409500Y0273437D02*
X0409500Y0273500D01*
X0402437Y0273500D01*
X0417206Y0277260D02*
X0418000Y0277260D01*
X0438260Y0275000D02*
X0438260Y0279917D01*
X0443315Y0284972D01*
X0445740Y0275000D02*
X0449000Y0275000D01*
X0490220Y0282240D02*
X0499000Y0282240D01*
X0524000Y0266100D02*
X0524000Y0254709D01*
X0524240Y0254709D01*
X0524240Y0243000D01*
X0574323Y0191516D02*
X0579213Y0196406D01*
X0630614Y0196406D01*
X0635504Y0191516D01*
X0615819Y0191516D02*
X0600622Y0191516D01*
X0600201Y0191937D01*
X0595000Y0191937D01*
X0554638Y0191516D02*
X0533500Y0191516D01*
X0451898Y0147980D02*
X0451898Y0120480D01*
X0430087Y0128335D02*
X0430087Y0148980D01*
X0383453Y0125094D02*
X0375551Y0125094D01*
X0375551Y0124984D01*
X0375551Y0117504D02*
X0375551Y0091657D01*
X0371614Y0085398D02*
X0376732Y0080280D01*
X0371614Y0085398D02*
X0364870Y0085398D01*
X0364870Y0070189D01*
X0363469Y0068787D01*
X0271969Y0068787D01*
X0281555Y0075390D02*
X0286445Y0080280D01*
X0294055Y0080280D01*
X0286445Y0080280D02*
X0285043Y0081681D01*
X0285043Y0119059D01*
X0288850Y0122079D02*
X0276654Y0122079D01*
X0275252Y0120677D01*
X0275252Y0094465D01*
X0273850Y0093063D01*
X0258159Y0093063D01*
X0254573Y0089476D01*
X0248752Y0089476D01*
X0248752Y0093705D01*
X0186039Y0093705D01*
X0177622Y0102122D01*
X0169626Y0102122D01*
X0159303Y0102122D01*
X0157902Y0100720D01*
X0163831Y0106904D02*
X0163831Y0116937D01*
X0163831Y0124417D02*
X0163831Y0124732D01*
X0171543Y0124732D01*
X0180205Y0120992D02*
X0184012Y0120992D01*
X0184012Y0110705D01*
X0185413Y0109303D01*
X0188756Y0109303D01*
X0186815Y0113705D02*
X0201533Y0113705D01*
X0201533Y0111354D01*
X0206738Y0111354D02*
X0220683Y0111354D01*
X0220683Y0116354D02*
X0206738Y0116354D01*
X0206738Y0121354D02*
X0220683Y0121354D01*
X0233146Y0128705D02*
X0233650Y0128201D01*
X0249067Y0128201D01*
X0250469Y0129602D01*
X0250469Y0133555D01*
X0251870Y0134957D01*
X0246661Y0132661D02*
X0238803Y0132661D01*
X0238803Y0131925D01*
X0233146Y0128705D02*
X0202935Y0128705D01*
X0201533Y0127303D01*
X0201533Y0126354D01*
X0196483Y0126354D01*
X0191325Y0121354D02*
X0191325Y0131602D01*
X0185413Y0124244D02*
X0185413Y0115106D01*
X0186815Y0113705D01*
X0176945Y0109303D02*
X0173630Y0109303D01*
X0173630Y0109602D01*
X0169626Y0109602D01*
X0150319Y0107984D02*
X0150319Y0132248D01*
X0148917Y0133650D01*
X0150319Y0135051D01*
X0150319Y0157000D01*
X0156500Y0157000D01*
X0150319Y0157000D02*
X0145000Y0157000D01*
X0135000Y0157000D02*
X0135000Y0151984D01*
X0143697Y0151984D01*
X0145100Y0150581D01*
X0145100Y0141400D01*
X0135100Y0141400D02*
X0130789Y0141400D01*
X0127449Y0144740D01*
X0123000Y0144740D01*
X0123000Y0140882D01*
X0111488Y0140882D01*
X0111488Y0151602D01*
X0117854Y0157000D02*
X0135000Y0157000D01*
X0117854Y0157000D02*
X0116453Y0158402D01*
X0116453Y0220650D01*
X0115051Y0222051D01*
X0138260Y0219854D02*
X0138260Y0214500D01*
X0166020Y0230382D02*
X0166020Y0243331D01*
X0169760Y0239500D02*
X0169760Y0233000D01*
X0160000Y0233000D02*
X0159236Y0233764D01*
X0159236Y0242500D01*
X0150000Y0246500D02*
X0150000Y0233000D01*
X0130530Y0247500D02*
X0128281Y0245252D01*
X0130530Y0247500D02*
X0138764Y0247500D01*
X0145240Y0262996D02*
X0145240Y0267000D01*
X0145240Y0262996D02*
X0148598Y0262996D01*
X0141370Y0271004D02*
X0124004Y0271004D01*
X0055350Y0241661D02*
X0053949Y0240260D01*
X0048000Y0240260D01*
X0048000Y0246400D01*
X0043169Y0237740D02*
X0035000Y0237740D01*
X0037600Y0237900D01*
X0033000Y0242500D01*
X0066650Y0230000D02*
X0071260Y0230000D01*
X0078740Y0230000D02*
X0078740Y0222266D01*
X0077337Y0220863D01*
X0064051Y0220863D01*
X0062650Y0219461D01*
X0179142Y0175100D02*
X0179142Y0130516D01*
X0185413Y0124244D01*
X0191325Y0121354D02*
X0196483Y0121354D01*
X0228126Y0109303D02*
X0232146Y0109303D01*
X0239937Y0109303D02*
X0240000Y0109500D01*
X0255200Y0124700D01*
X0255200Y0128900D01*
X0255323Y0128921D01*
X0246800Y0125100D02*
X0246661Y0125181D01*
X0246800Y0125100D02*
X0246800Y0121100D01*
X0265594Y0126951D02*
X0270205Y0126951D01*
X0270205Y0130953D01*
X0277685Y0130953D02*
X0285043Y0130953D01*
X0285043Y0126539D01*
X0288850Y0122079D02*
X0288850Y0114657D01*
X0286445Y0112252D01*
X0286445Y0107531D01*
X0288898Y0105079D01*
X0288898Y0101075D01*
X0281417Y0101075D02*
X0279307Y0101075D01*
X0279307Y0109303D01*
X0291118Y0109303D02*
X0294137Y0109303D01*
X0294137Y0122799D01*
X0293705Y0122799D01*
X0314276Y0131856D02*
X0314276Y0086240D01*
X0319591Y0086240D01*
X0325551Y0080280D01*
X0335965Y0081681D02*
X0337366Y0080280D01*
X0345236Y0080280D01*
X0339835Y0095953D02*
X0339835Y0100957D01*
X0332354Y0100957D02*
X0330488Y0100957D01*
X0330488Y0109303D01*
X0342299Y0109303D02*
X0342299Y0120988D01*
X0340752Y0120988D01*
X0332091Y0124728D02*
X0327220Y0124728D01*
X0327154Y0124795D01*
X0323150Y0124795D01*
X0305100Y0141400D02*
X0305100Y0160400D01*
X0299500Y0156000D02*
X0299500Y0145800D01*
X0295100Y0141400D01*
X0319500Y0166000D02*
X0324047Y0161453D01*
X0343697Y0161453D01*
X0345100Y0160050D01*
X0347500Y0155500D02*
X0352260Y0155500D01*
X0392114Y0121354D02*
X0393480Y0121354D01*
X0393480Y0109303D01*
X0381669Y0109303D02*
X0381669Y0101079D01*
X0383713Y0101079D01*
X0391193Y0101079D02*
X0391193Y0096020D01*
X0391193Y0092618D01*
X0440799Y0092618D01*
X0442201Y0094020D01*
X0442201Y0096886D01*
X0415295Y0085150D02*
X0415295Y0080280D01*
X0427913Y0080280D01*
X0442709Y0075390D02*
X0401307Y0075390D01*
X0396417Y0080280D01*
X0442709Y0075390D02*
X0447598Y0080280D01*
X0477071Y0117075D02*
X0486024Y0117075D01*
X0552575Y0085169D02*
X0557126Y0080618D01*
X0569787Y0080618D01*
X0569800Y0080300D01*
X0581400Y0080300D01*
X0581457Y0080280D01*
X0569787Y0080618D02*
X0569787Y0084425D01*
X0561913Y0084425D02*
X0561913Y0088472D01*
X0613260Y0088500D02*
X0613260Y0094205D01*
X0621134Y0085256D02*
X0621134Y0080280D01*
X0632638Y0080280D01*
X0626461Y0085256D02*
X0627862Y0086657D01*
X0627862Y0132386D01*
X0626461Y0133787D01*
X0663198Y0123969D02*
X0673744Y0123969D01*
X0681224Y0123969D02*
X0681224Y0124106D01*
X0690295Y0124106D01*
X0733516Y0123902D02*
X0741642Y0123902D01*
X0733516Y0123902D02*
X0733516Y0123516D01*
X0767000Y0137945D02*
X0767000Y0143563D01*
X0767000Y0151437D02*
X0777114Y0151437D01*
X0786257Y0142294D01*
X0802685Y0131831D02*
X0805866Y0135012D01*
X0805943Y0142294D01*
X0752179Y0089157D02*
X0715398Y0089157D01*
X0715398Y0085350D01*
X0707669Y0085350D01*
X0703504Y0080280D02*
X0708394Y0075390D01*
X0749795Y0075390D01*
X0754685Y0080280D01*
X0754636Y0086701D02*
X0758096Y0086701D01*
X0759447Y0085350D01*
X0766386Y0085350D01*
X0754636Y0086701D02*
X0752179Y0089157D01*
X0727488Y0085350D02*
X0723272Y0085350D01*
X0665201Y0085594D02*
X0665201Y0094205D01*
X0626461Y0085256D02*
X0621134Y0085256D01*
X0388260Y0117335D02*
X0387980Y0117614D01*
X0383453Y0117614D01*
X0306402Y0086240D02*
X0302185Y0086240D01*
X0281555Y0075390D02*
X0247764Y0075390D01*
X0242874Y0080280D01*
X0241272Y0089476D02*
X0232146Y0089476D01*
X0223189Y0080280D02*
X0223189Y0031067D01*
X0242874Y0031067D02*
X0249165Y0037358D01*
X0287764Y0037358D01*
X0294055Y0031067D01*
X0211969Y0072589D02*
X0211969Y0084039D01*
X0212500Y0084500D02*
X0214000Y0086000D01*
X0217000Y0086000D01*
X0204488Y0084039D02*
X0204488Y0074990D01*
X0200785Y0071187D02*
X0210567Y0071187D01*
X0211969Y0072589D01*
X0200785Y0071187D02*
X0191693Y0080280D01*
X0191693Y0031067D01*
X0172008Y0031067D02*
X0172008Y0080280D01*
X0160732Y0080280D01*
X0159331Y0081681D01*
X0159331Y0084988D01*
X0177213Y0089201D02*
X0177213Y0075390D01*
X0204488Y0084039D02*
X0204488Y0089953D01*
X0203087Y0091354D01*
X0196483Y0091354D01*
X0148500Y0096000D02*
X0141000Y0096000D01*
X0127858Y0100610D02*
X0120343Y0100610D01*
X0120343Y0109303D02*
X0125764Y0109303D01*
X0137575Y0109303D02*
X0137575Y0120969D01*
X0136303Y0120969D01*
X0127642Y0124709D02*
X0122705Y0124709D01*
X0122571Y0124575D01*
X0118567Y0124575D01*
X0123000Y0133650D02*
X0123000Y0137260D01*
X0123000Y0133650D02*
X0148917Y0133650D01*
X0093500Y0134000D02*
X0093500Y0132000D01*
X0084122Y0125181D02*
X0076461Y0125181D01*
X0076461Y0125232D01*
X0092783Y0121441D02*
X0093778Y0121441D01*
X0093778Y0110705D01*
X0084283Y0104614D02*
X0084283Y0099850D01*
X0084283Y0094669D01*
X0034224Y0094669D01*
X0032823Y0096071D01*
X0032823Y0100217D01*
X0013724Y0090130D02*
X0013724Y0085913D01*
X0038150Y0080280D02*
X0043039Y0075390D01*
X0084441Y0075390D01*
X0089331Y0080280D01*
X0095622Y0073988D01*
X0095622Y0037358D01*
X0089331Y0031067D01*
X0120827Y0031067D02*
X0120827Y0080280D01*
X0112717Y0080280D01*
X0111315Y0081681D01*
X0111315Y0085394D01*
X0076778Y0085394D01*
X0071850Y0090321D01*
X0068244Y0087374D02*
X0062039Y0087374D01*
X0068244Y0087374D02*
X0069646Y0085972D01*
X0069646Y0080280D01*
X0076803Y0099850D02*
X0074583Y0102071D01*
X0074583Y0109303D01*
X0025106Y0125126D02*
X0020929Y0125126D01*
X0020657Y0124854D01*
X0016654Y0124854D01*
X0086000Y0141500D02*
X0086400Y0141100D01*
X0181543Y0171699D02*
X0185100Y0168142D01*
X0260984Y0089256D02*
X0260984Y0081681D01*
X0262386Y0080280D01*
X0274370Y0080280D01*
X0273075Y0089256D02*
X0268858Y0089256D01*
X0140512Y0080280D02*
X0140512Y0031067D01*
X0633500Y0244000D02*
X0633500Y0251500D01*
X0559719Y0313498D02*
X0556717Y0316500D01*
X0546740Y0316500D01*
X0571600Y0320400D02*
X0575400Y0316600D01*
X0571600Y0320400D02*
X0571600Y0323400D01*
X0328521Y0289008D02*
X0319978Y0289008D01*
X0310372Y0299008D02*
X0304321Y0299008D01*
X0304726Y0318906D02*
X0282902Y0318906D01*
X0280500Y0322500D02*
X0281902Y0323902D01*
X0297602Y0323902D01*
X0305100Y0331400D01*
X0297800Y0321500D02*
X0288000Y0321500D01*
X0215100Y0331400D02*
X0215000Y0331300D01*
D38*
X0210800Y0327100D03*
X0199923Y0336624D03*
X0239800Y0319100D03*
X0235000Y0309953D03*
X0225500Y0310301D03*
X0245000Y0309953D03*
X0255000Y0309965D03*
X0274551Y0314768D03*
X0282902Y0312366D03*
X0282902Y0318906D03*
X0288000Y0321500D03*
X0280200Y0329900D03*
X0301325Y0321500D03*
X0304726Y0318906D03*
X0306000Y0312500D03*
X0318240Y0307496D03*
X0327260Y0307496D03*
X0336669Y0306358D03*
X0339350Y0312500D03*
X0340000Y0317700D03*
X0339350Y0321500D03*
X0330000Y0329700D03*
X0369157Y0315256D03*
X0335268Y0301657D03*
X0317577Y0294008D03*
X0314175Y0294008D03*
X0311774Y0289008D03*
X0319978Y0289008D03*
X0310372Y0284008D03*
X0321386Y0277555D03*
X0297500Y0269000D03*
X0323654Y0251500D03*
X0345240Y0252951D03*
X0349850Y0255850D03*
X0367575Y0263500D03*
X0375467Y0261787D03*
X0376549Y0268500D03*
X0388923Y0253500D03*
X0414307Y0257301D03*
X0454937Y0258108D03*
X0467339Y0252215D03*
X0474937Y0253911D03*
X0479937Y0253913D03*
X0493287Y0260409D03*
X0503000Y0256000D03*
X0482535Y0247411D03*
X0459937Y0246010D03*
X0447839Y0231154D03*
X0477287Y0222986D03*
X0489886Y0213374D03*
X0493287Y0233996D03*
X0508400Y0237900D03*
X0524000Y0266100D03*
X0490220Y0282240D03*
X0531000Y0302500D03*
X0531000Y0314000D03*
X0528600Y0316500D03*
X0533600Y0320500D03*
X0535400Y0323700D03*
X0545400Y0323100D03*
X0559719Y0313498D03*
X0571600Y0323400D03*
X0575400Y0316600D03*
X0580400Y0316600D03*
X0583600Y0319100D03*
X0603000Y0311000D03*
X0650800Y0316600D03*
X0654000Y0320500D03*
X0655760Y0313498D03*
X0658600Y0310600D03*
X0633500Y0251500D03*
X0633500Y0244000D03*
X0548862Y0184063D03*
X0536652Y0174752D03*
X0524549Y0180000D03*
X0516882Y0167402D03*
X0536652Y0165000D03*
X0536652Y0160000D03*
X0539053Y0155000D03*
X0519909Y0150000D03*
X0518508Y0143795D03*
X0530500Y0137500D03*
X0542059Y0137390D03*
X0548862Y0131386D03*
X0541657Y0124559D03*
X0530354Y0131386D03*
X0526953Y0131386D03*
X0520287Y0125606D03*
X0496535Y0139992D03*
X0500339Y0152402D03*
X0485949Y0157012D03*
X0479547Y0159413D03*
X0479547Y0153209D03*
X0469547Y0147813D03*
X0459547Y0147813D03*
X0451898Y0147980D03*
X0469547Y0134102D03*
X0466898Y0131697D03*
X0454547Y0132114D03*
X0452000Y0129000D03*
X0451898Y0120480D03*
X0444000Y0120480D03*
X0477071Y0117075D03*
X0530354Y0089874D03*
X0539053Y0085169D03*
X0583350Y0116713D03*
X0613260Y0094205D03*
X0634862Y0116760D03*
X0665201Y0094205D03*
X0707669Y0085350D03*
X0727488Y0085350D03*
X0754636Y0086701D03*
X0728512Y0119646D03*
X0767000Y0137945D03*
X0718200Y0179800D03*
X0607360Y0152350D03*
X0498947Y0180000D03*
X0484547Y0172014D03*
X0472449Y0177447D03*
X0465500Y0172500D03*
X0455744Y0172364D03*
X0459547Y0182555D03*
X0364350Y0170500D03*
X0366752Y0155500D03*
X0347500Y0155500D03*
X0314276Y0131856D03*
X0288850Y0114657D03*
X0265594Y0126951D03*
X0246800Y0121100D03*
X0233500Y0123500D03*
X0209500Y0126000D03*
X0206738Y0121354D03*
X0206738Y0116354D03*
X0206738Y0111354D03*
X0210931Y0106904D03*
X0213333Y0101354D03*
X0226734Y0096354D03*
X0237110Y0098756D03*
X0232146Y0089476D03*
X0217000Y0086000D03*
X0204488Y0074990D03*
X0177213Y0075390D03*
X0159331Y0097079D03*
X0148500Y0096000D03*
X0141000Y0096000D03*
X0120343Y0100610D03*
X0120343Y0109303D03*
X0129783Y0111354D03*
X0132189Y0108453D03*
X0150319Y0107984D03*
X0163831Y0106904D03*
X0190431Y0103955D03*
X0232146Y0109303D03*
X0196356Y0131602D03*
X0191325Y0131602D03*
X0176500Y0126000D03*
X0209000Y0145222D03*
X0198758Y0146232D03*
X0224000Y0146222D03*
X0231500Y0145222D03*
X0239000Y0145222D03*
X0239000Y0163350D03*
X0247000Y0163350D03*
X0259921Y0168896D03*
X0234000Y0178500D03*
X0210354Y0191000D03*
X0207848Y0186020D03*
X0202646Y0196000D03*
X0185453Y0201000D03*
X0181500Y0204500D03*
X0181350Y0196000D03*
X0152854Y0191000D03*
X0132382Y0196000D03*
X0145146Y0201000D03*
X0151500Y0198500D03*
X0145740Y0209496D03*
X0130980Y0204600D03*
X0164000Y0209500D03*
X0179646Y0222256D03*
X0190150Y0214500D03*
X0198500Y0224000D03*
X0177240Y0234496D03*
X0169760Y0233000D03*
X0188500Y0247500D03*
X0189882Y0252500D03*
X0193760Y0260732D03*
X0207500Y0252000D03*
X0202000Y0247500D03*
X0202646Y0242500D03*
X0227260Y0233000D03*
X0235000Y0234000D03*
X0258921Y0241488D03*
X0282852Y0250234D03*
X0307346Y0241500D03*
X0323654Y0241500D03*
X0323654Y0231500D03*
X0307346Y0231500D03*
X0323654Y0221500D03*
X0307346Y0211500D03*
X0268819Y0225500D03*
X0208848Y0206000D03*
X0179142Y0175100D03*
X0181543Y0171699D03*
X0188923Y0167896D03*
X0201159Y0171348D03*
X0216500Y0165494D03*
X0224000Y0163350D03*
X0175000Y0155000D03*
X0107598Y0148634D03*
X0098600Y0148700D03*
X0098600Y0143700D03*
X0093650Y0146232D03*
X0081858Y0148634D03*
X0076654Y0148634D03*
X0083752Y0161691D03*
X0088752Y0161691D03*
X0078752Y0164093D03*
X0078752Y0167494D03*
X0083752Y0169896D03*
X0093504Y0173789D03*
X0073752Y0172888D03*
X0067500Y0166500D03*
X0107453Y0186293D03*
X0093752Y0204453D03*
X0138260Y0219854D03*
X0128281Y0245252D03*
X0130683Y0260732D03*
X0137760Y0260732D03*
X0166350Y0267000D03*
X0129500Y0291612D03*
X0119500Y0304262D03*
X0093500Y0295000D03*
X0099000Y0290211D03*
X0088500Y0278252D03*
X0084421Y0276850D03*
X0082020Y0268500D03*
X0073421Y0264760D03*
X0072823Y0261150D03*
X0061350Y0264760D03*
X0045500Y0261000D03*
X0045500Y0256000D03*
X0035000Y0248260D03*
X0033000Y0242500D03*
X0045622Y0229480D03*
X0051800Y0225700D03*
X0066650Y0230000D03*
X0088500Y0243650D03*
X0064250Y0255740D03*
X0061701Y0248260D03*
X0093504Y0264760D03*
X0174854Y0314453D03*
X0255000Y0295876D03*
X0310372Y0299008D03*
X0342199Y0291409D03*
X0352348Y0243500D03*
X0375467Y0227937D03*
X0414307Y0225437D03*
X0307346Y0181500D03*
X0293402Y0165752D03*
X0388260Y0117335D03*
X0391193Y0096020D03*
X0375551Y0091657D03*
X0339835Y0095953D03*
X0338366Y0085398D03*
X0302185Y0086240D03*
X0285000Y0094500D03*
X0273075Y0089256D03*
X0271969Y0068787D03*
X0097992Y0120705D03*
X0091378Y0113307D03*
X0086575Y0129201D03*
X0093500Y0132000D03*
X0027421Y0113307D03*
X0071850Y0090321D03*
X0062000Y0075500D03*
X0013724Y0085913D03*
X0239000Y0255000D03*
M02*
