%
M48
M72
T01C0.01500
T02C0.03543
T03C0.03937
T04C0.04000
T05C0.04200
T06C0.05118
T07C0.05200
T08C0.09449
T09C0.11024
T10C0.11800
T11C0.12500
%
T01
X62000Y75500
X71850Y90321
X91378Y113307
X97992Y120705
X86575Y129201
X93500Y132000
X98600Y143700
X98600Y148700
X93650Y146232
X81858Y148634
X76654Y148634
X83752Y161691
X88752Y161691
X78752Y164093
X78752Y167494
X83752Y169896
X93504Y173789
X107453Y186293
X132382Y196000
X145146Y201000
X151500Y198500
X152854Y191000
X130980Y204600
X145740Y209496
X164000Y209500
X181500Y204500
X185453Y201000
X181350Y196000
X202646Y196000
X210354Y191000
X207848Y186020
X234000Y178500
X216500Y165494
X224000Y163350
X239000Y163350
X247000Y163350
X259921Y168896
X293402Y165752
X307346Y181500
X347500Y155500
X366752Y155500
X364350Y170500
X314276Y131856
X288850Y114657
X265594Y126951
X246800Y121100
X233500Y123500
X209500Y126000
X206738Y121354
X206738Y116354
X206738Y111354
X210931Y106904
X213333Y101354
X226734Y96354
X237110Y98756
X232146Y89476
X217000Y86000
X204488Y74990
X177213Y75390
X159331Y97079
X148500Y96000
X141000Y96000
X150319Y107984
X163831Y106904
X190431Y103955
X232146Y109303
X273075Y89256
X285000Y94500
X302185Y86240
X338366Y85398
X339835Y95953
X375551Y91657
X391193Y96020
X388260Y117335
X444000Y120480
X451898Y120480
X452000Y129000
X454547Y132114
X466898Y131697
X469547Y134102
X469547Y147813
X459547Y147813
X451898Y147980
X479547Y153209
X485949Y157012
X479547Y159413
X500339Y152402
X519909Y150000
X518508Y143795
X530500Y137500
X542059Y137390
X548862Y131386
X541657Y124559
X530354Y131386
X526953Y131386
X520287Y125606
X496535Y139992
X536652Y160000
X539053Y155000
X536652Y165000
X536652Y174752
X524549Y180000
X548862Y184063
X516882Y167402
X498947Y180000
X484547Y172014
X472449Y177447
X465500Y172500
X455744Y172364
X459547Y182555
X489886Y213374
X477287Y222986
X493287Y233996
X508400Y237900
X482535Y247411
X479937Y253913
X474937Y253911
X467339Y252215
X459937Y246010
X454937Y258108
X493287Y260409
X503000Y256000
X524000Y266100
X490220Y282240
X531000Y302500
X531000Y314000
X528600Y316500
X533600Y320500
X535400Y323700
X545400Y323100
X559719Y313498
X575400Y316600
X580400Y316600
X583600Y319100
X571600Y323400
X603000Y311000
X650800Y316600
X654000Y320500
X655760Y313498
X658600Y310600
X633500Y251500
X633500Y244000
X718200Y179800
X767000Y137945
X728512Y119646
X665201Y94205
X707669Y85350
X727488Y85350
X754636Y86701
X634862Y116760
X613260Y94205
X583350Y116713
X530354Y89874
X539053Y85169
X477071Y117075
X607360Y152350
X447839Y231154
X414307Y225437
X375467Y227937
X352348Y243500
X345240Y252951
X349850Y255850
X367575Y263500
X375467Y261787
X376549Y268500
X388923Y253500
X414307Y257301
X342199Y291409
X335268Y301657
X336669Y306358
X327260Y307496
X318240Y307496
X306000Y312500
X304726Y318906
X301325Y321500
X288000Y321500
X282902Y318906
X274551Y314768
X282902Y312366
X255000Y309965
X245000Y309953
X235000Y309953
X225500Y310301
X239800Y319100
X210800Y327100
X199923Y336624
X174854Y314453
X129500Y291612
X119500Y304262
X93500Y295000
X99000Y290211
X88500Y278252
X84421Y276850
X82020Y268500
X73421Y264760
X72823Y261150
X61350Y264760
X45500Y261000
X45500Y256000
X35000Y248260
X33000Y242500
X45622Y229480
X51800Y225700
X66650Y230000
X88500Y243650
X64250Y255740
X61701Y248260
X93504Y264760
X130683Y260732
X137760Y260732
X128281Y245252
X169760Y233000
X177240Y234496
X188500Y247500
X189882Y252500
X193760Y260732
X207500Y252000
X202000Y247500
X202646Y242500
X227260Y233000
X235000Y234000
X258921Y241488
X239000Y255000
X282852Y250234
X307346Y241500
X323654Y241500
X323654Y251500
X323654Y231500
X307346Y231500
X323654Y221500
X307346Y211500
X268819Y225500
X208848Y206000
X190150Y214500
X179646Y222256
X198500Y224000
X138260Y219854
X93752Y204453
X73752Y172888
X67500Y166500
X107598Y148634
X175000Y155000
X188923Y167896
X181543Y171699
X179142Y175100
X201159Y171348
X198758Y146232
X209000Y145222
X224000Y146222
X231500Y145222
X239000Y145222
X196356Y131602
X191325Y131602
X176500Y126000
X132189Y108453
X129783Y111354
X120343Y109303
X120343Y100610
X27421Y113307
X13724Y85913
X271969Y68787
X166350Y267000
X255000Y295876
X297500Y269000
X321386Y277555
X310372Y284008
X311774Y289008
X319978Y289008
X317577Y294008
X314175Y294008
X310372Y299008
X339350Y312500
X340000Y317700
X339350Y321500
X330000Y329700
X369157Y315256
X280200Y329900
T02
X285100Y331400
X275100Y331400
X295100Y331400
X305100Y331400
X315100Y331400
X325100Y331400
X335100Y331400
X345100Y331400
X255100Y331400
X245100Y331400
X235100Y331400
X225100Y331400
X215100Y331400
X205100Y331400
X195100Y331400
X185100Y331400
X169200Y331400
X159200Y331400
X149200Y331400
X139200Y331400
X129200Y331400
X119200Y331400
X109200Y331400
X99200Y331400
X375100Y181400
X385100Y181400
X385100Y171400
X375100Y171400
X375100Y161400
X385100Y161400
X365100Y141400
X355100Y141400
X345100Y141400
X335100Y141400
X325100Y141400
X315100Y141400
X305100Y141400
X295100Y141400
X275100Y141400
X265100Y141400
X255100Y141400
X245100Y141400
X235100Y141400
X225100Y141400
X215100Y141400
X205100Y141400
X185100Y141400
X175100Y141400
X165100Y141400
X155100Y141400
X145100Y141400
X135100Y141400
T03
X135000Y157000
X145000Y157000
X156500Y157000
X166500Y157000
X159500Y181000
X149500Y181000
X138500Y181000
X128500Y181000
X186000Y181000
X196000Y181000
X207000Y181000
X217000Y181000
X228500Y213500
X238500Y213500
X253500Y225500
X263500Y225500
X263500Y235500
X253500Y235500
X218000Y233000
X208000Y233000
X197000Y233000
X187000Y233000
X160000Y233000
X150000Y233000
X139000Y233000
X129000Y233000
X171500Y214000
X181500Y214000
X181500Y266500
X171500Y266500
X228500Y266500
X238500Y266500
X234000Y285500
X244000Y285500
X244000Y295500
X234000Y295500
X292000Y251500
X302000Y251500
X302000Y241500
X292000Y241500
X292000Y231500
X302000Y231500
X302000Y221500
X292000Y221500
X292000Y211500
X302000Y211500
X302000Y201500
X292000Y201500
X292000Y191500
X302000Y191500
X302000Y181500
X292000Y181500
X537826Y331928
X547826Y331928
X557826Y331928
X567826Y331928
X577826Y331928
X587826Y331928
X597826Y331928
X607826Y331928
X617826Y331928
X627826Y331928
X637826Y331928
X647826Y331928
X657826Y331928
X667826Y331928
X677826Y331928
X687826Y331928
X717407Y190093
X737093Y190093
X746407Y190093
X766093Y190093
X756250Y170407
X727250Y170407
T04
X665750Y268500
X678000Y276000
X703250Y331750
X489250Y275500
X444500Y261750
X422750Y270500
X421000Y295500
X290500Y293500
X290500Y303500
X280500Y303500
X270500Y303500
X260500Y303500
X260500Y293500
X270500Y293500
X280500Y293500
X288500Y274500
X393750Y204500
X329500Y166000
X319500Y166000
X309500Y166000
X299500Y166000
X281750Y163500
X299500Y156000
X309500Y156000
X319500Y156000
X329500Y156000
X340000Y155500
X272000Y177250
X251500Y179250
X111000Y198000
X101000Y198000
X101000Y208000
X111000Y208000
X111000Y218000
X101000Y218000
X101000Y228000
X111000Y228000
X111000Y238000
X101000Y238000
X101000Y248000
X111000Y248000
X111000Y258000
X101000Y258000
X101000Y268000
X111000Y268000
X87000Y297250
X76000Y308500
X55500Y299500
X48750Y291000
X24750Y246250
X60250Y236750
X41500Y213250
T05
X70000Y215000
X70000Y205000
X70000Y195000
T06
X85898Y140882
X111488Y140882
X120827Y80280
X140512Y80280
X172008Y80280
X191693Y80280
X223189Y80280
X242874Y80280
X274370Y80280
X294055Y80280
X325551Y80280
X345236Y80280
X376732Y80280
X396417Y80280
X427913Y80280
X447598Y80280
X479094Y80280
X498780Y80280
X530276Y80280
X549961Y80280
X581457Y80280
X601142Y80280
X632638Y80280
X652323Y80280
X683819Y80280
X703504Y80280
X735000Y80280
X754685Y80280
X786181Y80280
X805866Y80280
X805866Y31067
X786181Y31067
X754685Y31067
X735000Y31067
X703504Y31067
X683819Y31067
X652323Y31067
X632638Y31067
X601142Y31067
X581457Y31067
X549961Y31067
X530276Y31067
X498780Y31067
X479094Y31067
X447598Y31067
X427913Y31067
X396417Y31067
X376732Y31067
X345236Y31067
X325551Y31067
X294055Y31067
X274370Y31067
X242874Y31067
X223189Y31067
X191693Y31067
X172008Y31067
X140512Y31067
X120827Y31067
X89331Y31067
X69646Y31067
X38150Y31067
X18465Y31067
X18465Y80280
X38150Y80280
X69646Y80280
X89331Y80280
X338157Y179894
X357843Y179894
X402409Y197193
X422094Y197193
X422094Y210972
X402409Y210972
X357843Y229106
X338157Y229106
X402409Y260185
X422094Y260185
X466157Y229106
X485843Y229106
X554638Y191516
X574323Y191516
X615819Y191516
X635504Y191516
X677000Y191516
X696685Y191516
X786257Y191506
X805943Y191506
X805943Y142294
X786257Y142294
X696685Y142303
X677000Y142303
X635504Y142303
X615819Y142303
X574323Y142303
X554638Y142303
X485843Y179894
X466157Y179894
X422094Y147980
X402409Y147980
T07
X398685Y284972
X408528Y294815
X433472Y294815
X443315Y284972
X463000Y294815
X482685Y284972
X492528Y294815
X472843Y334185
X453157Y334185
X388843Y334185
X369157Y334185
X379000Y294815
X359315Y284972
X349472Y294815
T08
X349472Y314500
X408528Y314500
X433472Y314500
X492528Y314500
T09
X516330Y331928
X516330Y210196
X811291Y210196
X811291Y331928
T10
X54000Y18250
X55000Y109500
X259500Y109500
X413000Y109500
X566500Y109500
X413000Y18250
X770500Y18250
X771500Y109500
X786250Y307000
T11
X265100Y271400
X65100Y331400
M30
