<?xml version='1.0' encoding='UTF-8' standalone='no'?>
<!-- Created with Fritzing (http://www.fritzing.org/) -->
<svg xmlns="http://www.w3.org/2000/svg" height="2.51969in" baseProfile="tiny" version="1.2"  x="0in" y="0in" width="3.93701in" viewBox="0 0 283.465 181.417" xmlns:svg="http://www.w3.org/2000/svg">
 <g partID="57640">
  <g id="board" >
   <rect fill="none" id="boardoutline" height="180.841"  stroke="black" fill-opacity="0.5" stroke-width="0.5" x="0.288" y="0.288" width="282.889"/>
  </g>
 </g>
 <g partID="854314712">
  <g transform="translate(63.5673,6.00106)">
   <g transform="matrix(0,1,-1,0,0,0)">
    <g id="copper1" >
     <circle fill="black" id="connector5pad" connectorname="VBUS" cx="30.282"  cy="24.5673" stroke="black" stroke-width="1.8" r="1.836"/>
     <circle fill="black" id="connector3pad" connectorname="D-" cx="30.282"  cy="17.4807" stroke="black" stroke-width="1.8" r="1.836"/>
     <circle fill="black" id="connector2pad" connectorname="D+" cx="24.666"  cy="17.4807" stroke="black" stroke-width="1.8" r="1.836"/>
     <circle fill="black" id="connector4pad" connectorname="GND" cx="24.666"  cy="24.5673" stroke="black" stroke-width="1.8" r="1.836"/>
     <circle fill="black" id="connector0pad" connectorname="S1" cx="16.962"  cy="38.088" stroke="black" stroke-width="1.44" r="3.6"/>
     <circle fill="black" id="connector1pad" connectorname="S2" cx="16.962"  cy="3.96" stroke="black" stroke-width="1.44" r="3.6"/>
     <g id="copper0" >
      <circle fill="black" id="connector5pad" connectorname="VBUS" cx="30.282"  cy="24.5673" stroke="black" stroke-width="1.8" r="1.836"/>
      <circle fill="black" id="connector3pad" connectorname="D-" cx="30.282"  cy="17.4807" stroke="black" stroke-width="1.8" r="1.836"/>
      <circle fill="black" id="connector2pad" connectorname="D+" cx="24.666"  cy="17.4807" stroke="black" stroke-width="1.8" r="1.836"/>
      <circle fill="black" id="connector4pad" connectorname="GND" cx="24.666"  cy="24.5673" stroke="black" stroke-width="1.8" r="1.836"/>
      <circle fill="black" id="connector0pad" connectorname="S1" cx="16.962"  cy="38.088" stroke="black" stroke-width="1.44" r="3.6"/>
      <circle fill="black" id="connector1pad" connectorname="S2" cx="16.962"  cy="3.96" stroke="black" stroke-width="1.44" r="3.6"/>
     </g>
    </g>
   </g>
  </g>
 </g>
 <g partID="854349452">
  <g transform="translate(119.538,7.76304)">
   <g id="copper1" >
    <g id="copper0" >
     <rect fill="black" height="4.464"  stroke="black" stroke-width="2.16" x="6.408" y="12.168" width="4.464"/>
     <circle fill="black" id="connector0pad" cx="8.64"  cy="14.4" stroke="black" stroke-width="2.16" r="2.232"/>
     <circle fill="black" id="connector1pad" cx="15.84"  cy="14.4" stroke="black" stroke-width="2.16" r="2.232"/>
     <circle fill="black" id="connector2pad" cx="23.04"  cy="14.4" stroke="black" stroke-width="2.16" r="2.232"/>
    </g>
   </g>
  </g>
 </g>
 <g partID="854350092">
  <g transform="translate(155.581,43.671)">
   <g transform="matrix(-1,0,0,-1,0,0)">
    <g id="copper1" >
     <!-- <rect width="55" x="35" y="35" fill="none" height="55" stroke="rgb(255, 191, 0)" stroke-width="20" /> -->
     <circle fill="black" id="connector0pin" cx="4.5"  cy="4.5" stroke="black" stroke-width="2.16" r="1.98"/>
     <circle fill="black" id="connector1pin" cx="11.7"  cy="4.5" stroke="black" stroke-width="2.16" r="1.98"/>
    </g>
   </g>
  </g>
 </g>
 <g partID="854350382">
  <g transform="translate(125.478,34.671)">
   <g id="copper1" >
    <!--  <rect width="55" x="10" y="35" fill="none" height="55" stroke="rgb(255, 191, 0)" stroke-width="20" /> -->
    <circle fill="black" id="connector0pin" cx="2.7"  cy="4.5" stroke="black" stroke-width="2.16" r="1.98"/>
    <circle fill="black" id="connector1pin" cx="9.9"  cy="4.5" stroke="black" stroke-width="2.16" r="1.98"/>
   </g>
  </g>
 </g>
 <g partID="854350832">
  <g transform="translate(56.1864,108.147)">
   <g id="copper1" >
    <g id="copper0" >
     <rect fill="black" height="3.96" id="rect11"  stroke="black" x="1.98" stroke-width="2.16" y="5.58" width="3.96"/>
     <circle fill="black" id="connector0pin" cx="3.96"  cy="7.56" stroke="black" stroke-width="2.16" r="1.98"/>
     <circle fill="black" id="connector1pin" cx="11.16"  cy="7.56" stroke="black" stroke-width="2.16" r="1.98"/>
    </g>
   </g>
  </g>
 </g>
 <g partID="854351382">
  <g transform="translate(111.418,39.263)">
   <g transform="matrix(0,-1,1,0,0,0)">
    <g id="copper1" >
     <!-- <rect width="55" x="10" y="10" fill="none" height="55" stroke="rgb(255, 191, 0)" stroke-width="20" /> -->
     <circle fill="black" id="connector0pin" cx="2.7"  cy="2.7" stroke="black" stroke-width="2.16" r="1.98"/>
     <circle fill="black" id="connector1pin" cx="17.1"  cy="2.7" stroke="black" stroke-width="2.16" r="1.98"/>
    </g>
   </g>
  </g>
 </g>
 <g partID="854351912">
  <g transform="translate(180.56,27.787)">
   <g id="copper1" >
    <circle fill="black" id="connector0pin" cx="2.88"  cy="2.88" stroke="black" stroke-width="2.16" r="1.8"/>
    <circle fill="black" id="connector1pin" cx="10.0933"  cy="2.88" stroke="black" stroke-width="2.16" r="1.8"/>
   </g>
  </g>
 </g>
 <g partID="854363173">
  <g transform="translate(62.2542,85.4426)">
   <g id="copper1" >
    <circle fill="black" id="connector0pad" cx="4.752"  cy="4.752" stroke="black" stroke-width="2.16" r="1.98"/>
    <circle fill="black" id="connector1pad" cx="26.352"  cy="4.752" stroke="black" stroke-width="2.16" r="1.98"/>
   </g>
  </g>
 </g>
 <g partID="854366533">
  <g transform="translate(172.805,59.9308)">
   <g id="copper1" >
    <circle fill="black" id="connector0pad" cx="4.752"  cy="4.752" stroke="black" stroke-width="2.16" r="1.98"/>
    <circle fill="black" id="connector1pad" cx="26.352"  cy="4.752" stroke="black" stroke-width="2.16" r="1.98"/>
   </g>
  </g>
 </g>
 <g partID="854369873">
  <g transform="translate(160.39,25.915)">
   <g id="copper1" >
    <circle fill="black" id="connector0pad" cx="4.752"  cy="55.7756" stroke="black" stroke-width="2.16" r="1.98"/>
    <circle fill="black" id="connector1pad" cx="4.752"  cy="4.752" stroke="black" stroke-width="2.16" r="1.98"/>
   </g>
  </g>
 </g>
 <g partID="854368763">
  <g transform="translate(130.626,115.207)">
   <g id="copper1" >
    <circle fill="black" id="connector0pad" cx="4.752"  cy="4.752" stroke="black" stroke-width="2.16" r="1.98"/>
    <circle fill="black" id="connector1pad" cx="4.752"  cy="21.7598" stroke="black" stroke-width="2.16" r="1.98"/>
   </g>
  </g>
 </g>
 <g partID="854367903">
  <g transform="translate(139.129,115.207)">
   <g id="copper1" >
    <circle fill="black" id="connector0pad" cx="4.752"  cy="21.7598" stroke="black" stroke-width="2.16" r="1.98"/>
    <circle fill="black" id="connector1pad" cx="4.752"  cy="4.752" stroke="black" stroke-width="2.16" r="1.98"/>
   </g>
  </g>
 </g>
 <g partID="854367653">
  <g transform="translate(219.917,98.1986)">
   <g id="copper1" >
    <circle fill="black" id="connector0pad" cx="4.752"  cy="38.7678" stroke="black" stroke-width="2.16" r="1.98"/>
    <circle fill="black" id="connector1pad" cx="4.752"  cy="4.752" stroke="black" stroke-width="2.16" r="1.98"/>
   </g>
  </g>
 </g>
 <g partID="854367173">
  <g transform="translate(151.885,55.6788)">
   <g id="copper1" >
    <circle fill="black" id="connector0pad" cx="4.752"  cy="81.2873" stroke="black" stroke-width="2.16" r="1.98"/>
    <circle fill="black" id="connector1pad" cx="4.752"  cy="4.752" stroke="black" stroke-width="2.16" r="1.98"/>
   </g>
  </g>
 </g>
 <g partID="854367073">
  <g transform="translate(211.413,110.955)">
   <g id="copper1" >
    <circle fill="black" id="connector0pad" cx="4.752"  cy="21.7598" stroke="black" stroke-width="2.16" r="1.98"/>
    <circle fill="black" id="connector1pad" cx="4.752"  cy="4.752" stroke="black" stroke-width="2.16" r="1.98"/>
   </g>
  </g>
 </g>
 <g partID="854370671">
  <g transform="translate(4.80152,2.13784)">
   <g id="copper1" >
    <circle fill="black" id="nonconn0" cx="7.26926"  cy="7.26926" stroke="black" stroke-width="0.72" r="5.66929"/>
   </g>
  </g>
 </g>
 <g partID="854370641">
  <g transform="translate(264.172,2.13784)">
   <g id="copper1" >
    <circle fill="black" id="nonconn0" cx="7.26926"  cy="7.26926" stroke="black" stroke-width="0.72" r="5.66929"/>
   </g>
  </g>
 </g>
 <g partID="854291062">
  <g transform="translate(87.0166,40.5429)">
   <g transform="matrix(1,0,0,1,0,0)">
    <g id="copper1" >
     <circle fill="black" id="connector0pin" cx="2.88"  cy="2.88" stroke="black" stroke-width="2.16" r="1.8"/>
     <circle fill="black" id="connector1pin" cx="10.0933"  cy="2.88" stroke="black" stroke-width="2.16" r="1.8"/>
    </g>
   </g>
  </g>
 </g>
 <g partID="854292182">
  <g transform="translate(162.261,100.288)">
   <g transform="matrix(0,-1,1,0,0,0)">
    <g id="copper1" >
     <circle fill="black" id="connector0pin" cx="2.88"  cy="2.88" stroke="black" stroke-width="2.16" r="1.8"/>
     <circle fill="black" id="connector1pin" cx="10.0933"  cy="2.88" stroke="black" stroke-width="2.16" r="1.8"/>
    </g>
   </g>
  </g>
 </g>
 <g partID="854295932">
  <g transform="translate(179.493,40.1149)">
   <g id="copper1" >
    <g id="copper0" >
     <rect fill="black" height="3.96" id="rect11"  stroke="black" x="1.98" stroke-width="2.16" y="5.58" width="3.96"/>
     <circle fill="black" id="connector0pin" cx="3.96"  cy="7.56" stroke="black" stroke-width="2.16" r="1.98"/>
     <circle fill="black" id="connector1pin" cx="11.16"  cy="7.56" stroke="black" stroke-width="2.16" r="1.98"/>
    </g>
   </g>
  </g>
 </g>
 <g partID="854276312">
  <g transform="translate(41.0862,86.3508)">
   <g transform="matrix(0,-1,1,0,0,0)">
    <g id="copper1"  stroke-width="0">
     <g id="copper0"  stroke-width="0">
      <rect fill="black" height="3.96"  stroke="black" x="2.34" stroke-width="2.16" y="2.34" width="3.96"/>
      <circle fill="black" id="connector0pin" cx="4.32"  cy="4.32" stroke="black" stroke-width="2.16" r="1.98"/>
      <circle fill="black" id="connector27pin" cx="25.92"  cy="4.32" stroke="black" stroke-width="2.16" r="1.98"/>
      <circle fill="black" id="connector1pin" cx="4.32"  cy="11.52" stroke="black" stroke-width="2.16" r="1.98"/>
      <circle fill="black" id="connector26pin" cx="25.92"  cy="11.52" stroke="black" stroke-width="2.16" r="1.98"/>
      <circle fill="black" id="connector2pin" cx="4.32"  cy="18.72" stroke="black" stroke-width="2.16" r="1.98"/>
      <circle fill="black" id="connector25pin" cx="25.92"  cy="18.72" stroke="black" stroke-width="2.16" r="1.98"/>
      <circle fill="black" id="connector3pin" cx="4.32"  cy="25.92" stroke="black" stroke-width="2.16" r="1.98"/>
      <circle fill="black" id="connector24pin" cx="25.92"  cy="25.92" stroke="black" stroke-width="2.16" r="1.98"/>
      <circle fill="black" id="connector4pin" cx="4.32"  cy="33.12" stroke="black" stroke-width="2.16" r="1.98"/>
      <circle fill="black" id="connector23pin" cx="25.92"  cy="33.12" stroke="black" stroke-width="2.16" r="1.98"/>
      <circle fill="black" id="connector5pin" cx="4.32"  cy="40.32" stroke="black" stroke-width="2.16" r="1.98"/>
      <circle fill="black" id="connector22pin" cx="25.92"  cy="40.32" stroke="black" stroke-width="2.16" r="1.98"/>
      <circle fill="black" id="connector6pin" cx="4.32"  cy="47.52" stroke="black" stroke-width="2.16" r="1.98"/>
      <circle fill="black" id="connector21pin" cx="25.92"  cy="47.52" stroke="black" stroke-width="2.16" r="1.98"/>
      <circle fill="black" id="connector7pin" cx="4.32"  cy="54.72" stroke="black" stroke-width="2.16" r="1.98"/>
      <circle fill="black" id="connector20pin" cx="25.92"  cy="54.72" stroke="black" stroke-width="2.16" r="1.98"/>
      <circle fill="black" id="connector8pin" cx="4.32"  cy="61.92" stroke="black" stroke-width="2.16" r="1.98"/>
      <circle fill="black" id="connector19pin" cx="25.92"  cy="61.92" stroke="black" stroke-width="2.16" r="1.98"/>
      <circle fill="black" id="connector9pin" cx="4.32"  cy="69.12" stroke="black" stroke-width="2.16" r="1.98"/>
      <circle fill="black" id="connector18pin" cx="25.92"  cy="69.12" stroke="black" stroke-width="2.16" r="1.98"/>
      <circle fill="black" id="connector10pin" cx="4.32"  cy="76.32" stroke="black" stroke-width="2.16" r="1.98"/>
      <circle fill="black" id="connector17pin" cx="25.92"  cy="76.32" stroke="black" stroke-width="2.16" r="1.98"/>
      <circle fill="black" id="connector11pin" cx="4.32"  cy="83.52" stroke="black" stroke-width="2.16" r="1.98"/>
      <circle fill="black" id="connector16pin" cx="25.92"  cy="83.52" stroke="black" stroke-width="2.16" r="1.98"/>
      <circle fill="black" id="connector12pin" cx="4.32"  cy="90.72" stroke="black" stroke-width="2.16" r="1.98"/>
      <circle fill="black" id="connector15pin" cx="25.92"  cy="90.72" stroke="black" stroke-width="2.16" r="1.98"/>
      <circle fill="black" id="connector13pin" cx="4.32"  cy="97.92" stroke="black" stroke-width="2.16" r="1.98"/>
      <circle fill="black" id="connector14pin" cx="25.92"  cy="97.92" stroke="black" stroke-width="2.16" r="1.98"/>
     </g>
    </g>
   </g>
  </g>
 </g>
 <g partID="854276882">
  <g transform="translate(91.5702,95.8658)">
   <g id="copper1" >
    <circle fill="black" id="connector1pin" cx="22.5479"  cy="7.08448" stroke="black" stroke-width="2.13732" r="1.84465"/>
    <circle fill="black" id="connector0pin" cx="8.64567"  cy="7.08661" stroke="black" stroke-width="2.13732" r="1.84252"/>
   </g>
  </g>
 </g>
 <g partID="854277082">
  <g transform="translate(107.204,122.839)">
   <g transform="matrix(-1,0,0,-1,0,0)">
    <g id="copper1" >
     <circle fill="black" id="connector0pin" cx="2.88"  cy="2.88" stroke="black" stroke-width="2.16" r="1.8"/>
     <circle fill="black" id="connector1pin" cx="10.0933"  cy="2.88" stroke="black" stroke-width="2.16" r="1.8"/>
    </g>
   </g>
  </g>
 </g>
 <g partID="854277232">
  <g transform="translate(108.277,117.079)">
   <g id="copper1" >
    <circle fill="black" id="connector0pin" cx="2.88"  cy="2.88" stroke="black" stroke-width="2.16" r="1.8"/>
    <circle fill="black" id="connector1pin" cx="10.0933"  cy="2.88" stroke="black" stroke-width="2.16" r="1.8"/>
   </g>
  </g>
 </g>
 <g partID="854278312">
  <g transform="translate(77.5866,101.795)">
   <g transform="matrix(-1,0,0,-1,0,0)">
    <g id="copper1" >
     <!-- <rect width="55" x="10" y="15.5" fill="none" height="55" stroke="rgb(255, 191, 0)" stroke-width="20" />  -->
     <circle fill="black" id="connector0pin" cx="2.7"  cy="3.096" stroke="black" stroke-width="2.16" r="1.98"/>
     <circle fill="black" id="connector1pin" cx="31.5"  cy="3.096" stroke="black" stroke-width="2.16" r="1.98"/>
    </g>
   </g>
  </g>
 </g>
 <g partID="854279182">
  <g transform="translate(173.237,70.1706)">
   <g id="copper1" >
    <g id="copper0" >
     <rect fill="black" id="square" height="3.96"  stroke="black" stroke-width="2.16" x="2.34" y="2.34" width="3.96"/>
     <circle fill="black" id="connector0pin" cx="4.32"  cy="4.32" stroke="black" stroke-width="2.16" r="1.98"/>
     <circle fill="black" id="connector7pin" cx="25.92"  cy="4.32" stroke="black" stroke-width="2.16" r="1.98"/>
     <circle fill="black" id="connector1pin" cx="4.32"  cy="11.52" stroke="black" stroke-width="2.16" r="1.98"/>
     <circle fill="black" id="connector6pin" cx="25.92"  cy="11.52" stroke="black" stroke-width="2.16" r="1.98"/>
     <circle fill="black" id="connector2pin" cx="4.32"  cy="18.72" stroke="black" stroke-width="2.16" r="1.98"/>
     <circle fill="black" id="connector5pin" cx="25.92"  cy="18.72" stroke="black" stroke-width="2.16" r="1.98"/>
     <circle fill="black" id="connector3pin" cx="4.32"  cy="25.92" stroke="black" stroke-width="2.16" r="1.98"/>
     <circle fill="black" id="connector4pin" cx="25.92"  cy="25.92" stroke="black" stroke-width="2.16" r="1.98"/>
    </g>
   </g>
  </g>
 </g>
 <g partID="854279242">
  <g transform="translate(233.105,72.4386)">
   <g id="copper1" >
    <g id="copper0" >
     <rect fill="black" id="square" height="3.96"  stroke="black" stroke-width="2.16" x="2.34" y="2.34" width="3.96"/>
     <circle fill="black" id="connector0pin" cx="4.32"  cy="4.32" stroke="black" stroke-width="2.16" r="1.98"/>
     <circle fill="black" id="connector15pin" cx="25.92"  cy="4.32" stroke="black" stroke-width="2.16" r="1.98"/>
     <circle fill="black" id="connector1pin" cx="4.32"  cy="11.52" stroke="black" stroke-width="2.16" r="1.98"/>
     <circle fill="black" id="connector14pin" cx="25.92"  cy="11.52" stroke="black" stroke-width="2.16" r="1.98"/>
     <circle fill="black" id="connector2pin" cx="4.32"  cy="18.72" stroke="black" stroke-width="2.16" r="1.98"/>
     <circle fill="black" id="connector13pin" cx="25.92"  cy="18.72" stroke="black" stroke-width="2.16" r="1.98"/>
     <circle fill="black" id="connector3pin" cx="4.32"  cy="25.92" stroke="black" stroke-width="2.16" r="1.98"/>
     <circle fill="black" id="connector12pin" cx="25.92"  cy="25.92" stroke="black" stroke-width="2.16" r="1.98"/>
     <circle fill="black" id="connector4pin" cx="4.32"  cy="33.12" stroke="black" stroke-width="2.16" r="1.98"/>
     <circle fill="black" id="connector11pin" cx="25.92"  cy="33.12" stroke="black" stroke-width="2.16" r="1.98"/>
     <circle fill="black" id="connector5pin" cx="4.32"  cy="40.32" stroke="black" stroke-width="2.16" r="1.98"/>
     <circle fill="black" id="connector10pin" cx="25.92"  cy="40.32" stroke="black" stroke-width="2.16" r="1.98"/>
     <circle fill="black" id="connector6pin" cx="4.32"  cy="47.52" stroke="black" stroke-width="2.16" r="1.98"/>
     <circle fill="black" id="connector9pin" cx="25.92"  cy="47.52" stroke="black" stroke-width="2.16" r="1.98"/>
     <circle fill="black" id="connector7pin" cx="4.32"  cy="54.72" stroke="black" stroke-width="2.16" r="1.98"/>
     <circle fill="black" id="connector8pin" cx="25.92"  cy="54.72" stroke="black" stroke-width="2.16" r="1.98"/>
    </g>
   </g>
  </g>
 </g>
 <g partID="854289202">
  <g transform="translate(26.658,108.608)">
   <g id="copper1" >
    <g id="copper0" >
     <circle fill="black" id="connector0pad" cx="20.8462"  cy="15.6024" stroke="black" stroke-width="2.16" r="1.98"/>
     <circle fill="black" id="connector1pad" cx="2.42064"  cy="15.6024" stroke="black" stroke-width="2.16" r="1.98"/>
     <circle fill="black" id="connector2pad" cx="20.8462"  cy="2.84616" stroke="black" stroke-width="2.16" r="1.98"/>
     <circle fill="black" id="connector3pad" cx="2.42064"  cy="2.84616" stroke="black" stroke-width="2.16" r="1.98"/>
    </g>
   </g>
  </g>
 </g>
 <g partID="854371582">
  <g transform="translate(124.846,170.882)">
   <g transform="matrix(-1,0,0,-1,0,0)">
    <g id="copper1" >
     <g id="copper0" >
      <circle fill="black" id="connector2pad" cx="3.528"  cy="22.464" stroke="black" stroke-width="2.808" r="2.52"/>
      <rect fill="black" height="5.04"  stroke="black" stroke-width="2.808" x="1.008" y="5.544" width="5.04"/>
      <circle fill="black" id="connector0pad" cx="3.528"  cy="8.064" stroke="black" stroke-width="2.808" r="2.52"/>
      <circle fill="black" id="connector1pad" cx="32.328"  cy="15.264" stroke="black" stroke-width="2.808" r="2.52"/>
     </g>
    </g>
   </g>
  </g>
 </g>
 <g partID="854371652">
  <g transform="translate(136.75,49.0469)">
   <g id="copper1" >
    <circle fill="black" id="connector0pin" cx="2.88"  cy="2.88" stroke="black" stroke-width="2.16" r="1.8"/>
    <circle fill="black" id="connector1pin" cx="10.0933"  cy="2.88" stroke="black" stroke-width="2.16" r="1.8"/>
   </g>
  </g>
 </g>
 <g partID="854372683">
  <g transform="translate(143.382,55.6788)">
   <g id="copper1" >
    <circle fill="black" id="connector0pad" cx="4.752"  cy="102.547" stroke="black" stroke-width="2.16" r="1.98"/>
    <circle fill="black" id="connector1pad" cx="4.752"  cy="4.752" stroke="black" stroke-width="2.16" r="1.98"/>
   </g>
  </g>
 </g>
 <g partID="854373252">
  <g transform="translate(32.5426,148.934)">
   <g id="copper1" >
    <g id="copper0" >
     <circle fill="black" id="connector0pin" cx="5.04"  cy="5.04" stroke="black" stroke-width="2.16" r="2.088"/>
     <circle fill="black" id="connector1pin" cx="5.04"  cy="12.24" stroke="black" stroke-width="2.16" r="2.088"/>
    </g>
   </g>
  </g>
 </g>
 <g partID="854374291">
  <g transform="translate(264.172,163.713)">
   <g id="copper1" >
    <circle fill="black" id="nonconn0" cx="7.26926"  cy="7.26926" stroke="black" stroke-width="0.72" r="5.66929"/>
   </g>
  </g>
 </g>
 <g partID="854374311">
  <g transform="translate(4.80149,163.713)">
   <g id="copper1" >
    <circle fill="black" id="nonconn0" cx="7.26926"  cy="7.26926" stroke="black" stroke-width="0.72" r="5.66929"/>
   </g>
  </g>
 </g>
</svg>
