G04 MADE WITH FRITZING*
G04 WWW.FRITZING.ORG*
G04 DOUBLE SIDED*
G04 HOLES PLATED*
G04 CONTOUR ON CENTER OF CONTOUR VECTOR*
%ASAXBY*%
%FSLAX23Y23*%
%MOIN*%
%OFA0B0*%
%SFA1.0B1.0*%
%ADD10C,0.049370*%
%ADD11C,0.062000*%
%ADD12C,0.080000*%
%ADD13C,0.088000*%
%ADD14C,0.078000*%
%ADD15C,0.136000*%
%ADD16C,0.084000*%
%ADD17C,0.116614*%
%ADD18C,0.053307*%
%ADD19C,0.135984*%
%ADD20C,0.082361*%
%ADD21C,0.082917*%
%ADD22C,0.092000*%
%ADD23C,0.100000*%
%ADD24C,0.085000*%
%ADD25R,0.082361X0.082361*%
%ADD26R,0.092000X0.092000*%
%ADD27R,0.084000X0.084000*%
%ADD28R,0.085000X0.085000*%
%LNMASK0*%
G90*
G70*
G54D10*
X3611Y2362D03*
X3611Y2125D03*
X3025Y3145D03*
X2944Y3383D03*
X2017Y2716D03*
X629Y2222D03*
X1507Y2246D03*
X1367Y1830D03*
X1446Y2302D03*
X1249Y1771D03*
X1722Y1771D03*
X1974Y1775D03*
G54D11*
X2389Y1509D03*
X2389Y1319D03*
X620Y1072D03*
X620Y882D03*
G54D12*
X2214Y1398D03*
X2214Y1498D03*
X2300Y1147D03*
X2199Y1147D03*
X451Y880D03*
X351Y880D03*
X351Y1060D03*
X451Y1060D03*
G54D13*
X223Y1299D03*
X223Y1199D03*
X223Y1099D03*
X223Y999D03*
X223Y899D03*
X223Y799D03*
X223Y699D03*
X223Y599D03*
X223Y499D03*
X1367Y826D03*
X1367Y726D03*
X1367Y626D03*
X1367Y526D03*
X1367Y426D03*
X2430Y3129D03*
X2530Y3129D03*
X429Y232D03*
X529Y232D03*
X629Y232D03*
X729Y232D03*
X2736Y365D03*
X2836Y365D03*
X2936Y365D03*
X3036Y365D03*
X1308Y1594D03*
X1308Y1494D03*
X1308Y1394D03*
X1308Y1294D03*
G54D14*
X2568Y3350D03*
X2666Y3350D03*
X2666Y3428D03*
X2568Y3428D03*
G54D15*
X2380Y3535D03*
X2854Y3535D03*
G54D16*
X3488Y3441D03*
X3395Y3441D03*
X3306Y3441D03*
X3213Y3441D03*
G54D17*
X3122Y3535D03*
X3579Y3535D03*
G54D18*
X3439Y3539D03*
X3262Y3539D03*
G54D19*
X127Y3806D03*
X1971Y125D03*
X1718Y2128D03*
X3789Y1712D03*
X127Y1712D03*
X127Y152D03*
X3789Y152D03*
X2194Y3779D03*
X3789Y3806D03*
G54D13*
X1663Y2893D03*
X1663Y2793D03*
X245Y2775D03*
X345Y2775D03*
G54D20*
X1131Y2893D03*
G54D21*
X1131Y2593D03*
X1031Y2893D03*
X1031Y2593D03*
X931Y2893D03*
X931Y2593D03*
G54D22*
X895Y3129D03*
X597Y3129D03*
G54D13*
X1958Y2893D03*
X2058Y2893D03*
X2548Y2834D03*
X2648Y2834D03*
G54D12*
X1367Y1121D03*
X1367Y1021D03*
X3198Y1830D03*
X3198Y1630D03*
G54D23*
X737Y3433D03*
X443Y3433D03*
X1034Y3433D03*
X934Y3334D03*
X540Y3333D03*
X934Y3826D03*
X540Y3826D03*
X1623Y3433D03*
X1329Y3433D03*
X1920Y3433D03*
X1820Y3334D03*
X1426Y3333D03*
X1820Y3826D03*
X1426Y3826D03*
G54D24*
X1421Y3129D03*
X1421Y2729D03*
G54D13*
X422Y2196D03*
X422Y2096D03*
X422Y1996D03*
X422Y1896D03*
X422Y1796D03*
X422Y1696D03*
X2135Y2511D03*
X2135Y2411D03*
X2135Y2311D03*
X2135Y2211D03*
X2135Y2111D03*
X2135Y2011D03*
G54D12*
X616Y1699D03*
X616Y1899D03*
X2371Y2066D03*
X2371Y2266D03*
G54D13*
X3375Y658D03*
X3375Y758D03*
X3375Y858D03*
X3375Y958D03*
X3375Y1058D03*
X3375Y1158D03*
X3375Y1258D03*
X3375Y1358D03*
X3257Y658D03*
X3257Y758D03*
X3257Y858D03*
X3257Y958D03*
X3257Y1058D03*
X3257Y1158D03*
X3257Y1258D03*
X3257Y1358D03*
G54D16*
X1915Y681D03*
X1915Y781D03*
X1915Y881D03*
X1915Y981D03*
X1915Y1081D03*
X1915Y1181D03*
X1915Y1281D03*
X1915Y1381D03*
X2015Y681D03*
X2015Y781D03*
X2015Y881D03*
X2015Y981D03*
X2015Y1081D03*
X2015Y1181D03*
X2015Y1281D03*
X2015Y1381D03*
G54D13*
X1485Y1476D03*
X1485Y1576D03*
X1485Y1676D03*
X1485Y1776D03*
G54D24*
X831Y1774D03*
X1131Y1774D03*
X831Y1674D03*
X1131Y1674D03*
X831Y1574D03*
X1131Y1574D03*
X831Y1474D03*
X1131Y1474D03*
X831Y1374D03*
X1131Y1374D03*
X831Y1274D03*
X1131Y1274D03*
X831Y1174D03*
X1131Y1174D03*
X831Y1074D03*
X1131Y1074D03*
X831Y974D03*
X1131Y974D03*
X831Y874D03*
X1131Y874D03*
X831Y774D03*
X1131Y774D03*
X831Y674D03*
X1131Y674D03*
X831Y574D03*
X1131Y574D03*
X831Y474D03*
X1131Y474D03*
X2603Y2366D03*
X2903Y2366D03*
X2603Y2266D03*
X2903Y2266D03*
X2603Y2166D03*
X2903Y2166D03*
X2603Y2066D03*
X2903Y2066D03*
X2603Y1966D03*
X2903Y1966D03*
X2603Y1866D03*
X2903Y1866D03*
X2603Y1766D03*
X2903Y1766D03*
X2603Y1666D03*
X2903Y1666D03*
X2603Y1566D03*
X2903Y1566D03*
X2603Y1466D03*
X2903Y1466D03*
X2603Y1366D03*
X2903Y1366D03*
X2603Y1266D03*
X2903Y1266D03*
X2603Y1166D03*
X2903Y1166D03*
X2603Y1066D03*
X2903Y1066D03*
X3493Y2125D03*
X3493Y1725D03*
X3375Y2125D03*
X3375Y1725D03*
X2903Y689D03*
X2903Y589D03*
X1002Y307D03*
X1002Y207D03*
X1132Y311D03*
X1132Y211D03*
X836Y2007D03*
X836Y1907D03*
X2371Y2421D03*
X2471Y2421D03*
X2198Y3243D03*
X2198Y3143D03*
X777Y2480D03*
X377Y2480D03*
X777Y2598D03*
X377Y2598D03*
X1190Y3070D03*
X1190Y3170D03*
G54D25*
X1131Y2893D03*
G54D26*
X896Y3129D03*
G54D27*
X2015Y681D03*
G54D28*
X831Y1774D03*
X2603Y2366D03*
X2198Y3243D03*
G04 End of Mask0*
M02*