<?xml version='1.0' encoding='UTF-8' standalone='no'?>
<!-- Created with Fritzing (http://www.fritzing.org/) -->
<svg xmlns="http://www.w3.org/2000/svg" height="2.51969in" baseProfile="tiny" version="1.2"  x="0in" y="0in" width="3.93701in" viewBox="0 0 283.465 181.417" xmlns:svg="http://www.w3.org/2000/svg">
 <g transform="matrix(-1, 0, 0, 1, 283.465, 0)">
  <g partID="57641">
   <g id="silkscreen">
    <rect fill="none" height="180.841" stroke="black" stroke-width="0.576" x="0.288" y="0.288" width="282.889"/>
   </g>
  </g>
  <g partID="57640">
   <g id="board">
    <rect fill="none" id="boardoutline" height="180.841" stroke="black" fill-opacity="0.5" stroke-width="0.5" x="0.288" y="0.288" width="282.889"/>
   </g>
  </g>
  <g partID="854314711">
   <g transform="translate(63.5673,6.00106)">
    <g transform="matrix(0,1,-1,0,0,0)">
     <g id="silkscreen">
      <line class="other" x1="0.288" x2="11.0597" stroke="black" stroke-width="0.576" y1="4.01613" stroke-linecap="round" y2="4.01613"/>
      <line class="other" x1="0.288" x2="11.0597" stroke="black" stroke-width="0.576" y1="38.0319" stroke-linecap="round" y2="38.0319"/>
      <line class="other" x1="22.9652" x2="34.0203" stroke="black" stroke-width="0.576" y1="38.0319" stroke-linecap="round" y2="38.0319"/>
      <line class="other" x1="34.0203" x2="34.0203" stroke="black" stroke-width="0.576" y1="38.0319" stroke-linecap="round" y2="4.01613"/>
      <line class="other" x1="34.0203" x2="22.9652" stroke="black" stroke-width="0.576" y1="4.01613" stroke-linecap="round" y2="4.01613"/>
     </g>
    </g>
   </g>
  </g>
  <g partID="854349451">
   <g transform="translate(119.538,7.76304)">
    <g id="silkscreen">
     <line x1="1.44" x2="30.24" stroke="black" stroke-width="0.72" y1="5.76" y2="5.76"/>
     <line x1="30.24" x2="30.24" stroke="black" stroke-width="0.72" y1="5.76" y2="18.72"/>
     <line x1="30.24" x2="1.44" stroke="black" stroke-width="0.72" y1="18.72" y2="18.72"/>
     <line x1="1.44" x2="1.44" stroke="black" stroke-width="0.72" y1="18.72" y2="5.76"/>
     <line x1="1.44" x2="30.24" stroke="black" stroke-width="0.72" y1="5.76" y2="5.76"/>
     <line x1="30.24" x2="30.24" stroke="black" stroke-width="0.72" y1="5.76" y2="10.08"/>
     <line x1="30.24" x2="1.44" stroke="black" stroke-width="0.72" y1="10.08" y2="10.08"/>
     <line x1="1.44" x2="1.44" stroke="black" stroke-width="0.72" y1="10.08" y2="5.76"/>
     <line x1="10.8" x2="10.8" stroke="black" stroke-width="0.36" y1="5.76" y2="10.08"/>
     <line x1="20.88" x2="20.88" stroke="black" stroke-width="0.36" y1="5.76" y2="10.08"/>
    </g>
   </g>
  </g>
  <g partID="854350091">
   <g transform="translate(155.581,43.671)">
    <g transform="matrix(-1,0,0,-1,0,0)">
     <g id="silkscreen">
      <circle fill="none" cx="4.5" cy="4.5" stroke="black" stroke-width="0.72" r="4.104"/>
      <rect fill="black" height="1.44" stroke="black" x="7.38" stroke-width="0.72" y="3.78" width="1.44"/>
     </g>
    </g>
   </g>
  </g>
  <g partID="854350381">
   <g transform="translate(125.478,34.671)">
    <g id="silkscreen">
     <circle fill="none" cx="9.9" cy="4.5" stroke="black" stroke-width="0.72" r="4.104"/>
     <rect fill="black" height="1.44" stroke="black" x="5.58" stroke-width="0.72" y="3.78" width="1.44"/>
    </g>
   </g>
  </g>
  <g partID="854350831">
   <g transform="translate(56.1864,108.147)">
    <g id="silkscreen">
     <circle fill="none" id="circle7" cx="7.56" cy="7.56" stroke="black" stroke-width="0.72" r="7.2"/>
     <path fill="none" stroke="black" stroke-width="0.792" stroke-linecap="round" d="m2.88,3.6,2.16,0"/>
     <path fill="none" stroke="black" stroke-width="0.792" stroke-linecap="round" d="m2.88,11.52,2.16,0"/>
    </g>
   </g>
  </g>
  <g partID="854351381">
   <g transform="translate(111.418,39.263)">
    <g transform="matrix(0,-1,1,0,0,0)">
     <g id="silkscreen">
      <line x1="5.4" x2="8.064" stroke="black" stroke-width="0.72" y1="2.736" y2="2.736"/>
      <line x1="11.664" x2="14.4" stroke="black" stroke-width="0.72" y1="2.736" y2="2.736"/>
      <line x1="8.064" x2="11.664" stroke="black" stroke-width="0.72" y1="0.936" y2="0.936"/>
      <line x1="11.664" x2="11.664" stroke="black" stroke-width="0.72" y1="0.936" y2="4.536"/>
      <line x1="11.664" x2="8.064" stroke="black" stroke-width="0.72" y1="4.536" y2="4.536"/>
      <line x1="8.064" x2="8.064" stroke="black" stroke-width="0.72" y1="4.536" y2="0.936"/>
     </g>
    </g>
   </g>
  </g>
  <g partID="854351911">
   <g transform="translate(180.56,27.787)">
    <g id="silkscreen">
     <g transform="matrix(1, 0, 0, 1, -1.43333, -1.16)">
      <path fill="none" id="path2830" stroke-opacity="1" stroke="black" stroke-width="0.576" d="m6.65907,2.30036a1.84667,1.58,0,0,1,2.51037,0.001464" style="stroke-linecap:round;stroke-linejoin:round;stroke-miterlimit:4;stroke-dasharray:none"/>
     </g>
     <g transform="matrix(-1, 0, 0, -1, 14.3952, 6.92)">
      <path fill="none" id="path2830-1" stroke-opacity="1" stroke="black" stroke-width="0.576" d="m6.65907,2.30036a1.84667,1.58,0,0,1,2.51037,0.001464" style="stroke-linecap:round;stroke-linejoin:round;stroke-miterlimit:4;stroke-dasharray:none"/>
     </g>
    </g>
   </g>
  </g>
  <g partID="854363172">
   <g transform="translate(62.2542,85.4426)">
    <g id="silkscreen">
     <line x1="7.452" x2="23.652" stroke="black" stroke-width="1.512" y1="4.752" stroke-linecap="round" y2="4.752"/>
    </g>
   </g>
  </g>
  <g partID="854366532">
   <g transform="translate(172.805,59.9308)">
    <g id="silkscreen">
     <line x1="7.452" x2="23.652" stroke="black" stroke-width="1.512" y1="4.752" stroke-linecap="round" y2="4.752"/>
    </g>
   </g>
  </g>
  <g partID="854369872">
   <g transform="translate(160.39,25.915)">
    <g id="silkscreen">
     <line x1="4.752" x2="4.752" stroke="black" stroke-width="1.512" y1="53.0756" stroke-linecap="round" y2="7.452"/>
    </g>
   </g>
  </g>
  <g partID="854368762">
   <g transform="translate(130.626,115.207)">
    <g id="silkscreen">
     <line x1="4.752" x2="4.752" stroke="black" stroke-width="1.512" y1="7.452" stroke-linecap="round" y2="19.0598"/>
    </g>
   </g>
  </g>
  <g partID="854367902">
   <g transform="translate(139.129,115.207)">
    <g id="silkscreen">
     <line x1="4.752" x2="4.752" stroke="black" stroke-width="1.512" y1="19.0598" stroke-linecap="round" y2="7.452"/>
    </g>
   </g>
  </g>
  <g partID="854367652">
   <g transform="translate(219.917,98.1986)">
    <g id="silkscreen">
     <line x1="4.752" x2="4.752" stroke="black" stroke-width="1.512" y1="36.0678" stroke-linecap="round" y2="7.452"/>
    </g>
   </g>
  </g>
  <g partID="854367172">
   <g transform="translate(151.885,55.6788)">
    <g id="silkscreen">
     <line x1="4.752" x2="4.752" stroke="black" stroke-width="1.512" y1="78.5873" stroke-linecap="round" y2="7.452"/>
    </g>
   </g>
  </g>
  <g partID="854367072">
   <g transform="translate(211.413,110.955)">
    <g id="silkscreen">
     <line x1="4.752" x2="4.752" stroke="black" stroke-width="1.512" y1="19.0598" stroke-linecap="round" y2="7.452"/>
    </g>
   </g>
  </g>
  <g partID="854291061">
   <g transform="translate(87.0166,40.5429)">
    <g transform="matrix(1,0,0,1,0,0)">
     <g id="silkscreen">
      <g transform="matrix(1, 0, 0, 1, -1.43333, -1.16)">
       <path fill="none" id="path2830" stroke-opacity="1" stroke="black" stroke-width="0.576" d="m6.65907,2.30036a1.84667,1.58,0,0,1,2.51037,0.001464" style="stroke-linecap:round;stroke-linejoin:round;stroke-miterlimit:4;stroke-dasharray:none"/>
      </g>
      <g transform="matrix(-1, 0, 0, -1, 14.3952, 6.92)">
       <path fill="none" id="path2830-1" stroke-opacity="1" stroke="black" stroke-width="0.576" d="m6.65907,2.30036a1.84667,1.58,0,0,1,2.51037,0.001464" style="stroke-linecap:round;stroke-linejoin:round;stroke-miterlimit:4;stroke-dasharray:none"/>
      </g>
     </g>
    </g>
   </g>
  </g>
  <g partID="854292181">
   <g transform="translate(162.261,100.288)">
    <g transform="matrix(0,-1,1,0,0,0)">
     <g id="silkscreen">
      <g transform="matrix(1, 0, 0, 1, -1.43333, -1.16)">
       <path fill="none" id="path2830" stroke-opacity="1" stroke="black" stroke-width="0.576" d="m6.65907,2.30036a1.84667,1.58,0,0,1,2.51037,0.001464" style="stroke-linecap:round;stroke-linejoin:round;stroke-miterlimit:4;stroke-dasharray:none"/>
      </g>
      <g transform="matrix(-1, 0, 0, -1, 14.3952, 6.92)">
       <path fill="none" id="path2830-1" stroke-opacity="1" stroke="black" stroke-width="0.576" d="m6.65907,2.30036a1.84667,1.58,0,0,1,2.51037,0.001464" style="stroke-linecap:round;stroke-linejoin:round;stroke-miterlimit:4;stroke-dasharray:none"/>
      </g>
     </g>
    </g>
   </g>
  </g>
  <g partID="854295931">
   <g transform="translate(179.493,40.1149)">
    <g id="silkscreen">
     <circle fill="none" id="circle7" cx="7.56" cy="7.56" stroke="black" stroke-width="0.72" r="7.2"/>
     <path fill="none" stroke="black" stroke-width="0.792" stroke-linecap="round" d="m2.88,3.6,2.16,0"/>
     <path fill="none" stroke="black" stroke-width="0.792" stroke-linecap="round" d="m2.88,11.52,2.16,0"/>
    </g>
   </g>
  </g>
  <g partID="854276311">
   <g transform="translate(41.0862,86.3508)">
    <g transform="matrix(0,-1,1,0,0,0)">
     <g id="silkscreen" stroke-width="0">
      <line x1="0.72" x2="0.72" stroke="black" stroke-width="0.72" y1="0.72" y2="101.52"/>
      <line x1="0.72" x2="29.52" stroke="black" stroke-width="0.72" y1="101.52" y2="101.52"/>
      <line x1="29.52" x2="29.52" stroke="black" stroke-width="0.72" y1="101.52" y2="0.72"/>
      <line x1="0.72" x2="11.52" stroke="black" stroke-width="0.72" y1="0.72" y2="0.72"/>
      <line x1="18.72" x2="29.52" stroke="black" stroke-width="0.72" y1="0.72" y2="0.72"/>
     </g>
    </g>
   </g>
  </g>
  <g partID="57641">
   <g id="silkscreen">
    <rect fill="none" height="180.841" stroke="black" stroke-width="0.576" x="0.288" y="0.288" width="282.889"/>
   </g>
  </g>
  <g partID="854276881">
   <g transform="translate(91.5702,95.8658)">
    <g id="silkscreen">
     <rect fill="none" height="13.3228" id="rect4181" stroke-opacity="1" stroke="black" x="0.425197" stroke-width="0.708661" y="0.425197" style="stroke-linecap:round;stroke-linejoin:round;stroke-miterlimit:4;stroke-dasharray:none" width="30.3307" ry="6.66142"/>
     <rect fill="none" height="6.23622" id="rect4193" stroke-opacity="1" stroke="black" x="14.5512" stroke-width="0.708661" y="3.9685" style="stroke-linecap:round;stroke-linejoin:round;stroke-miterlimit:4;stroke-dasharray:none" width="2.07874"/>
     <path fill="none" id="path4195" stroke-opacity="1" stroke="black" stroke-width="0.708661" d="m17.8583,4.25197,0,5.66929" style="stroke-linecap:round;stroke-linejoin:miter;stroke-miterlimit:4;stroke-dasharray:none"/>
     <path fill="none" id="path4199" stroke-opacity="1" stroke="black" stroke-width="0.708661" d="m13.3228,4.25197,0,5.66929" style="stroke-linecap:round;stroke-linejoin:miter;stroke-miterlimit:4;stroke-dasharray:none"/>
    </g>
   </g>
  </g>
  <g partID="854277081">
   <g transform="translate(107.204,122.839)">
    <g transform="matrix(-1,0,0,-1,0,0)">
     <g id="silkscreen">
      <g transform="matrix(1, 0, 0, 1, -1.43333, -1.16)">
       <path fill="none" id="path2830" stroke-opacity="1" stroke="black" stroke-width="0.576" d="m6.65907,2.30036a1.84667,1.58,0,0,1,2.51037,0.001464" style="stroke-linecap:round;stroke-linejoin:round;stroke-miterlimit:4;stroke-dasharray:none"/>
      </g>
      <g transform="matrix(-1, 0, 0, -1, 14.3952, 6.92)">
       <path fill="none" id="path2830-1" stroke-opacity="1" stroke="black" stroke-width="0.576" d="m6.65907,2.30036a1.84667,1.58,0,0,1,2.51037,0.001464" style="stroke-linecap:round;stroke-linejoin:round;stroke-miterlimit:4;stroke-dasharray:none"/>
      </g>
     </g>
    </g>
   </g>
  </g>
  <g partID="854277231">
   <g transform="translate(108.277,117.079)">
    <g id="silkscreen">
     <g transform="matrix(1, 0, 0, 1, -1.43333, -1.16)">
      <path fill="none" id="path2830" stroke-opacity="1" stroke="black" stroke-width="0.576" d="m6.65907,2.30036a1.84667,1.58,0,0,1,2.51037,0.001464" style="stroke-linecap:round;stroke-linejoin:round;stroke-miterlimit:4;stroke-dasharray:none"/>
     </g>
     <g transform="matrix(-1, 0, 0, -1, 14.3952, 6.92)">
      <path fill="none" id="path2830-1" stroke-opacity="1" stroke="black" stroke-width="0.576" d="m6.65907,2.30036a1.84667,1.58,0,0,1,2.51037,0.001464" style="stroke-linecap:round;stroke-linejoin:round;stroke-miterlimit:4;stroke-dasharray:none"/>
     </g>
    </g>
   </g>
  </g>
  <g partID="854278311">
   <g transform="translate(77.5866,101.795)">
    <g transform="matrix(-1,0,0,-1,0,0)">
     <g id="silkscreen">
      <line x1="5.4" x2="10.584" stroke="black" stroke-width="0.72" y1="3.096" y2="3.096"/>
      <line x1="24.984" x2="28.8" stroke="black" stroke-width="0.72" y1="3.096" y2="3.096"/>
      <line x1="10.584" x2="24.984" stroke="black" stroke-width="0.72" y1="0.72" y2="0.72"/>
      <line x1="24.984" x2="24.984" stroke="black" stroke-width="0.72" y1="0.72" y2="5.472"/>
      <line x1="24.984" x2="10.584" stroke="black" stroke-width="0.72" y1="5.472" y2="5.472"/>
      <line x1="10.584" x2="10.584" stroke="black" stroke-width="0.72" y1="5.472" y2="0.72"/>
     </g>
    </g>
   </g>
  </g>
  <g partID="854279181">
   <g transform="translate(173.237,70.1706)">
    <g id="silkscreen">
     <line x1="0.72" x2="0.72" stroke="black" stroke-width="0.72" y1="0.72" y2="29.52"/>
     <line x1="0.72" x2="29.52" stroke="black" stroke-width="0.72" y1="29.52" y2="29.52"/>
     <line x1="29.52" x2="29.52" stroke="black" stroke-width="0.72" y1="29.52" y2="0.72"/>
     <line x1="0.72" x2="11.52" stroke="black" stroke-width="0.72" y1="0.72" y2="0.72"/>
     <line x1="18.72" x2="29.52" stroke="black" stroke-width="0.72" y1="0.72" y2="0.72"/>
    </g>
   </g>
  </g>
  <g partID="854279241">
   <g transform="translate(233.105,72.4386)">
    <g id="silkscreen">
     <line x1="0.72" x2="0.72" stroke="black" stroke-width="0.72" y1="0.72" y2="58.32"/>
     <line x1="0.72" x2="29.52" stroke="black" stroke-width="0.72" y1="58.32" y2="58.32"/>
     <line x1="29.52" x2="29.52" stroke="black" stroke-width="0.72" y1="58.32" y2="0.72"/>
     <line x1="0.72" x2="11.52" stroke="black" stroke-width="0.72" y1="0.72" y2="0.72"/>
     <line x1="18.72" x2="29.52" stroke="black" stroke-width="0.72" y1="0.72" y2="0.72"/>
    </g>
   </g>
  </g>
  <g partID="854289201">
   <g transform="translate(26.658,108.608)">
    <g id="silkscreen">
     <line x1="20.137" x2="20.137" stroke="black" stroke-width="0.72" y1="6.38928" y2="12.0586"/>
     <line x1="5.96376" x2="18.0115" stroke="black" stroke-width="0.72" y1="0.72" y2="0.72"/>
     <line x1="5.96376" x2="18.0115" stroke="black" stroke-width="0.72" y1="17.7278" y2="17.7278"/>
     <line x1="3.12912" x2="3.12912" stroke="black" stroke-width="0.72" y1="6.38928" y2="12.0586"/>
     <line x1="11.633" x2="11.633" stroke="black" stroke-width="0.72" y1="7.80696" y2="10.6416"/>
     <line x1="13.0507" x2="10.2161" stroke="black" stroke-width="0.72" y1="9.22392" y2="9.22392"/>
    </g>
   </g>
  </g>
  <g partID="854371581">
   <g transform="translate(124.846,170.882)">
    <g transform="matrix(-1,0,0,-1,0,0)">
     <g id="silkscreen">
      <line x1="21.528" x2="14.328" stroke="black" stroke-width="0.36" y1="11.664" y2="18.864"/>
      <line x1="28.728" x2="32.328" stroke="black" stroke-width="0.864" y1="24.264" y2="18.864"/>
      <line x1="25.128" x2="28.728" stroke="black" stroke-width="0.864" y1="27.864" y2="24.264"/>
      <line x1="19.728" x2="25.128" stroke="black" stroke-width="0.864" y1="29.664" y2="27.864"/>
      <line x1="16.128" x2="19.728" stroke="black" stroke-width="0.864" y1="29.664" y2="29.664"/>
      <line x1="10.728" x2="16.128" stroke="black" stroke-width="0.864" y1="27.864" y2="29.664"/>
      <line x1="8.928" x2="10.728" stroke="black" stroke-width="0.864" y1="26.064" y2="27.864"/>
      <line x1="10.728" x2="16.128" stroke="black" stroke-width="0.864" y1="2.664" y2="0.864"/>
      <line x1="8.928" x2="10.728" stroke="black" stroke-width="0.864" y1="4.464" y2="2.664"/>
      <line x1="3.528" x2="3.528" stroke="black" stroke-width="0.864" y1="11.664" y2="18.864"/>
      <line x1="16.128" x2="19.728" stroke="black" stroke-width="0.864" y1="0.864" y2="0.864"/>
      <line x1="19.728" x2="25.128" stroke="black" stroke-width="0.864" y1="0.864" y2="2.664"/>
      <line x1="25.128" x2="28.728" stroke="black" stroke-width="0.864" y1="2.664" y2="6.264"/>
      <line x1="3.528" x2="8.928" stroke="black" stroke-width="0.864" y1="26.064" y2="26.064"/>
      <line x1="3.528" x2="8.928" stroke="black" stroke-width="0.864" y1="4.464" y2="4.464"/>
      <line x1="28.728" x2="32.328" stroke="black" stroke-width="0.864" y1="6.264" y2="11.664"/>
     </g>
    </g>
   </g>
  </g>
  <g partID="854371651">
   <g transform="translate(136.75,49.0469)">
    <g id="silkscreen">
     <g transform="matrix(1, 0, 0, 1, -1.43333, -1.16)">
      <path fill="none" id="path2830" stroke-opacity="1" stroke="black" stroke-width="0.576" d="m6.65907,2.30036a1.84667,1.58,0,0,1,2.51037,0.001464" style="stroke-linecap:round;stroke-linejoin:round;stroke-miterlimit:4;stroke-dasharray:none"/>
     </g>
     <g transform="matrix(-1, 0, 0, -1, 14.3952, 6.92)">
      <path fill="none" id="path2830-1" stroke-opacity="1" stroke="black" stroke-width="0.576" d="m6.65907,2.30036a1.84667,1.58,0,0,1,2.51037,0.001464" style="stroke-linecap:round;stroke-linejoin:round;stroke-miterlimit:4;stroke-dasharray:none"/>
     </g>
    </g>
   </g>
  </g>
  <g partID="854372682">
   <g transform="translate(143.382,55.6788)">
    <g id="silkscreen">
     <line x1="4.752" x2="4.752" stroke="black" stroke-width="1.512" y1="99.8474" stroke-linecap="round" y2="7.452"/>
    </g>
   </g>
  </g>
  <g partID="854373251">
   <g transform="translate(32.5426,148.934)">
    <g id="silkscreen">
     <line x1="1.44" x2="1.44" stroke="black" stroke-width="0.72" y1="1.44" y2="15.84"/>
     <line x1="1.44" x2="8.64" stroke="black" stroke-width="0.72" y1="15.84" y2="15.84"/>
     <line x1="8.64" x2="8.64" stroke="black" stroke-width="0.72" y1="15.84" y2="1.44"/>
     <line x1="8.64" x2="1.44" stroke="black" stroke-width="0.72" y1="1.44" y2="1.44"/>
     <line x1="1.44" x2="3.96" stroke="black" stroke-width="0.36" y1="3.96" y2="1.44"/>
     <!-- 120 -->
    </g>
   </g>
  </g>
  <g id="partLabel" partID="854276880">
   <g transform="translate(123.485,113.185)">
    <g transform="matrix(0,-1,1,0,0,0)">
     <g fill="#000000" id="silkscreenLabel" stroke="none" fill-opacity="1" font-size="5" font-style="normal" font-weight="normal" font-family="'OCRA'">
      <text x="0" y="3.75">16MHz</text>
     </g>
    </g>
   </g>
  </g>
  <g id="partLabel" partID="854277230">
   <g transform="translate(99.7502,124.22)">
    <g transform="matrix(1,0,0,1,0,0)">
     <g fill="#000000" id="silkscreenLabel" stroke="none" fill-opacity="1" font-size="5" font-style="normal" font-weight="normal" font-family="'OCRA'">
      <text x="0" y="3.75">100nf</text>
     </g>
    </g>
   </g>
  </g>
  <g id="partLabel" partID="854278310">
   <g transform="translate(64.1897,100.028)">
    <g transform="matrix(-1,0,0,-1,0,0)">
     <g fill="#000000" id="silkscreenLabel" stroke="none" fill-opacity="1" font-size="3" font-style="normal" font-weight="normal" font-family="'OCRA'">
      <text x="0" y="2.25">100k</text>
     </g>
    </g>
   </g>
  </g>
  <g id="partLabel" partID="854279180">
   <g transform="translate(190.633,75.573)">
    <g transform="matrix(0,1,-1,0,0,0)">
     <g fill="#000000" id="silkscreenLabel" stroke="none" fill-opacity="1" font-size="5" font-style="normal" font-weight="normal" font-family="'OCRA'">
      <text x="0" y="3.75">W25Q64</text>
     </g>
    </g>
   </g>
  </g>
  <g id="partLabel" partID="854276310">
   <g transform="translate(76.695,69.0066)">
    <g fill="#000000" id="silkscreenLabel" stroke="none" fill-opacity="1" font-size="5" font-style="normal" font-weight="normal" font-family="'OCRA'">
     <text x="0" y="3.75">ATMega328</text>
    </g>
   </g>
  </g>
  <g id="partLabel" partID="854289200">
   <g transform="translate(24.2933,101.362)">
    <g fill="#000000" id="silkscreenLabel" stroke="none" fill-opacity="1" font-size="5" font-style="normal" font-weight="normal" font-family="'OCRA'">
     <text x="0" y="3.75">Reset</text>
    </g>
   </g>
  </g>
  <g id="partLabel" partID="854279240">
   <g transform="translate(249.969,90.5978)">
    <g transform="matrix(0,1,-1,0,0,0)">
     <g fill="#000000" id="silkscreenLabel" stroke="none" fill-opacity="1" font-size="5" font-style="normal" font-weight="normal" font-family="'OCRA'">
      <text x="0" y="3.75">CD4050</text>
     </g>
    </g>
   </g>
  </g>
  <g id="partLabel" partID="854292180">
   <g transform="translate(163.929,117.921)">
    <g transform="matrix(0,-1,1,0,0,0)">
     <g fill="#000000" id="silkscreenLabel" stroke="none" fill-opacity="1" font-size="5" font-style="normal" font-weight="normal" font-family="'OCRA'">
      <text x="0" y="3.75">100nf</text>
     </g>
    </g>
   </g>
  </g>
  <g id="partLabel" partID="854291060">
   <g transform="translate(85.2982,48.5974)">
    <g transform="matrix(1,0,0,1,0,0)">
     <g fill="#000000" id="silkscreenLabel" stroke="none" fill-opacity="1" font-size="5" font-style="normal" font-weight="normal" font-family="'OCRA'">
      <text x="0" y="3.75">100nf</text>
     </g>
    </g>
   </g>
  </g>
  <g id="partLabel" partID="854295930">
   <g transform="translate(195.533,44.5302)">
    <g fill="#000000" id="silkscreenLabel" stroke="none" fill-opacity="1" font-size="5" font-style="normal" font-weight="normal" font-family="'OCRA'">
     <text x="0" y="3.75">10uf</text>
    </g>
   </g>
  </g>
  <g id="partLabel" partID="854314710">
   <g transform="translate(30.7273,42.5113)">
    <g fill="#000000" id="silkscreenLabel" stroke="none" fill-opacity="1" font-size="5" font-style="normal" font-weight="normal" font-family="'OCRA'">
     <text x="0" y="3.75">USB 5V</text>
    </g>
   </g>
  </g>
  <g id="partLabel" partID="854350380">
   <g transform="translate(131.784,29.3203)">
    <g fill="#000000" id="silkscreenLabel" stroke="none" fill-opacity="1" font-size="5" font-style="normal" font-weight="normal" font-family="'OCRA'">
     <text x="0" y="3.75">75</text>
    </g>
   </g>
  </g>
  <g id="partLabel" partID="854349450">
   <g transform="translate(127.584,7.93008)">
    <g fill="#000000" id="silkscreenLabel" stroke="none" fill-opacity="1" font-size="5" font-style="normal" font-weight="normal" font-family="'OCRA'">
     <text x="0" y="3.75">LM317</text>
    </g>
   </g>
  </g>
  <g id="partLabel" partID="854350090">
   <g transform="translate(146.588,45.3302)">
    <g transform="matrix(1,0,0,1,0,0)">
     <g fill="#000000" id="silkscreenLabel" stroke="none" fill-opacity="1" font-size="5" font-style="normal" font-weight="normal" font-family="'OCRA'">
      <text x="0" y="3.75">470</text>
     </g>
    </g>
   </g>
  </g>
  <g id="partLabel" partID="854350830">
   <g transform="translate(61.5734,125.683)">
    <g fill="#000000" id="silkscreenLabel" stroke="none" fill-opacity="1" font-size="5" font-style="normal" font-weight="normal" font-family="'OCRA'">
     <text x="0" y="3.75">100uf</text>
    </g>
   </g>
  </g>
  <g id="partLabel" partID="854351910">
   <g transform="translate(195.293,28.5386)">
    <g fill="#000000" id="silkscreenLabel" stroke="none" fill-opacity="1" font-size="5" font-style="normal" font-weight="normal" font-family="'OCRA'">
     <text x="0" y="3.75">100nf</text>
    </g>
   </g>
  </g>
  <g id="partLabel" partID="854351380">
   <g transform="translate(106.394,35.7125)">
    <g transform="matrix(0,-1,1,0,0,0)">
     <g fill="#000000" id="silkscreenLabel" stroke="none" fill-opacity="1" font-size="5" font-style="normal" font-weight="normal" font-family="'OCRA'">
      <text x="0" y="3.75">330</text>
     </g>
    </g>
   </g>
  </g>
  <g id="partLabel" partID="854371650">
   <g transform="translate(117.44,50.4763)">
    <g fill="#000000" id="silkscreenLabel" stroke="none" fill-opacity="1" font-size="5" font-style="normal" font-weight="normal" font-family="'OCRA'">
     <text x="0" y="3.75">100nf</text>
    </g>
   </g>
  </g>
  <g id="partLabel" partID="854373250">
   <g transform="translate(42.6226,143.334)">
    <g fill="#000000" id="silkscreenLabel" stroke="none" fill-opacity="1" font-size="5" font-style="normal" font-weight="normal" font-family="'OCRA'">
     <text x="0" y="3.75">Audio Out</text>
    </g>
   </g>
  </g>
  <g partID="854314712">
   <g transform="translate(63.5673,6.00106)">
    <g transform="matrix(0,1,-1,0,0,0)">
     <g id="copper1">
      <circle fill="white" id="connector5pad" connectorname="VBUS" cx="30.282" cy="24.5673" stroke="white" stroke-width="1.8" r="1.836"/>
      <circle fill="white" id="connector3pad" connectorname="D-" cx="30.282" cy="17.4807" stroke="white" stroke-width="1.8" r="1.836"/>
      <circle fill="white" id="connector2pad" connectorname="D+" cx="24.666" cy="17.4807" stroke="white" stroke-width="1.8" r="1.836"/>
      <circle fill="white" id="connector4pad" connectorname="GND" cx="24.666" cy="24.5673" stroke="white" stroke-width="1.8" r="1.836"/>
      <circle fill="white" id="connector0pad" connectorname="S1" cx="16.962" cy="38.088" stroke="white" stroke-width="1.44" r="3.6"/>
      <circle fill="white" id="connector1pad" connectorname="S2" cx="16.962" cy="3.96" stroke="white" stroke-width="1.44" r="3.6"/>
      <g id="copper0">
       <circle fill="white" id="connector5pad" connectorname="VBUS" cx="30.282" cy="24.5673" stroke="white" stroke-width="1.8" r="1.836"/>
       <circle fill="white" id="connector3pad" connectorname="D-" cx="30.282" cy="17.4807" stroke="white" stroke-width="1.8" r="1.836"/>
       <circle fill="white" id="connector2pad" connectorname="D+" cx="24.666" cy="17.4807" stroke="white" stroke-width="1.8" r="1.836"/>
       <circle fill="white" id="connector4pad" connectorname="GND" cx="24.666" cy="24.5673" stroke="white" stroke-width="1.8" r="1.836"/>
       <circle fill="white" id="connector0pad" connectorname="S1" cx="16.962" cy="38.088" stroke="white" stroke-width="1.44" r="3.6"/>
       <circle fill="white" id="connector1pad" connectorname="S2" cx="16.962" cy="3.96" stroke="white" stroke-width="1.44" r="3.6"/>
      </g>
     </g>
    </g>
   </g>
  </g>
  <g partID="854349452">
   <g transform="translate(119.538,7.76304)">
    <g id="copper1">
     <g id="copper0">
      <rect fill="white" height="4.464" stroke="white" stroke-width="2.16" x="6.408" y="12.168" width="4.464"/>
      <circle fill="white" id="connector0pad" cx="8.64" cy="14.4" stroke="white" stroke-width="2.16" r="2.232"/>
      <circle fill="white" id="connector1pad" cx="15.84" cy="14.4" stroke="white" stroke-width="2.16" r="2.232"/>
      <circle fill="white" id="connector2pad" cx="23.04" cy="14.4" stroke="white" stroke-width="2.16" r="2.232"/>
     </g>
    </g>
   </g>
  </g>
  <g partID="854350092">
   <g transform="translate(155.581,43.671)">
    <g transform="matrix(-1,0,0,-1,0,0)">
     <g id="copper1">
      <!-- <rect width="55" x="35" y="35" fill="none" height="55" stroke="rgb(255, 191, 0)" stroke-width="20" /> -->
      <circle fill="white" id="connector0pin" cx="4.5" cy="4.5" stroke="white" stroke-width="2.16" r="1.98"/>
      <circle fill="white" id="connector1pin" cx="11.7" cy="4.5" stroke="white" stroke-width="2.16" r="1.98"/>
     </g>
    </g>
   </g>
  </g>
  <g partID="854350382">
   <g transform="translate(125.478,34.671)">
    <g id="copper1">
     <!--  <rect width="55" x="10" y="35" fill="none" height="55" stroke="rgb(255, 191, 0)" stroke-width="20" /> -->
     <circle fill="white" id="connector0pin" cx="2.7" cy="4.5" stroke="white" stroke-width="2.16" r="1.98"/>
     <circle fill="white" id="connector1pin" cx="9.9" cy="4.5" stroke="white" stroke-width="2.16" r="1.98"/>
    </g>
   </g>
  </g>
  <g partID="854350832">
   <g transform="translate(56.1864,108.147)">
    <g id="copper1">
     <g id="copper0">
      <rect fill="white" height="3.96" id="rect11" stroke="white" x="1.98" stroke-width="2.16" y="5.58" width="3.96"/>
      <circle fill="white" id="connector0pin" cx="3.96" cy="7.56" stroke="white" stroke-width="2.16" r="1.98"/>
      <circle fill="white" id="connector1pin" cx="11.16" cy="7.56" stroke="white" stroke-width="2.16" r="1.98"/>
     </g>
    </g>
   </g>
  </g>
  <g partID="854351382">
   <g transform="translate(111.418,39.263)">
    <g transform="matrix(0,-1,1,0,0,0)">
     <g id="copper1">
      <!-- <rect width="55" x="10" y="10" fill="none" height="55" stroke="rgb(255, 191, 0)" stroke-width="20" /> -->
      <circle fill="white" id="connector0pin" cx="2.7" cy="2.7" stroke="white" stroke-width="2.16" r="1.98"/>
      <circle fill="white" id="connector1pin" cx="17.1" cy="2.7" stroke="white" stroke-width="2.16" r="1.98"/>
     </g>
    </g>
   </g>
  </g>
  <g partID="854351912">
   <g transform="translate(180.56,27.787)">
    <g id="copper1">
     <circle fill="white" id="connector0pin" cx="2.88" cy="2.88" stroke="white" stroke-width="2.16" r="1.8"/>
     <circle fill="white" id="connector1pin" cx="10.0933" cy="2.88" stroke="white" stroke-width="2.16" r="1.8"/>
    </g>
   </g>
  </g>
  <g partID="854363173">
   <g transform="translate(62.2542,85.4426)">
    <g id="copper1">
     <circle fill="white" id="connector0pad" cx="4.752" cy="4.752" stroke="white" stroke-width="2.16" r="1.98"/>
     <circle fill="white" id="connector1pad" cx="26.352" cy="4.752" stroke="white" stroke-width="2.16" r="1.98"/>
    </g>
   </g>
  </g>
  <g partID="854366533">
   <g transform="translate(172.805,59.9308)">
    <g id="copper1">
     <circle fill="white" id="connector0pad" cx="4.752" cy="4.752" stroke="white" stroke-width="2.16" r="1.98"/>
     <circle fill="white" id="connector1pad" cx="26.352" cy="4.752" stroke="white" stroke-width="2.16" r="1.98"/>
    </g>
   </g>
  </g>
  <g partID="854369873">
   <g transform="translate(160.39,25.915)">
    <g id="copper1">
     <circle fill="white" id="connector0pad" cx="4.752" cy="55.7756" stroke="white" stroke-width="2.16" r="1.98"/>
     <circle fill="white" id="connector1pad" cx="4.752" cy="4.752" stroke="white" stroke-width="2.16" r="1.98"/>
    </g>
   </g>
  </g>
  <g partID="854368763">
   <g transform="translate(130.626,115.207)">
    <g id="copper1">
     <circle fill="white" id="connector0pad" cx="4.752" cy="4.752" stroke="white" stroke-width="2.16" r="1.98"/>
     <circle fill="white" id="connector1pad" cx="4.752" cy="21.7598" stroke="white" stroke-width="2.16" r="1.98"/>
    </g>
   </g>
  </g>
  <g partID="854367903">
   <g transform="translate(139.129,115.207)">
    <g id="copper1">
     <circle fill="white" id="connector0pad" cx="4.752" cy="21.7598" stroke="white" stroke-width="2.16" r="1.98"/>
     <circle fill="white" id="connector1pad" cx="4.752" cy="4.752" stroke="white" stroke-width="2.16" r="1.98"/>
    </g>
   </g>
  </g>
  <g partID="854367653">
   <g transform="translate(219.917,98.1986)">
    <g id="copper1">
     <circle fill="white" id="connector0pad" cx="4.752" cy="38.7678" stroke="white" stroke-width="2.16" r="1.98"/>
     <circle fill="white" id="connector1pad" cx="4.752" cy="4.752" stroke="white" stroke-width="2.16" r="1.98"/>
    </g>
   </g>
  </g>
  <g partID="854367173">
   <g transform="translate(151.885,55.6788)">
    <g id="copper1">
     <circle fill="white" id="connector0pad" cx="4.752" cy="81.2873" stroke="white" stroke-width="2.16" r="1.98"/>
     <circle fill="white" id="connector1pad" cx="4.752" cy="4.752" stroke="white" stroke-width="2.16" r="1.98"/>
    </g>
   </g>
  </g>
  <g partID="854367073">
   <g transform="translate(211.413,110.955)">
    <g id="copper1">
     <circle fill="white" id="connector0pad" cx="4.752" cy="21.7598" stroke="white" stroke-width="2.16" r="1.98"/>
     <circle fill="white" id="connector1pad" cx="4.752" cy="4.752" stroke="white" stroke-width="2.16" r="1.98"/>
    </g>
   </g>
  </g>
  <g partID="854370671">
   <g transform="translate(4.80152,2.13784)">
    <g id="copper1">
     <circle fill="white" id="nonconn0" cx="7.26926" cy="7.26926" stroke="white" stroke-width="0.72" r="5.66929"/>
    </g>
   </g>
  </g>
  <g partID="854370641">
   <g transform="translate(264.172,2.13784)">
    <g id="copper1">
     <circle fill="white" id="nonconn0" cx="7.26926" cy="7.26926" stroke="white" stroke-width="0.72" r="5.66929"/>
    </g>
   </g>
  </g>
  <g partID="854291062">
   <g transform="translate(87.0166,40.5429)">
    <g transform="matrix(1,0,0,1,0,0)">
     <g id="copper1">
      <circle fill="white" id="connector0pin" cx="2.88" cy="2.88" stroke="white" stroke-width="2.16" r="1.8"/>
      <circle fill="white" id="connector1pin" cx="10.0933" cy="2.88" stroke="white" stroke-width="2.16" r="1.8"/>
     </g>
    </g>
   </g>
  </g>
  <g partID="854292182">
   <g transform="translate(162.261,100.288)">
    <g transform="matrix(0,-1,1,0,0,0)">
     <g id="copper1">
      <circle fill="white" id="connector0pin" cx="2.88" cy="2.88" stroke="white" stroke-width="2.16" r="1.8"/>
      <circle fill="white" id="connector1pin" cx="10.0933" cy="2.88" stroke="white" stroke-width="2.16" r="1.8"/>
     </g>
    </g>
   </g>
  </g>
  <g partID="854295932">
   <g transform="translate(179.493,40.1149)">
    <g id="copper1">
     <g id="copper0">
      <rect fill="white" height="3.96" id="rect11" stroke="white" x="1.98" stroke-width="2.16" y="5.58" width="3.96"/>
      <circle fill="white" id="connector0pin" cx="3.96" cy="7.56" stroke="white" stroke-width="2.16" r="1.98"/>
      <circle fill="white" id="connector1pin" cx="11.16" cy="7.56" stroke="white" stroke-width="2.16" r="1.98"/>
     </g>
    </g>
   </g>
  </g>
  <g partID="854276312">
   <g transform="translate(41.0862,86.3508)">
    <g transform="matrix(0,-1,1,0,0,0)">
     <g id="copper1" stroke-width="0">
      <g id="copper0" stroke-width="0">
       <rect fill="white" height="3.96" stroke="white" x="2.34" stroke-width="2.16" y="2.34" width="3.96"/>
       <circle fill="white" id="connector0pin" cx="4.32" cy="4.32" stroke="white" stroke-width="2.16" r="1.98"/>
       <circle fill="white" id="connector27pin" cx="25.92" cy="4.32" stroke="white" stroke-width="2.16" r="1.98"/>
       <circle fill="white" id="connector1pin" cx="4.32" cy="11.52" stroke="white" stroke-width="2.16" r="1.98"/>
       <circle fill="white" id="connector26pin" cx="25.92" cy="11.52" stroke="white" stroke-width="2.16" r="1.98"/>
       <circle fill="white" id="connector2pin" cx="4.32" cy="18.72" stroke="white" stroke-width="2.16" r="1.98"/>
       <circle fill="white" id="connector25pin" cx="25.92" cy="18.72" stroke="white" stroke-width="2.16" r="1.98"/>
       <circle fill="white" id="connector3pin" cx="4.32" cy="25.92" stroke="white" stroke-width="2.16" r="1.98"/>
       <circle fill="white" id="connector24pin" cx="25.92" cy="25.92" stroke="white" stroke-width="2.16" r="1.98"/>
       <circle fill="white" id="connector4pin" cx="4.32" cy="33.12" stroke="white" stroke-width="2.16" r="1.98"/>
       <circle fill="white" id="connector23pin" cx="25.92" cy="33.12" stroke="white" stroke-width="2.16" r="1.98"/>
       <circle fill="white" id="connector5pin" cx="4.32" cy="40.32" stroke="white" stroke-width="2.16" r="1.98"/>
       <circle fill="white" id="connector22pin" cx="25.92" cy="40.32" stroke="white" stroke-width="2.16" r="1.98"/>
       <circle fill="white" id="connector6pin" cx="4.32" cy="47.52" stroke="white" stroke-width="2.16" r="1.98"/>
       <circle fill="white" id="connector21pin" cx="25.92" cy="47.52" stroke="white" stroke-width="2.16" r="1.98"/>
       <circle fill="white" id="connector7pin" cx="4.32" cy="54.72" stroke="white" stroke-width="2.16" r="1.98"/>
       <circle fill="white" id="connector20pin" cx="25.92" cy="54.72" stroke="white" stroke-width="2.16" r="1.98"/>
       <circle fill="white" id="connector8pin" cx="4.32" cy="61.92" stroke="white" stroke-width="2.16" r="1.98"/>
       <circle fill="white" id="connector19pin" cx="25.92" cy="61.92" stroke="white" stroke-width="2.16" r="1.98"/>
       <circle fill="white" id="connector9pin" cx="4.32" cy="69.12" stroke="white" stroke-width="2.16" r="1.98"/>
       <circle fill="white" id="connector18pin" cx="25.92" cy="69.12" stroke="white" stroke-width="2.16" r="1.98"/>
       <circle fill="white" id="connector10pin" cx="4.32" cy="76.32" stroke="white" stroke-width="2.16" r="1.98"/>
       <circle fill="white" id="connector17pin" cx="25.92" cy="76.32" stroke="white" stroke-width="2.16" r="1.98"/>
       <circle fill="white" id="connector11pin" cx="4.32" cy="83.52" stroke="white" stroke-width="2.16" r="1.98"/>
       <circle fill="white" id="connector16pin" cx="25.92" cy="83.52" stroke="white" stroke-width="2.16" r="1.98"/>
       <circle fill="white" id="connector12pin" cx="4.32" cy="90.72" stroke="white" stroke-width="2.16" r="1.98"/>
       <circle fill="white" id="connector15pin" cx="25.92" cy="90.72" stroke="white" stroke-width="2.16" r="1.98"/>
       <circle fill="white" id="connector13pin" cx="4.32" cy="97.92" stroke="white" stroke-width="2.16" r="1.98"/>
       <circle fill="white" id="connector14pin" cx="25.92" cy="97.92" stroke="white" stroke-width="2.16" r="1.98"/>
      </g>
     </g>
    </g>
   </g>
  </g>
  <g partID="854276882">
   <g transform="translate(91.5702,95.8658)">
    <g id="copper1">
     <circle fill="white" id="connector1pin" cx="22.5479" cy="7.08448" stroke="white" stroke-width="2.13732" r="1.84465"/>
     <circle fill="white" id="connector0pin" cx="8.64567" cy="7.08661" stroke="white" stroke-width="2.13732" r="1.84252"/>
    </g>
   </g>
  </g>
  <g partID="854277082">
   <g transform="translate(107.204,122.839)">
    <g transform="matrix(-1,0,0,-1,0,0)">
     <g id="copper1">
      <circle fill="white" id="connector0pin" cx="2.88" cy="2.88" stroke="white" stroke-width="2.16" r="1.8"/>
      <circle fill="white" id="connector1pin" cx="10.0933" cy="2.88" stroke="white" stroke-width="2.16" r="1.8"/>
     </g>
    </g>
   </g>
  </g>
  <g partID="854277232">
   <g transform="translate(108.277,117.079)">
    <g id="copper1">
     <circle fill="white" id="connector0pin" cx="2.88" cy="2.88" stroke="white" stroke-width="2.16" r="1.8"/>
     <circle fill="white" id="connector1pin" cx="10.0933" cy="2.88" stroke="white" stroke-width="2.16" r="1.8"/>
    </g>
   </g>
  </g>
  <g partID="854278312">
   <g transform="translate(77.5866,101.795)">
    <g transform="matrix(-1,0,0,-1,0,0)">
     <g id="copper1">
      <!-- <rect width="55" x="10" y="15.5" fill="none" height="55" stroke="rgb(255, 191, 0)" stroke-width="20" />  -->
      <circle fill="white" id="connector0pin" cx="2.7" cy="3.096" stroke="white" stroke-width="2.16" r="1.98"/>
      <circle fill="white" id="connector1pin" cx="31.5" cy="3.096" stroke="white" stroke-width="2.16" r="1.98"/>
     </g>
    </g>
   </g>
  </g>
  <g partID="854279182">
   <g transform="translate(173.237,70.1706)">
    <g id="copper1">
     <g id="copper0">
      <rect fill="white" id="square" height="3.96" stroke="white" stroke-width="2.16" x="2.34" y="2.34" width="3.96"/>
      <circle fill="white" id="connector0pin" cx="4.32" cy="4.32" stroke="white" stroke-width="2.16" r="1.98"/>
      <circle fill="white" id="connector7pin" cx="25.92" cy="4.32" stroke="white" stroke-width="2.16" r="1.98"/>
      <circle fill="white" id="connector1pin" cx="4.32" cy="11.52" stroke="white" stroke-width="2.16" r="1.98"/>
      <circle fill="white" id="connector6pin" cx="25.92" cy="11.52" stroke="white" stroke-width="2.16" r="1.98"/>
      <circle fill="white" id="connector2pin" cx="4.32" cy="18.72" stroke="white" stroke-width="2.16" r="1.98"/>
      <circle fill="white" id="connector5pin" cx="25.92" cy="18.72" stroke="white" stroke-width="2.16" r="1.98"/>
      <circle fill="white" id="connector3pin" cx="4.32" cy="25.92" stroke="white" stroke-width="2.16" r="1.98"/>
      <circle fill="white" id="connector4pin" cx="25.92" cy="25.92" stroke="white" stroke-width="2.16" r="1.98"/>
     </g>
    </g>
   </g>
  </g>
  <g partID="854279242">
   <g transform="translate(233.105,72.4386)">
    <g id="copper1">
     <g id="copper0">
      <rect fill="white" id="square" height="3.96" stroke="white" stroke-width="2.16" x="2.34" y="2.34" width="3.96"/>
      <circle fill="white" id="connector0pin" cx="4.32" cy="4.32" stroke="white" stroke-width="2.16" r="1.98"/>
      <circle fill="white" id="connector15pin" cx="25.92" cy="4.32" stroke="white" stroke-width="2.16" r="1.98"/>
      <circle fill="white" id="connector1pin" cx="4.32" cy="11.52" stroke="white" stroke-width="2.16" r="1.98"/>
      <circle fill="white" id="connector14pin" cx="25.92" cy="11.52" stroke="white" stroke-width="2.16" r="1.98"/>
      <circle fill="white" id="connector2pin" cx="4.32" cy="18.72" stroke="white" stroke-width="2.16" r="1.98"/>
      <circle fill="white" id="connector13pin" cx="25.92" cy="18.72" stroke="white" stroke-width="2.16" r="1.98"/>
      <circle fill="white" id="connector3pin" cx="4.32" cy="25.92" stroke="white" stroke-width="2.16" r="1.98"/>
      <circle fill="white" id="connector12pin" cx="25.92" cy="25.92" stroke="white" stroke-width="2.16" r="1.98"/>
      <circle fill="white" id="connector4pin" cx="4.32" cy="33.12" stroke="white" stroke-width="2.16" r="1.98"/>
      <circle fill="white" id="connector11pin" cx="25.92" cy="33.12" stroke="white" stroke-width="2.16" r="1.98"/>
      <circle fill="white" id="connector5pin" cx="4.32" cy="40.32" stroke="white" stroke-width="2.16" r="1.98"/>
      <circle fill="white" id="connector10pin" cx="25.92" cy="40.32" stroke="white" stroke-width="2.16" r="1.98"/>
      <circle fill="white" id="connector6pin" cx="4.32" cy="47.52" stroke="white" stroke-width="2.16" r="1.98"/>
      <circle fill="white" id="connector9pin" cx="25.92" cy="47.52" stroke="white" stroke-width="2.16" r="1.98"/>
      <circle fill="white" id="connector7pin" cx="4.32" cy="54.72" stroke="white" stroke-width="2.16" r="1.98"/>
      <circle fill="white" id="connector8pin" cx="25.92" cy="54.72" stroke="white" stroke-width="2.16" r="1.98"/>
     </g>
    </g>
   </g>
  </g>
  <g partID="854289202">
   <g transform="translate(26.658,108.608)">
    <g id="copper1">
     <g id="copper0">
      <circle fill="white" id="connector0pad" cx="20.8462" cy="15.6024" stroke="white" stroke-width="2.16" r="1.98"/>
      <circle fill="white" id="connector1pad" cx="2.42064" cy="15.6024" stroke="white" stroke-width="2.16" r="1.98"/>
      <circle fill="white" id="connector2pad" cx="20.8462" cy="2.84616" stroke="white" stroke-width="2.16" r="1.98"/>
      <circle fill="white" id="connector3pad" cx="2.42064" cy="2.84616" stroke="white" stroke-width="2.16" r="1.98"/>
     </g>
    </g>
   </g>
  </g>
  <g partID="854371582">
   <g transform="translate(124.846,170.882)">
    <g transform="matrix(-1,0,0,-1,0,0)">
     <g id="copper1">
      <g id="copper0">
       <circle fill="white" id="connector2pad" cx="3.528" cy="22.464" stroke="white" stroke-width="2.808" r="2.52"/>
       <rect fill="white" height="5.04" stroke="white" stroke-width="2.808" x="1.008" y="5.544" width="5.04"/>
       <circle fill="white" id="connector0pad" cx="3.528" cy="8.064" stroke="white" stroke-width="2.808" r="2.52"/>
       <circle fill="white" id="connector1pad" cx="32.328" cy="15.264" stroke="white" stroke-width="2.808" r="2.52"/>
      </g>
     </g>
    </g>
   </g>
  </g>
  <g partID="854371652">
   <g transform="translate(136.75,49.0469)">
    <g id="copper1">
     <circle fill="white" id="connector0pin" cx="2.88" cy="2.88" stroke="white" stroke-width="2.16" r="1.8"/>
     <circle fill="white" id="connector1pin" cx="10.0933" cy="2.88" stroke="white" stroke-width="2.16" r="1.8"/>
    </g>
   </g>
  </g>
  <g partID="854372683">
   <g transform="translate(143.382,55.6788)">
    <g id="copper1">
     <circle fill="white" id="connector0pad" cx="4.752" cy="102.547" stroke="white" stroke-width="2.16" r="1.98"/>
     <circle fill="white" id="connector1pad" cx="4.752" cy="4.752" stroke="white" stroke-width="2.16" r="1.98"/>
    </g>
   </g>
  </g>
  <g partID="854373252">
   <g transform="translate(32.5426,148.934)">
    <g id="copper1">
     <g id="copper0">
      <circle fill="white" id="connector0pin" cx="5.04" cy="5.04" stroke="white" stroke-width="2.16" r="2.088"/>
      <circle fill="white" id="connector1pin" cx="5.04" cy="12.24" stroke="white" stroke-width="2.16" r="2.088"/>
     </g>
    </g>
   </g>
  </g>
  <g partID="854374291">
   <g transform="translate(264.172,163.713)">
    <g id="copper1">
     <circle fill="white" id="nonconn0" cx="7.26926" cy="7.26926" stroke="white" stroke-width="0.72" r="5.66929"/>
    </g>
   </g>
  </g>
  <g partID="854374311">
   <g transform="translate(4.80149,163.713)">
    <g id="copper1">
     <circle fill="white" id="nonconn0" cx="7.26926" cy="7.26926" stroke="white" stroke-width="0.72" r="5.66929"/>
    </g>
   </g>
  </g>
 </g>
</svg>
