G75*
%MOIN*%
%OFA0B0*%
%FSLAX25Y25*%
%IPPOS*%
%LPD*%
%AMOC8*
5,1,8,0,0,1.08239X$1,22.5*
%
%ADD10C,0.12900*%
%ADD11OC8,0.05943*%
%ADD12C,0.08077*%
%ADD13OC8,0.06337*%
%ADD14C,0.06337*%
%ADD15C,0.11424*%
%ADD16C,0.08200*%
%ADD17OC8,0.08200*%
%ADD18C,0.09849*%
%ADD19C,0.06700*%
%ADD20OC8,0.09000*%
%ADD21OC8,0.06400*%
%ADD22C,0.12200*%
%ADD23C,0.03100*%
D10*
X0265100Y0271400D03*
X0065100Y0331400D03*
D11*
X0099200Y0331400D03*
X0109200Y0331400D03*
X0119200Y0331400D03*
X0129200Y0331400D03*
X0139200Y0331400D03*
X0149200Y0331400D03*
X0159200Y0331400D03*
X0169200Y0331400D03*
X0185100Y0331400D03*
X0195100Y0331400D03*
X0205100Y0331400D03*
X0215100Y0331400D03*
X0225100Y0331400D03*
X0235100Y0331400D03*
X0245100Y0331400D03*
X0255100Y0331400D03*
X0275100Y0331400D03*
X0285100Y0331400D03*
X0295100Y0331400D03*
X0305100Y0331400D03*
X0315100Y0331400D03*
X0325100Y0331400D03*
X0335100Y0331400D03*
X0345100Y0331400D03*
X0375100Y0181400D03*
X0385100Y0181400D03*
X0385100Y0171400D03*
X0375100Y0171400D03*
X0375100Y0161400D03*
X0385100Y0161400D03*
X0365100Y0141400D03*
X0355100Y0141400D03*
X0345100Y0141400D03*
X0335100Y0141400D03*
X0325100Y0141400D03*
X0315100Y0141400D03*
X0305100Y0141400D03*
X0295100Y0141400D03*
X0275100Y0141400D03*
X0265100Y0141400D03*
X0255100Y0141400D03*
X0245100Y0141400D03*
X0235100Y0141400D03*
X0225100Y0141400D03*
X0215100Y0141400D03*
X0205100Y0141400D03*
X0185100Y0141400D03*
X0175100Y0141400D03*
X0165100Y0141400D03*
X0155100Y0141400D03*
X0145100Y0141400D03*
X0135100Y0141400D03*
D12*
X0140512Y0080280D03*
X0120827Y0080280D03*
X0089331Y0080280D03*
X0069646Y0080280D03*
X0038150Y0080280D03*
X0018465Y0080280D03*
X0018465Y0031067D03*
X0038150Y0031067D03*
X0069646Y0031067D03*
X0089331Y0031067D03*
X0120827Y0031067D03*
X0140512Y0031067D03*
X0172008Y0031067D03*
X0191693Y0031067D03*
X0223189Y0031067D03*
X0242874Y0031067D03*
X0274370Y0031067D03*
X0294055Y0031067D03*
X0325551Y0031067D03*
X0345236Y0031067D03*
X0376732Y0031067D03*
X0396417Y0031067D03*
X0427913Y0031067D03*
X0447598Y0031067D03*
X0479094Y0031067D03*
X0498780Y0031067D03*
X0530276Y0031067D03*
X0549961Y0031067D03*
X0581457Y0031067D03*
X0601142Y0031067D03*
X0632638Y0031067D03*
X0652323Y0031067D03*
X0683819Y0031067D03*
X0703504Y0031067D03*
X0735000Y0031067D03*
X0754685Y0031067D03*
X0786181Y0031067D03*
X0805866Y0031067D03*
X0805866Y0080280D03*
X0786181Y0080280D03*
X0754685Y0080280D03*
X0735000Y0080280D03*
X0703504Y0080280D03*
X0683819Y0080280D03*
X0652323Y0080280D03*
X0632638Y0080280D03*
X0601142Y0080280D03*
X0581457Y0080280D03*
X0549961Y0080280D03*
X0530276Y0080280D03*
X0498780Y0080280D03*
X0479094Y0080280D03*
X0447598Y0080280D03*
X0427913Y0080280D03*
X0396417Y0080280D03*
X0376732Y0080280D03*
X0345236Y0080280D03*
X0325551Y0080280D03*
X0294055Y0080280D03*
X0274370Y0080280D03*
X0242874Y0080280D03*
X0223189Y0080280D03*
X0191693Y0080280D03*
X0172008Y0080280D03*
X0338157Y0179894D03*
X0357843Y0179894D03*
X0402409Y0197193D03*
X0422094Y0197193D03*
X0422094Y0210972D03*
X0402409Y0210972D03*
X0357843Y0229106D03*
X0338157Y0229106D03*
X0402409Y0260185D03*
X0422094Y0260185D03*
X0466157Y0229106D03*
X0485843Y0229106D03*
X0554638Y0191516D03*
X0574323Y0191516D03*
X0615819Y0191516D03*
X0635504Y0191516D03*
X0677000Y0191516D03*
X0696685Y0191516D03*
X0786257Y0191506D03*
X0805943Y0191506D03*
X0805943Y0142294D03*
X0786257Y0142294D03*
X0696685Y0142303D03*
X0677000Y0142303D03*
X0635504Y0142303D03*
X0615819Y0142303D03*
X0574323Y0142303D03*
X0554638Y0142303D03*
X0485843Y0179894D03*
X0466157Y0179894D03*
X0422094Y0147980D03*
X0402409Y0147980D03*
D13*
X0302000Y0181500D03*
X0292000Y0181500D03*
X0292000Y0191500D03*
X0302000Y0191500D03*
X0302000Y0201500D03*
X0292000Y0201500D03*
X0292000Y0211500D03*
X0302000Y0211500D03*
X0302000Y0221500D03*
X0292000Y0221500D03*
X0292000Y0231500D03*
X0302000Y0231500D03*
X0302000Y0241500D03*
X0292000Y0241500D03*
X0292000Y0251500D03*
X0302000Y0251500D03*
X0263500Y0235500D03*
X0253500Y0235500D03*
X0253500Y0225500D03*
X0263500Y0225500D03*
X0238500Y0213500D03*
X0228500Y0213500D03*
X0218000Y0233000D03*
X0208000Y0233000D03*
X0197000Y0233000D03*
X0187000Y0233000D03*
X0160000Y0233000D03*
X0150000Y0233000D03*
X0139000Y0233000D03*
X0129000Y0233000D03*
X0171500Y0214000D03*
X0181500Y0214000D03*
X0186000Y0181000D03*
X0196000Y0181000D03*
X0207000Y0181000D03*
X0217000Y0181000D03*
X0166500Y0157000D03*
X0156500Y0157000D03*
X0145000Y0157000D03*
X0135000Y0157000D03*
X0138500Y0181000D03*
X0128500Y0181000D03*
X0149500Y0181000D03*
X0159500Y0181000D03*
X0171500Y0266500D03*
X0181500Y0266500D03*
X0228500Y0266500D03*
X0238500Y0266500D03*
X0234000Y0285500D03*
X0244000Y0285500D03*
X0244000Y0295500D03*
X0234000Y0295500D03*
X0717407Y0190093D03*
X0737093Y0190093D03*
X0746407Y0190093D03*
X0766093Y0190093D03*
X0756250Y0170407D03*
X0727250Y0170407D03*
D14*
X0687826Y0328960D02*
X0687826Y0334897D01*
X0677826Y0334897D02*
X0677826Y0328960D01*
X0667826Y0328960D02*
X0667826Y0334897D01*
X0657826Y0334897D02*
X0657826Y0328960D01*
X0647826Y0328960D02*
X0647826Y0334897D01*
X0637826Y0334897D02*
X0637826Y0328960D01*
X0627826Y0328960D02*
X0627826Y0334897D01*
X0617826Y0334897D02*
X0617826Y0328960D01*
X0607826Y0328960D02*
X0607826Y0334897D01*
X0597826Y0334897D02*
X0597826Y0328960D01*
X0587826Y0328960D02*
X0587826Y0334897D01*
X0577826Y0334897D02*
X0577826Y0328960D01*
X0567826Y0328960D02*
X0567826Y0334897D01*
X0557826Y0334897D02*
X0557826Y0328960D01*
X0547826Y0328960D02*
X0547826Y0334897D01*
X0537826Y0334897D02*
X0537826Y0328960D01*
D15*
X0516330Y0331928D03*
X0516330Y0210196D03*
X0811291Y0210196D03*
X0811291Y0331928D03*
D16*
X0463000Y0298715D02*
X0463000Y0290915D01*
X0379000Y0290915D02*
X0379000Y0298715D01*
D17*
X0349472Y0294815D03*
X0359315Y0284972D03*
X0398685Y0284972D03*
X0408528Y0294815D03*
X0433472Y0294815D03*
X0443315Y0284972D03*
X0482685Y0284972D03*
X0492528Y0294815D03*
X0472843Y0334185D03*
X0453157Y0334185D03*
X0388843Y0334185D03*
X0369157Y0334185D03*
D18*
X0349472Y0314500D03*
X0408528Y0314500D03*
X0433472Y0314500D03*
X0492528Y0314500D03*
D19*
X0073150Y0215000D02*
X0066850Y0215000D01*
X0066850Y0205000D02*
X0073150Y0205000D01*
X0073150Y0195000D02*
X0066850Y0195000D01*
D20*
X0085898Y0140882D03*
X0111488Y0140882D03*
D21*
X0111000Y0198000D03*
X0101000Y0198000D03*
X0101000Y0208000D03*
X0111000Y0208000D03*
X0111000Y0218000D03*
X0101000Y0218000D03*
X0101000Y0228000D03*
X0111000Y0228000D03*
X0111000Y0238000D03*
X0101000Y0238000D03*
X0101000Y0248000D03*
X0111000Y0248000D03*
X0111000Y0258000D03*
X0101000Y0258000D03*
X0101000Y0268000D03*
X0111000Y0268000D03*
X0087000Y0297250D03*
X0076000Y0308500D03*
X0055500Y0299500D03*
X0048750Y0291000D03*
X0024750Y0246250D03*
X0060250Y0236750D03*
X0041500Y0213250D03*
X0251500Y0179250D03*
X0272000Y0177250D03*
X0281750Y0163500D03*
X0299500Y0166000D03*
X0309500Y0166000D03*
X0319500Y0166000D03*
X0329500Y0166000D03*
X0329500Y0156000D03*
X0319500Y0156000D03*
X0309500Y0156000D03*
X0299500Y0156000D03*
X0340000Y0155500D03*
X0393750Y0204500D03*
X0444500Y0261750D03*
X0422750Y0270500D03*
X0421000Y0295500D03*
X0489250Y0275500D03*
X0665750Y0268500D03*
X0678000Y0276000D03*
X0703250Y0331750D03*
X0290500Y0303500D03*
X0290500Y0293500D03*
X0280500Y0293500D03*
X0270500Y0293500D03*
X0260500Y0293500D03*
X0260500Y0303500D03*
X0270500Y0303500D03*
X0280500Y0303500D03*
X0288500Y0274500D03*
D22*
X0054000Y0018250D03*
X0055000Y0109500D03*
X0259500Y0109500D03*
X0413000Y0109500D03*
X0566500Y0109500D03*
X0413000Y0018250D03*
X0770500Y0018250D03*
X0771500Y0109500D03*
X0786250Y0307000D03*
D23*
X0658600Y0310600D03*
X0655760Y0313498D03*
X0650800Y0316600D03*
X0654000Y0320500D03*
X0603000Y0311000D03*
X0583600Y0319100D03*
X0580400Y0316600D03*
X0575400Y0316600D03*
X0571600Y0323400D03*
X0559719Y0313498D03*
X0545400Y0323100D03*
X0535400Y0323700D03*
X0533600Y0320500D03*
X0528600Y0316500D03*
X0531000Y0314000D03*
X0531000Y0302500D03*
X0490220Y0282240D03*
X0524000Y0266100D03*
X0503000Y0256000D03*
X0493287Y0260409D03*
X0479937Y0253913D03*
X0474937Y0253911D03*
X0467339Y0252215D03*
X0459937Y0246010D03*
X0454937Y0258108D03*
X0482535Y0247411D03*
X0508400Y0237900D03*
X0493287Y0233996D03*
X0477287Y0222986D03*
X0489886Y0213374D03*
X0447839Y0231154D03*
X0414307Y0225437D03*
X0375467Y0227937D03*
X0352348Y0243500D03*
X0345240Y0252951D03*
X0349850Y0255850D03*
X0367575Y0263500D03*
X0375467Y0261787D03*
X0376549Y0268500D03*
X0388923Y0253500D03*
X0414307Y0257301D03*
X0342199Y0291409D03*
X0335268Y0301657D03*
X0336669Y0306358D03*
X0327260Y0307496D03*
X0318240Y0307496D03*
X0306000Y0312500D03*
X0304726Y0318906D03*
X0301325Y0321500D03*
X0288000Y0321500D03*
X0282902Y0318906D03*
X0274551Y0314768D03*
X0282902Y0312366D03*
X0255000Y0309965D03*
X0245000Y0309953D03*
X0235000Y0309953D03*
X0225500Y0310301D03*
X0239800Y0319100D03*
X0210800Y0327100D03*
X0199923Y0336624D03*
X0174854Y0314453D03*
X0129500Y0291612D03*
X0119500Y0304262D03*
X0093500Y0295000D03*
X0099000Y0290211D03*
X0088500Y0278252D03*
X0084421Y0276850D03*
X0082020Y0268500D03*
X0073421Y0264760D03*
X0072823Y0261150D03*
X0061350Y0264760D03*
X0045500Y0261000D03*
X0045500Y0256000D03*
X0035000Y0248260D03*
X0033000Y0242500D03*
X0045622Y0229480D03*
X0051800Y0225700D03*
X0066650Y0230000D03*
X0088500Y0243650D03*
X0064250Y0255740D03*
X0061701Y0248260D03*
X0093504Y0264760D03*
X0130683Y0260732D03*
X0137760Y0260732D03*
X0128281Y0245252D03*
X0169760Y0233000D03*
X0177240Y0234496D03*
X0188500Y0247500D03*
X0189882Y0252500D03*
X0193760Y0260732D03*
X0207500Y0252000D03*
X0202000Y0247500D03*
X0202646Y0242500D03*
X0227260Y0233000D03*
X0235000Y0234000D03*
X0258921Y0241488D03*
X0239000Y0255000D03*
X0282852Y0250234D03*
X0307346Y0241500D03*
X0323654Y0241500D03*
X0323654Y0251500D03*
X0323654Y0231500D03*
X0307346Y0231500D03*
X0323654Y0221500D03*
X0307346Y0211500D03*
X0268819Y0225500D03*
X0208848Y0206000D03*
X0202646Y0196000D03*
X0210354Y0191000D03*
X0207848Y0186020D03*
X0234000Y0178500D03*
X0216500Y0165494D03*
X0224000Y0163350D03*
X0239000Y0163350D03*
X0247000Y0163350D03*
X0259921Y0168896D03*
X0293402Y0165752D03*
X0307346Y0181500D03*
X0347500Y0155500D03*
X0366752Y0155500D03*
X0364350Y0170500D03*
X0314276Y0131856D03*
X0288850Y0114657D03*
X0265594Y0126951D03*
X0246800Y0121100D03*
X0233500Y0123500D03*
X0209500Y0126000D03*
X0206738Y0121354D03*
X0206738Y0116354D03*
X0206738Y0111354D03*
X0210931Y0106904D03*
X0213333Y0101354D03*
X0226734Y0096354D03*
X0237110Y0098756D03*
X0232146Y0089476D03*
X0217000Y0086000D03*
X0204488Y0074990D03*
X0177213Y0075390D03*
X0159331Y0097079D03*
X0148500Y0096000D03*
X0141000Y0096000D03*
X0150319Y0107984D03*
X0163831Y0106904D03*
X0190431Y0103955D03*
X0232146Y0109303D03*
X0273075Y0089256D03*
X0285000Y0094500D03*
X0302185Y0086240D03*
X0338366Y0085398D03*
X0339835Y0095953D03*
X0375551Y0091657D03*
X0391193Y0096020D03*
X0388260Y0117335D03*
X0444000Y0120480D03*
X0451898Y0120480D03*
X0452000Y0129000D03*
X0454547Y0132114D03*
X0466898Y0131697D03*
X0469547Y0134102D03*
X0469547Y0147813D03*
X0459547Y0147813D03*
X0451898Y0147980D03*
X0479547Y0153209D03*
X0485949Y0157012D03*
X0479547Y0159413D03*
X0500339Y0152402D03*
X0519909Y0150000D03*
X0518508Y0143795D03*
X0530500Y0137500D03*
X0542059Y0137390D03*
X0548862Y0131386D03*
X0541657Y0124559D03*
X0530354Y0131386D03*
X0526953Y0131386D03*
X0520287Y0125606D03*
X0496535Y0139992D03*
X0536652Y0160000D03*
X0539053Y0155000D03*
X0536652Y0165000D03*
X0536652Y0174752D03*
X0524549Y0180000D03*
X0548862Y0184063D03*
X0516882Y0167402D03*
X0498947Y0180000D03*
X0484547Y0172014D03*
X0472449Y0177447D03*
X0465500Y0172500D03*
X0455744Y0172364D03*
X0459547Y0182555D03*
X0477071Y0117075D03*
X0530354Y0089874D03*
X0539053Y0085169D03*
X0583350Y0116713D03*
X0613260Y0094205D03*
X0634862Y0116760D03*
X0665201Y0094205D03*
X0707669Y0085350D03*
X0727488Y0085350D03*
X0754636Y0086701D03*
X0728512Y0119646D03*
X0767000Y0137945D03*
X0718200Y0179800D03*
X0607360Y0152350D03*
X0633500Y0244000D03*
X0633500Y0251500D03*
X0369157Y0315256D03*
X0340000Y0317700D03*
X0339350Y0321500D03*
X0339350Y0312500D03*
X0310372Y0299008D03*
X0314175Y0294008D03*
X0317577Y0294008D03*
X0319978Y0289008D03*
X0311774Y0289008D03*
X0310372Y0284008D03*
X0321386Y0277555D03*
X0297500Y0269000D03*
X0255000Y0295876D03*
X0280200Y0329900D03*
X0330000Y0329700D03*
X0166350Y0267000D03*
X0198500Y0224000D03*
X0190150Y0214500D03*
X0179646Y0222256D03*
X0164000Y0209500D03*
X0181500Y0204500D03*
X0185453Y0201000D03*
X0181350Y0196000D03*
X0152854Y0191000D03*
X0151500Y0198500D03*
X0145146Y0201000D03*
X0132382Y0196000D03*
X0130980Y0204600D03*
X0145740Y0209496D03*
X0138260Y0219854D03*
X0093752Y0204453D03*
X0107453Y0186293D03*
X0093504Y0173789D03*
X0083752Y0169896D03*
X0078752Y0167494D03*
X0078752Y0164093D03*
X0083752Y0161691D03*
X0088752Y0161691D03*
X0067500Y0166500D03*
X0073752Y0172888D03*
X0076654Y0148634D03*
X0081858Y0148634D03*
X0093650Y0146232D03*
X0098600Y0148700D03*
X0098600Y0143700D03*
X0107598Y0148634D03*
X0093500Y0132000D03*
X0086575Y0129201D03*
X0097992Y0120705D03*
X0091378Y0113307D03*
X0120343Y0109303D03*
X0129783Y0111354D03*
X0132189Y0108453D03*
X0120343Y0100610D03*
X0071850Y0090321D03*
X0062000Y0075500D03*
X0013724Y0085913D03*
X0027421Y0113307D03*
X0176500Y0126000D03*
X0191325Y0131602D03*
X0196356Y0131602D03*
X0198758Y0146232D03*
X0209000Y0145222D03*
X0224000Y0146222D03*
X0231500Y0145222D03*
X0239000Y0145222D03*
X0188923Y0167896D03*
X0181543Y0171699D03*
X0179142Y0175100D03*
X0201159Y0171348D03*
X0175000Y0155000D03*
X0271969Y0068787D03*
M02*
