; NON-PLATED HOLES START AT T1
; THROUGH (PLATED) HOLES START AT T100
M48
INCH
T1C0.125984
T2C0.043307
T100C0.086614
T101C0.038000
T102C0.040000
T103C0.028000
T104C0.015748
T105C0.035000
T106C0.042000
T107C0.030000
T108C0.055118
T109C0.086000
T110C0.036000
%
T1
X022091Y037700
X038035Y017031
X038035Y001435
X038035Y037969
X001421Y017031
X001421Y001435
X001421Y037969
T2
X034539Y035302
X032767Y035302
T100
X035937Y035262
X031370Y035262
T101
X032721Y006488
X033902Y011488
X021500Y022023
X015004Y016669
X004374Y007897
X013232Y012850
X016776Y028842
X013823Y005173
X033902Y008488
X024453Y031204
X032721Y012488
X004374Y019874
X025453Y031204
X021500Y020023
X015004Y014669
X004374Y020874
X004374Y005897
X032721Y009488
X021500Y025023
X033902Y006488
X013232Y015850
X032721Y010488
X004374Y017874
X013823Y008173
X004374Y011897
X019728Y028842
X032721Y007488
X033902Y012488
X021500Y023023
X015004Y017669
X004374Y008897
X013232Y013850
X013823Y006173
X033902Y009488
X032721Y013488
X033902Y010488
X020728Y028842
X021500Y021023
X015004Y015669
X004374Y021874
X026634Y028252
X004374Y006897
X016776Y027842
X025634Y028252
X013823Y004173
X033902Y007488
X032721Y011488
X004374Y018874
X004374Y012897
X004374Y004897
X032721Y008488
X002602Y027661
X033902Y013488
X021500Y024023
X004374Y009897
X003602Y027661
X013232Y014850
X004374Y016874
X013823Y007173
X004374Y010897
T102
X021909Y007716
X020909Y011716
X021909Y011716
X020909Y008716
X021909Y008716
X020909Y012716
X021909Y012716
X020909Y009716
X021909Y009716
X020909Y013716
X021909Y013716
X020909Y006716
X021909Y006716
X020909Y010716
X021909Y010716
X020909Y007716
T103
X026809Y034186
X025829Y033406
X026809Y033406
X025829Y034186
T104
X020135Y026058
T105
X008461Y014653
X022109Y026843
X035083Y021165
X011461Y008653
X026177Y011574
X007917Y024708
X029177Y012574
X035083Y017165
X011461Y011653
X008461Y013653
X017619Y016384
X011461Y007653
X009461Y025842
X026177Y010574
X008461Y009653
X012642Y021337
X029177Y011574
X011461Y010653
X033902Y021165
X008461Y012653
X011461Y006653
X010461Y025842
X033902Y017165
X036854Y023527
X003917Y025889
X008461Y008653
X029177Y010574
X008461Y011653
X012642Y017622
X011461Y005653
X008461Y007653
X016240Y013431
X003380Y023714
X011461Y028842
X008461Y010653
X026177Y023574
X017056Y015764
X011461Y004653
X008461Y006653
X026177Y019574
X026177Y022574
X029177Y023574
X008461Y005653
X013823Y018803
X014358Y031204
X026177Y018574
X023862Y024118
X029177Y019574
X026177Y021574
X014358Y027204
X022131Y032342
X006736Y021165
X029177Y022574
X008461Y004653
X019869Y016458
X026177Y017574
X006736Y026480
X011461Y025842
X029177Y018574
X003917Y024708
X011461Y017653
X012051Y031614
X026177Y020574
X022131Y031342
X029177Y021574
X026177Y016574
X025091Y016441
X029177Y017574
X011461Y016653
X012051Y030614
X007917Y025889
X029177Y020574
X022512Y016441
X026177Y015574
X030358Y032976
X029177Y016574
X011461Y015653
X003240Y020574
X008461Y017653
X022091Y029603
X030358Y031204
X013823Y021300
X026177Y014574
X025091Y017622
X022548Y017639
X029177Y015574
X011461Y014653
X008508Y019984
X024862Y024118
X008461Y016653
X002304Y026194
X009461Y028842
X026177Y013574
X036854Y021165
X029177Y014574
X011461Y013653
X008508Y018984
X008461Y015653
X002278Y023709
X011461Y009653
X010461Y028842
X026177Y012574
X029177Y013574
X011461Y012653
T106
X009098Y031204
X006118Y031204
T107
X006314Y016905
X023862Y020574
X032130Y016212
X013823Y011126
X006314Y018905
X023862Y022574
X013823Y010124
X032130Y018212
T108
X016380Y034237
X004577Y034241
X005550Y033245
X018345Y033249
X018345Y038171
X009487Y033249
X005547Y038171
X009487Y038171
X010487Y034241
X019345Y034241
X014408Y033245
X014405Y038171
X007522Y034237
X013436Y034241
T109
X023949Y035256
X028689Y035256
T110
X033210Y034318
X035031Y034318
X032275Y034318
X034097Y034318
T00
M30
