; NON-PLATED HOLES START AT T1
; THROUGH (PLATED) HOLES START AT T100
M48
INCH
T1C0.125984
T2C0.043307
T100C0.030000
T101C0.040000
T102C0.015748
T103C0.086614
T104C0.028000
T105C0.035000
T106C0.055118
T107C0.036000
T108C0.038000
T109C0.038194
T110C0.032000
T111C0.086000
T112C0.037639
T113C0.042000
%
T1
X001271Y038057
X037885Y001524
X019714Y001246
X037885Y017120
X017180Y021281
X037885Y038057
X001271Y001524
X021940Y037789
X001271Y017120
T2
X034389Y035391
X032617Y035391
T100
X031980Y018301
X004513Y008801
X021993Y011467
X003508Y010595
X004510Y010595
X022142Y014981
X022995Y011467
X006163Y016994
X006163Y018994
X003511Y008801
X022142Y013979
X023712Y020663
X013673Y010213
X013673Y011214
X023712Y022663
X031980Y016301
T101
X019147Y006805
X020147Y008805
X020147Y013805
X020147Y010805
X020147Y009805
X019147Y013805
X020147Y011805
X019147Y009805
X019147Y007805
X020147Y006805
X019147Y010805
X020147Y012805
X020147Y007805
X019147Y012805
X019147Y008805
X019147Y011805
T102
X014464Y023019
X006289Y022222
X030248Y031454
X029437Y033831
X036114Y023616
X020169Y027159
X015070Y022455
X012491Y017710
X036114Y021254
X019740Y017749
X017216Y017710
X013673Y018301
T103
X035786Y035351
X031220Y035351
T104
X025679Y033495
X026659Y034275
X026659Y033495
X025679Y034275
T105
X008310Y004742
X029029Y005892
X029027Y017663
X026027Y020663
X011310Y009742
X010022Y003069
X029027Y013663
X008310Y005742
X011310Y007742
X026027Y012663
X029027Y015663
X024712Y024207
X029027Y012663
X008310Y014742
X026027Y011663
X011310Y008742
X026027Y015663
X026027Y010663
X008310Y013742
X008310Y010742
X003767Y024797
X007767Y024797
X011310Y005742
X033751Y017254
X026027Y013663
X008310Y016742
X029027Y021663
X008310Y017742
X029027Y016663
X003767Y025978
X011310Y004742
X021980Y031431
X008358Y020073
X008310Y007742
X008310Y015742
X011324Y003108
X026027Y019663
X011901Y030703
X011310Y015742
X008310Y008742
X026027Y021663
X011310Y010742
X026027Y018663
X008310Y009742
X029027Y014663
X026027Y016663
X029027Y022663
X014208Y027293
X008310Y011742
X011901Y031703
X007767Y025978
X011310Y013742
X029027Y011663
X011310Y017742
X029027Y023663
X011310Y014742
X026027Y023663
X029027Y010663
X011310Y016742
X011310Y006742
X008358Y019073
X023712Y024207
X011324Y002108
X026027Y017663
X008310Y006742
X008310Y012742
X014208Y031293
X010022Y002069
X029027Y020663
X029027Y018663
X033751Y021254
X026027Y022663
X026027Y014663
X021980Y032431
X034932Y021254
X029027Y019663
X029029Y006892
X011310Y012742
X011310Y011742
X034932Y017254
T106
X014258Y033334
X018195Y033338
X005396Y038260
X016230Y034326
X004427Y034330
X007372Y034326
X014255Y038260
X005399Y033334
X009336Y038260
X010337Y034330
X009336Y033338
X018195Y038260
X019195Y034330
X013285Y034330
T107
X033947Y034406
X033059Y034406
X032125Y034406
X034881Y034406
T108
X033751Y011577
X032570Y013577
X027357Y003651
X002231Y008986
X032570Y011577
X032570Y007577
X002231Y006986
X004224Y019963
X014854Y014758
X021350Y025112
X002231Y007986
X002231Y004986
X021350Y021112
X003452Y027750
X013673Y004262
X033751Y008577
X030357Y003651
X032570Y006577
X021350Y023112
X020578Y028931
X004224Y018963
X033751Y007577
X019578Y028931
X021350Y020112
X029357Y003651
X013673Y005262
X006292Y002315
X013082Y014939
X032570Y010577
X007292Y002315
X021350Y022112
X033751Y012577
X033751Y009577
X032570Y012577
X014854Y015758
X002231Y012986
X013082Y015939
X028357Y003651
X013082Y012939
X016625Y028931
X033751Y010577
X002231Y009986
X014854Y017758
X021350Y024112
X004224Y017963
X032570Y009577
X013082Y013939
X004292Y002315
X032570Y008577
X024302Y031293
X025302Y031293
X005292Y002315
X013673Y006262
X016625Y027931
X004224Y020963
X002231Y005986
X025484Y028340
X004224Y016963
X013673Y007262
X004224Y021963
X002452Y027750
X014854Y016758
X026484Y028340
X033751Y013577
X002231Y010986
X002231Y011986
X013673Y008262
X033751Y006577
T109
X010310Y025931
X009310Y025931
X009310Y028931
X011310Y025931
X010310Y028931
T110
X006200Y008819
X023894Y015087
X006200Y010719
X023894Y013187
T111
X023799Y035345
X028539Y035345
T112
X011310Y028931
T113
X008948Y031293
X005968Y031293
T00
M30
